  0
SECTION
  2
HEADER
  9
$ANGBASE
  50
0.0
  9
$ANGDIR
  70
1
  9
$MEASUREMENT
  70
1
  0
ENDSEC
  0
SECTION
  2
TABLES
  0
TABLE
  2
LTYPE
  70
4
  0
LTYPE
  5
40F
  2
CONTINUOUS
  70
0
  3
Solid line
  72
65
  73
0
  40
0.0
  0
LTYPE
  5
410
  2
DASHDOT
 70
0
  3
Dash Dot ____ _ ____ _
 72
65
 73
4
 40
2.0
 49
1.25
 49
-0.25
 49
0.25
 49
-0.25
  0
LTYPE
  5
411
  2
DASHED
 70
0
  3
Dashed __ __ __ __ __
 72
65
 73
2
 40
0.75
 49
0.5
 49
-0.25
  0
LTYPE
  5
43B
  2
DOTTED
 70
0
  3
Dotted .  .  .  .
 72
65
 73
2
 40
0.2
 49
0.0
 49
-0.2
  0
ENDTAB
  0
TABLE
  2
STYLE
  70
4
  0
STYLE
  2
KICAD
  70
0
  40
0
  41
1
  42
1
  50
0
  71
0
  3
isocp.shx
  0
STYLE
  2
KICADB
  70
0
  40
0
  41
1
  42
1
  50
0
  71
0
  3
isocp.shx
  0
STYLE
  2
KICADI
  70
0
  40
0
  41
1
  42
1
  50
15
  71
0
  3
isocp.shx
  0
STYLE
  2
KICADBI
  70
0
  40
0
  41
1
  42
1
  50
15
  71
0
  3
isocp.shx
  0
ENDTAB
  0
TABLE
  2
LAYER
  70
1
  0
LAYER
  2
BLACK
  70
0
  62
7
  6
CONTINUOUS
  0
ENDTAB
  0
ENDSEC
  0
SECTION
  2
ENTITIES
0
LINE
8
BLACK
6
CONTINUOUS
10
181.357
20
-90.4677
11
181.35
21
-90.45
0
LINE
8
BLACK
6
CONTINUOUS
10
181.35
20
-90.45
11
181.35
21
-83.55
0
LINE
8
BLACK
6
CONTINUOUS
10
181.35
20
-83.55
11
181.357
21
-83.5323
0
LINE
8
BLACK
6
CONTINUOUS
10
181.357
20
-83.5323
11
181.375
21
-83.525
0
LINE
8
BLACK
6
CONTINUOUS
10
181.375
20
-83.525
11
189.975
21
-83.525
0
LINE
8
BLACK
6
CONTINUOUS
10
189.975
20
-83.525
11
189.993
21
-83.5323
0
LINE
8
BLACK
6
CONTINUOUS
10
189.993
20
-83.5323
11
190
21
-83.55
0
LINE
8
BLACK
6
CONTINUOUS
10
190
20
-83.55
11
190
21
-90.45
0
LINE
8
BLACK
6
CONTINUOUS
10
190
20
-90.45
11
189.993
21
-90.4677
0
LINE
8
BLACK
6
CONTINUOUS
10
189.993
20
-90.4677
11
189.975
21
-90.475
0
LINE
8
BLACK
6
CONTINUOUS
10
189.975
20
-90.475
11
181.375
21
-90.475
0
LINE
8
BLACK
6
CONTINUOUS
10
181.375
20
-90.475
11
181.357
21
-90.4677
0
LINE
8
BLACK
6
CONTINUOUS
10
181.4
20
-83.575
11
181.4
21
-90.425
0
LINE
8
BLACK
6
CONTINUOUS
10
181.4
20
-90.425
11
189.95
21
-90.425
0
LINE
8
BLACK
6
CONTINUOUS
10
189.95
20
-90.425
11
189.95
21
-83.575
0
LINE
8
BLACK
6
CONTINUOUS
10
189.95
20
-83.575
11
181.4
21
-83.575
0
LINE
8
BLACK
6
CONTINUOUS
10
263.617
20
-87.0877
11
263.61
21
-87.07
0
LINE
8
BLACK
6
CONTINUOUS
10
263.61
20
-87.07
11
263.61
21
-83.31
0
LINE
8
BLACK
6
CONTINUOUS
10
263.61
20
-83.31
11
263.617
21
-83.2923
0
LINE
8
BLACK
6
CONTINUOUS
10
263.617
20
-83.2923
11
263.635
21
-83.285
0
LINE
8
BLACK
6
CONTINUOUS
10
263.635
20
-83.285
11
265.595
21
-83.285
0
LINE
8
BLACK
6
CONTINUOUS
10
265.595
20
-83.285
11
265.613
21
-83.2923
0
LINE
8
BLACK
6
CONTINUOUS
10
265.613
20
-83.2923
11
265.62
21
-83.31
0
LINE
8
BLACK
6
CONTINUOUS
10
265.62
20
-83.31
11
265.62
21
-87.07
0
LINE
8
BLACK
6
CONTINUOUS
10
265.62
20
-87.07
11
265.613
21
-87.0877
0
LINE
8
BLACK
6
CONTINUOUS
10
265.613
20
-87.0877
11
265.595
21
-87.095
0
LINE
8
BLACK
6
CONTINUOUS
10
265.595
20
-87.095
11
263.635
21
-87.095
0
LINE
8
BLACK
6
CONTINUOUS
10
263.635
20
-87.095
11
263.617
21
-87.0877
0
LINE
8
BLACK
6
CONTINUOUS
10
263.66
20
-83.335
11
263.66
21
-87.045
0
LINE
8
BLACK
6
CONTINUOUS
10
263.66
20
-87.045
11
265.57
21
-87.045
0
LINE
8
BLACK
6
CONTINUOUS
10
265.57
20
-87.045
11
265.57
21
-83.335
0
LINE
8
BLACK
6
CONTINUOUS
10
265.57
20
-83.335
11
263.66
21
-83.335
0
LINE
8
BLACK
6
CONTINUOUS
10
255.717
20
-87.0877
11
255.71
21
-87.07
0
LINE
8
BLACK
6
CONTINUOUS
10
255.71
20
-87.07
11
255.71
21
-83.31
0
LINE
8
BLACK
6
CONTINUOUS
10
255.71
20
-83.31
11
255.717
21
-83.2923
0
LINE
8
BLACK
6
CONTINUOUS
10
255.717
20
-83.2923
11
255.735
21
-83.285
0
LINE
8
BLACK
6
CONTINUOUS
10
255.735
20
-83.285
11
257.695
21
-83.285
0
LINE
8
BLACK
6
CONTINUOUS
10
257.695
20
-83.285
11
257.713
21
-83.2923
0
LINE
8
BLACK
6
CONTINUOUS
10
257.713
20
-83.2923
11
257.72
21
-83.31
0
LINE
8
BLACK
6
CONTINUOUS
10
257.72
20
-83.31
11
257.72
21
-87.07
0
LINE
8
BLACK
6
CONTINUOUS
10
257.72
20
-87.07
11
257.713
21
-87.0877
0
LINE
8
BLACK
6
CONTINUOUS
10
257.713
20
-87.0877
11
257.695
21
-87.095
0
LINE
8
BLACK
6
CONTINUOUS
10
257.695
20
-87.095
11
255.735
21
-87.095
0
LINE
8
BLACK
6
CONTINUOUS
10
255.735
20
-87.095
11
255.717
21
-87.0877
0
LINE
8
BLACK
6
CONTINUOUS
10
255.76
20
-83.335
11
255.76
21
-87.045
0
LINE
8
BLACK
6
CONTINUOUS
10
255.76
20
-87.045
11
257.67
21
-87.045
0
LINE
8
BLACK
6
CONTINUOUS
10
257.67
20
-87.045
11
257.67
21
-83.335
0
LINE
8
BLACK
6
CONTINUOUS
10
257.67
20
-83.335
11
255.76
21
-83.335
0
LINE
8
BLACK
6
CONTINUOUS
10
258.197
20
-87.0077
11
258.19
21
-86.99
0
LINE
8
BLACK
6
CONTINUOUS
10
258.19
20
-86.99
11
258.19
21
-83.39
0
LINE
8
BLACK
6
CONTINUOUS
10
258.19
20
-83.39
11
258.197
21
-83.3723
0
LINE
8
BLACK
6
CONTINUOUS
10
258.197
20
-83.3723
11
258.215
21
-83.365
0
LINE
8
BLACK
6
CONTINUOUS
10
258.215
20
-83.365
11
262.975
21
-83.365
0
LINE
8
BLACK
6
CONTINUOUS
10
262.975
20
-83.365
11
262.993
21
-83.3723
0
LINE
8
BLACK
6
CONTINUOUS
10
262.993
20
-83.3723
11
263
21
-83.39
0
LINE
8
BLACK
6
CONTINUOUS
10
263
20
-83.39
11
263
21
-86.99
0
LINE
8
BLACK
6
CONTINUOUS
10
263
20
-86.99
11
262.993
21
-87.0077
0
LINE
8
BLACK
6
CONTINUOUS
10
262.993
20
-87.0077
11
262.975
21
-87.015
0
LINE
8
BLACK
6
CONTINUOUS
10
262.975
20
-87.015
11
258.215
21
-87.015
0
LINE
8
BLACK
6
CONTINUOUS
10
258.215
20
-87.015
11
258.197
21
-87.0077
0
LINE
8
BLACK
6
CONTINUOUS
10
258.24
20
-83.415
11
258.24
21
-86.965
0
LINE
8
BLACK
6
CONTINUOUS
10
258.24
20
-86.965
11
262.95
21
-86.965
0
LINE
8
BLACK
6
CONTINUOUS
10
262.95
20
-86.965
11
262.95
21
-83.415
0
LINE
8
BLACK
6
CONTINUOUS
10
262.95
20
-83.415
11
258.24
21
-83.415
0
LINE
8
BLACK
6
CONTINUOUS
10
20.5073
20
-83.4577
11
20.5
21
-83.44
0
LINE
8
BLACK
6
CONTINUOUS
10
20.5
20
-83.44
11
20.5
21
-72.04
0
LINE
8
BLACK
6
CONTINUOUS
10
20.5
20
-72.04
11
20.5073
21
-72.0223
0
LINE
8
BLACK
6
CONTINUOUS
10
20.5073
20
-72.0223
11
20.525
21
-72.015
0
LINE
8
BLACK
6
CONTINUOUS
10
20.525
20
-72.015
11
28.925
21
-72.015
0
LINE
8
BLACK
6
CONTINUOUS
10
28.925
20
-72.015
11
28.9427
21
-72.0223
0
LINE
8
BLACK
6
CONTINUOUS
10
28.9427
20
-72.0223
11
28.95
21
-72.04
0
LINE
8
BLACK
6
CONTINUOUS
10
28.95
20
-72.04
11
28.95
21
-83.44
0
LINE
8
BLACK
6
CONTINUOUS
10
28.95
20
-83.44
11
28.9427
21
-83.4577
0
LINE
8
BLACK
6
CONTINUOUS
10
28.9427
20
-83.4577
11
28.925
21
-83.465
0
LINE
8
BLACK
6
CONTINUOUS
10
28.925
20
-83.465
11
20.525
21
-83.465
0
LINE
8
BLACK
6
CONTINUOUS
10
20.525
20
-83.465
11
20.5073
21
-83.4577
0
LINE
8
BLACK
6
CONTINUOUS
10
20.55
20
-72.065
11
20.55
21
-83.415
0
LINE
8
BLACK
6
CONTINUOUS
10
20.55
20
-83.415
11
28.9
21
-83.415
0
LINE
8
BLACK
6
CONTINUOUS
10
28.9
20
-83.415
11
28.9
21
-72.065
0
LINE
8
BLACK
6
CONTINUOUS
10
28.9
20
-72.065
11
20.55
21
-72.065
0
LINE
8
BLACK
6
CONTINUOUS
10
43.7573
20
-80.7077
11
43.75
21
-80.69
0
LINE
8
BLACK
6
CONTINUOUS
10
43.75
20
-80.69
11
43.75
21
-74.99
0
LINE
8
BLACK
6
CONTINUOUS
10
43.75
20
-74.99
11
43.7573
21
-74.9723
0
LINE
8
BLACK
6
CONTINUOUS
10
43.7573
20
-74.9723
11
43.775
21
-74.965
0
LINE
8
BLACK
6
CONTINUOUS
10
43.775
20
-74.965
11
47.015
21
-74.965
0
LINE
8
BLACK
6
CONTINUOUS
10
47.015
20
-74.965
11
47.0327
21
-74.9723
0
LINE
8
BLACK
6
CONTINUOUS
10
47.0327
20
-74.9723
11
47.04
21
-74.99
0
LINE
8
BLACK
6
CONTINUOUS
10
47.04
20
-74.99
11
47.04
21
-80.69
0
LINE
8
BLACK
6
CONTINUOUS
10
47.04
20
-80.69
11
47.0327
21
-80.7077
0
LINE
8
BLACK
6
CONTINUOUS
10
47.0327
20
-80.7077
11
47.015
21
-80.715
0
LINE
8
BLACK
6
CONTINUOUS
10
47.015
20
-80.715
11
43.775
21
-80.715
0
LINE
8
BLACK
6
CONTINUOUS
10
43.775
20
-80.715
11
43.7573
21
-80.7077
0
LINE
8
BLACK
6
CONTINUOUS
10
43.8
20
-75.015
11
43.8
21
-80.665
0
LINE
8
BLACK
6
CONTINUOUS
10
43.8
20
-80.665
11
46.99
21
-80.665
0
LINE
8
BLACK
6
CONTINUOUS
10
46.99
20
-80.665
11
46.99
21
-75.015
0
LINE
8
BLACK
6
CONTINUOUS
10
46.99
20
-75.015
11
43.8
21
-75.015
0
LINE
8
BLACK
6
CONTINUOUS
10
186.837
20
-73.0277
11
186.83
21
-73.01
0
LINE
8
BLACK
6
CONTINUOUS
10
186.83
20
-73.01
11
186.83
21
-71.05
0
LINE
8
BLACK
6
CONTINUOUS
10
186.83
20
-71.05
11
186.837
21
-71.0323
0
LINE
8
BLACK
6
CONTINUOUS
10
186.837
20
-71.0323
11
186.855
21
-71.025
0
LINE
8
BLACK
6
CONTINUOUS
10
186.855
20
-71.025
11
190.615
21
-71.025
0
LINE
8
BLACK
6
CONTINUOUS
10
190.615
20
-71.025
11
190.633
21
-71.0323
0
LINE
8
BLACK
6
CONTINUOUS
10
190.633
20
-71.0323
11
190.64
21
-71.05
0
LINE
8
BLACK
6
CONTINUOUS
10
190.64
20
-71.05
11
190.64
21
-73.01
0
LINE
8
BLACK
6
CONTINUOUS
10
190.64
20
-73.01
11
190.633
21
-73.0277
0
LINE
8
BLACK
6
CONTINUOUS
10
190.633
20
-73.0277
11
190.615
21
-73.035
0
LINE
8
BLACK
6
CONTINUOUS
10
190.615
20
-73.035
11
186.855
21
-73.035
0
LINE
8
BLACK
6
CONTINUOUS
10
186.855
20
-73.035
11
186.837
21
-73.0277
0
LINE
8
BLACK
6
CONTINUOUS
10
186.88
20
-71.075
11
186.88
21
-72.985
0
LINE
8
BLACK
6
CONTINUOUS
10
186.88
20
-72.985
11
190.59
21
-72.985
0
LINE
8
BLACK
6
CONTINUOUS
10
190.59
20
-72.985
11
190.59
21
-71.075
0
LINE
8
BLACK
6
CONTINUOUS
10
190.59
20
-71.075
11
186.88
21
-71.075
0
LINE
8
BLACK
6
CONTINUOUS
10
186.307
20
-70.5177
11
186.3
21
-70.5
0
LINE
8
BLACK
6
CONTINUOUS
10
186.3
20
-70.5
11
186.3
21
-63.5
0
LINE
8
BLACK
6
CONTINUOUS
10
186.3
20
-63.5
11
186.307
21
-63.4823
0
LINE
8
BLACK
6
CONTINUOUS
10
186.307
20
-63.4823
11
186.325
21
-63.475
0
LINE
8
BLACK
6
CONTINUOUS
10
186.325
20
-63.475
11
197.425
21
-63.475
0
LINE
8
BLACK
6
CONTINUOUS
10
197.425
20
-63.475
11
197.443
21
-63.4823
0
LINE
8
BLACK
6
CONTINUOUS
10
197.443
20
-63.4823
11
197.45
21
-63.5
0
LINE
8
BLACK
6
CONTINUOUS
10
197.45
20
-63.5
11
197.45
21
-70.5
0
LINE
8
BLACK
6
CONTINUOUS
10
197.45
20
-70.5
11
197.443
21
-70.5177
0
LINE
8
BLACK
6
CONTINUOUS
10
197.443
20
-70.5177
11
197.425
21
-70.525
0
LINE
8
BLACK
6
CONTINUOUS
10
197.425
20
-70.525
11
186.325
21
-70.525
0
LINE
8
BLACK
6
CONTINUOUS
10
186.325
20
-70.525
11
186.307
21
-70.5177
0
LINE
8
BLACK
6
CONTINUOUS
10
186.35
20
-63.525
11
186.35
21
-70.475
0
LINE
8
BLACK
6
CONTINUOUS
10
186.35
20
-70.475
11
197.4
21
-70.475
0
LINE
8
BLACK
6
CONTINUOUS
10
197.4
20
-70.475
11
197.4
21
-63.525
0
LINE
8
BLACK
6
CONTINUOUS
10
197.4
20
-63.525
11
186.35
21
-63.525
0
LINE
8
BLACK
6
CONTINUOUS
10
186.827
20
-63.1277
11
186.82
21
-63.11
0
LINE
8
BLACK
6
CONTINUOUS
10
186.82
20
-63.11
11
186.82
21
-61.15
0
LINE
8
BLACK
6
CONTINUOUS
10
186.82
20
-61.15
11
186.827
21
-61.1323
0
LINE
8
BLACK
6
CONTINUOUS
10
186.827
20
-61.1323
11
186.845
21
-61.125
0
LINE
8
BLACK
6
CONTINUOUS
10
186.845
20
-61.125
11
190.605
21
-61.125
0
LINE
8
BLACK
6
CONTINUOUS
10
190.605
20
-61.125
11
190.623
21
-61.1323
0
LINE
8
BLACK
6
CONTINUOUS
10
190.623
20
-61.1323
11
190.63
21
-61.15
0
LINE
8
BLACK
6
CONTINUOUS
10
190.63
20
-61.15
11
190.63
21
-63.11
0
LINE
8
BLACK
6
CONTINUOUS
10
190.63
20
-63.11
11
190.623
21
-63.1277
0
LINE
8
BLACK
6
CONTINUOUS
10
190.623
20
-63.1277
11
190.605
21
-63.135
0
LINE
8
BLACK
6
CONTINUOUS
10
190.605
20
-63.135
11
186.845
21
-63.135
0
LINE
8
BLACK
6
CONTINUOUS
10
186.845
20
-63.135
11
186.827
21
-63.1277
0
LINE
8
BLACK
6
CONTINUOUS
10
186.87
20
-61.175
11
186.87
21
-63.085
0
LINE
8
BLACK
6
CONTINUOUS
10
186.87
20
-63.085
11
190.58
21
-63.085
0
LINE
8
BLACK
6
CONTINUOUS
10
190.58
20
-63.085
11
190.58
21
-61.175
0
LINE
8
BLACK
6
CONTINUOUS
10
190.58
20
-61.175
11
186.87
21
-61.175
0
LINE
8
BLACK
6
CONTINUOUS
10
22.4877
20
-48.1323
11
22.495
21
-48.15
0
LINE
8
BLACK
6
CONTINUOUS
10
22.495
20
-48.15
11
22.4877
21
-48.1677
0
LINE
8
BLACK
6
CONTINUOUS
10
22.4877
20
-48.1677
11
22.47
21
-48.175
0
LINE
8
BLACK
6
CONTINUOUS
10
22.47
20
-48.175
11
21.495
21
-48.175
0
LINE
8
BLACK
6
CONTINUOUS
10
21.495
20
-48.175
11
21.495
21
-49.15
0
LINE
8
BLACK
6
CONTINUOUS
10
21.495
20
-49.15
11
21.4877
21
-49.1677
0
LINE
8
BLACK
6
CONTINUOUS
10
21.4877
20
-49.1677
11
21.47
21
-49.175
0
LINE
8
BLACK
6
CONTINUOUS
10
21.47
20
-49.175
11
21.4523
21
-49.1677
0
LINE
8
BLACK
6
CONTINUOUS
10
21.4523
20
-49.1677
11
21.445
21
-49.15
0
LINE
8
BLACK
6
CONTINUOUS
10
21.445
20
-49.15
11
21.445
21
-48.15
0
LINE
8
BLACK
6
CONTINUOUS
10
21.445
20
-48.15
11
21.4523
21
-48.1323
0
LINE
8
BLACK
6
CONTINUOUS
10
21.4523
20
-48.1323
11
21.47
21
-48.125
0
LINE
8
BLACK
6
CONTINUOUS
10
21.47
20
-48.125
11
22.47
21
-48.125
0
LINE
8
BLACK
6
CONTINUOUS
10
22.47
20
-48.125
11
22.4877
21
-48.1323
  0
ENDSEC
  0
EOF
