M48
; DRILL file {KiCad (6.0.5-0)} date 
; FORMAT={-:-/ absolute / metric / decimal}
; #@! TF.CreationDate,2022-06-30T23:23:08+09:00
; #@! TF.GenerationSoftware,Kicad,Pcbnew,(6.0.5-0)
; #@! TF.FileFunction,Plated,1,2,PTH
FMAT,2
METRIC
; #@! TA.AperFunction,Plated,PTH,ComponentDrill
T1C0.300
; #@! TA.AperFunction,Plated,PTH,ViaDrill
T2C0.400
; #@! TA.AperFunction,Plated,PTH,ComponentDrill
T3C0.400
; #@! TA.AperFunction,Plated,PTH,ComponentDrill
T4C0.700
; #@! TA.AperFunction,Plated,PTH,ComponentDrill
T5C0.750
; #@! TA.AperFunction,Plated,PTH,ComponentDrill
T6C0.813
; #@! TA.AperFunction,Plated,PTH,ComponentDrill
T7C1.000
; #@! TA.AperFunction,Plated,PTH,ComponentDrill
T8C1.200
; #@! TA.AperFunction,Plated,PTH,ComponentDrill
T9C1.300
; #@! TA.AperFunction,Plated,PTH,ComponentDrill
T10C2.200
%
G90
G05
T2
X37.153Y-68.95
X46.438Y-69.8
X118.335Y-69.8
X155.845Y-109.053
X155.85Y-84.62
X160.14Y-64.648
X182.139Y-68.95
X209.922Y-69.816
X231.921Y-87.195
X241.777Y-49.873
X254.475Y-86.31
X254.475Y-87.89
X255.155Y-84.02
X256.675Y-82.84
X256.705Y-87.9
X257.985Y-86.88
X258.825Y-68.065
X258.901Y-82.691
X259.215Y-87.7
X259.567Y-120.456
X260.118Y-82.129
X260.346Y-80.188
X261.252Y-83.182
X261.925Y-87.81
X263.025Y-87.07
X264.095Y-87.87
X264.176Y-76.141
X264.207Y-106.368
X266.035Y-83.49
X266.045Y-84.74
X266.075Y-86.52
X266.075Y-87.88
X274.631Y-59.578
X279.238Y-104.685
X280.259Y-81.029
T4
X26.225Y-75.74
X26.225Y-77.74
X26.225Y-79.74
T5
X188.125Y-86.0
X188.125Y-88.0
T6
X246.328Y-51.141
X246.328Y-66.361
X248.868Y-51.141
X248.868Y-66.361
X251.408Y-51.141
X251.408Y-66.361
X253.948Y-51.141
X253.948Y-66.361
X256.488Y-51.141
X256.488Y-66.361
X259.028Y-51.141
X259.028Y-66.361
X261.568Y-51.141
X261.568Y-66.361
X264.108Y-51.141
X264.108Y-66.361
X266.648Y-51.141
X266.648Y-66.361
X269.188Y-51.141
X269.188Y-66.361
X271.728Y-51.141
X271.728Y-66.361
X274.268Y-51.141
X274.268Y-66.361
X276.808Y-51.141
X276.808Y-66.361
T7
X112.12Y-86.04
X119.92Y-86.04
X126.0Y-74.1
X126.0Y-81.9
X185.665Y-74.1
X185.665Y-81.9
X210.815Y-86.04
X218.615Y-86.04
X226.415Y-86.04
X230.795Y-54.8
X230.795Y-62.6
X233.285Y-54.8
X233.285Y-62.6
X234.215Y-86.04
T8
X26.225Y-73.54
X26.225Y-81.94
X28.21Y-56.16
X32.972Y-75.21
X32.972Y-94.26
X32.972Y-113.31
X34.56Y-53.62
X39.322Y-72.67
X39.322Y-91.72
X39.322Y-110.77
X47.26Y-56.16
X49.641Y-132.36
X53.61Y-53.62
X55.991Y-129.82
X56.78Y-75.21
X56.785Y-94.26
X56.785Y-113.31
X63.13Y-72.67
X63.135Y-91.72
X63.135Y-110.77
X66.31Y-56.16
X72.66Y-53.62
X73.454Y-132.36
X75.835Y-75.21
X75.835Y-94.26
X75.835Y-113.31
X79.804Y-129.82
X82.185Y-72.67
X82.185Y-91.72
X82.185Y-110.77
X85.36Y-56.16
X91.71Y-53.62
X94.885Y-75.21
X94.885Y-94.26
X94.885Y-113.31
X101.235Y-72.67
X101.235Y-91.72
X101.235Y-110.77
X104.41Y-56.16
X110.76Y-53.62
X113.935Y-75.21
X113.935Y-94.26
X113.935Y-113.31
X113.935Y-132.36
X120.285Y-72.67
X120.285Y-91.72
X120.285Y-110.77
X120.285Y-129.82
X123.46Y-56.16
X129.81Y-53.62
X132.98Y-75.21
X132.985Y-94.26
X132.985Y-113.31
X137.748Y-132.36
X139.33Y-72.67
X139.335Y-91.72
X139.335Y-110.77
X142.51Y-56.16
X144.097Y-129.82
X148.86Y-53.62
X161.56Y-56.16
X166.322Y-132.36
X167.91Y-53.62
X171.08Y-75.21
X171.085Y-94.26
X171.085Y-113.31
X172.672Y-129.82
X177.43Y-72.67
X177.435Y-91.72
X177.435Y-110.77
X180.61Y-56.16
X186.96Y-53.62
X190.13Y-75.21
X190.135Y-94.26
X190.135Y-113.31
X190.135Y-132.36
X196.48Y-72.67
X196.485Y-91.72
X196.485Y-110.77
X196.485Y-129.82
X199.66Y-56.16
X206.01Y-53.62
X209.18Y-75.21
X209.185Y-94.26
X209.185Y-113.31
X215.53Y-72.67
X215.535Y-91.72
X215.535Y-110.77
X218.71Y-56.16
X225.06Y-53.62
X228.23Y-75.21
X228.235Y-94.26
X228.235Y-113.31
X228.235Y-132.36
X234.58Y-72.67
X234.585Y-91.72
X234.585Y-110.77
X234.585Y-129.82
X237.76Y-56.16
X244.11Y-53.62
X247.28Y-75.21
X247.285Y-94.26
X247.285Y-113.31
X247.285Y-132.36
X253.63Y-72.67
X253.635Y-91.72
X253.635Y-110.77
X253.635Y-129.82
X261.572Y-56.16
X266.33Y-75.21
X266.335Y-94.26
X266.335Y-113.31
X267.923Y-53.62
X272.68Y-72.67
X272.685Y-91.72
X272.685Y-110.77
T9
X45.395Y-74.59
X45.395Y-81.09
T10
X55.07Y-46.25
X55.07Y-147.35
X113.745Y-46.25
X113.745Y-147.35
X188.42Y-46.25
X188.42Y-147.35
X247.09Y-46.25
X247.095Y-147.35
T1
G00X31.67Y-64.6
M15
G01X32.37Y-64.6
M16
G05
G00X36.432Y-83.65
M15
G01X37.133Y-83.65
M16
G05
G00X36.432Y-102.7
M15
G01X37.133Y-102.7
M16
G05
G00X36.432Y-121.75
M15
G01X37.133Y-121.75
M16
G05
G00X36.67Y-53.153
M15
G01X37.37Y-53.147
M16
G05
G00X41.433Y-72.203
M15
G01X42.132Y-72.197
M16
G05
G00X41.433Y-91.253
M15
G01X42.132Y-91.247
M16
G05
G00X41.433Y-110.303
M15
G01X42.132Y-110.297
M16
G05
G00X50.72Y-64.6
M15
G01X51.42Y-64.6
M16
G05
G00X53.101Y-140.8
M15
G01X53.801Y-140.8
M16
G05
G00X55.72Y-53.153
M15
G01X56.42Y-53.147
M16
G05
G00X58.101Y-129.353
M15
G01X58.801Y-129.347
M16
G05
G00X60.24Y-83.65
M15
G01X60.94Y-83.65
M16
G05
G00X60.245Y-102.7
M15
G01X60.945Y-102.7
M16
G05
G00X60.245Y-121.75
M15
G01X60.945Y-121.75
M16
G05
G00X65.24Y-72.203
M15
G01X65.94Y-72.197
M16
G05
G00X65.245Y-91.253
M15
G01X65.945Y-91.247
M16
G05
G00X65.245Y-110.303
M15
G01X65.945Y-110.297
M16
G05
G00X69.77Y-64.6
M15
G01X70.47Y-64.6
M16
G05
G00X74.77Y-53.153
M15
G01X75.47Y-53.147
M16
G05
G00X76.914Y-140.8
M15
G01X77.614Y-140.8
M16
G05
G00X79.295Y-83.65
M15
G01X79.995Y-83.65
M16
G05
G00X79.295Y-102.7
M15
G01X79.995Y-102.7
M16
G05
G00X79.295Y-121.75
M15
G01X79.995Y-121.75
M16
G05
G00X81.914Y-129.353
M15
G01X82.614Y-129.347
M16
G05
G00X84.295Y-72.203
M15
G01X84.995Y-72.197
M16
G05
G00X84.295Y-91.253
M15
G01X84.995Y-91.247
M16
G05
G00X84.295Y-110.303
M15
G01X84.995Y-110.297
M16
G05
G00X88.82Y-64.6
M15
G01X89.52Y-64.6
M16
G05
G00X93.82Y-53.153
M15
G01X94.52Y-53.147
M16
G05
G00X98.345Y-83.65
M15
G01X99.045Y-83.65
M16
G05
G00X98.345Y-102.7
M15
G01X99.045Y-102.7
M16
G05
G00X98.345Y-121.75
M15
G01X99.045Y-121.75
M16
G05
G00X103.345Y-72.203
M15
G01X104.045Y-72.197
M16
G05
G00X103.345Y-91.253
M15
G01X104.045Y-91.247
M16
G05
G00X103.345Y-110.303
M15
G01X104.045Y-110.297
M16
G05
G00X107.87Y-64.6
M15
G01X108.57Y-64.6
M16
G05
G00X112.87Y-53.153
M15
G01X113.57Y-53.147
M16
G05
G00X117.395Y-83.65
M15
G01X118.095Y-83.65
M16
G05
G00X117.395Y-102.7
M15
G01X118.095Y-102.7
M16
G05
G00X117.395Y-121.75
M15
G01X118.095Y-121.75
M16
G05
G00X117.395Y-140.8
M15
G01X118.095Y-140.8
M16
G05
G00X122.395Y-72.203
M15
G01X123.095Y-72.197
M16
G05
G00X122.395Y-91.253
M15
G01X123.095Y-91.247
M16
G05
G00X122.395Y-110.303
M15
G01X123.095Y-110.297
M16
G05
G00X122.395Y-129.353
M15
G01X123.095Y-129.347
M16
G05
G00X126.92Y-64.6
M15
G01X127.62Y-64.6
M16
G05
G00X131.92Y-53.153
M15
G01X132.62Y-53.147
M16
G05
G00X136.44Y-83.65
M15
G01X137.14Y-83.65
M16
G05
G00X136.445Y-102.7
M15
G01X137.145Y-102.7
M16
G05
G00X136.445Y-121.75
M15
G01X137.145Y-121.75
M16
G05
G00X141.207Y-140.8
M15
G01X141.907Y-140.8
M16
G05
G00X141.44Y-72.203
M15
G01X142.14Y-72.197
M16
G05
G00X141.445Y-91.253
M15
G01X142.145Y-91.247
M16
G05
G00X141.445Y-110.303
M15
G01X142.145Y-110.297
M16
G05
G00X145.97Y-64.6
M15
G01X146.67Y-64.6
M16
G05
G00X146.208Y-129.353
M15
G01X146.907Y-129.347
M16
G05
G00X150.97Y-53.153
M15
G01X151.67Y-53.147
M16
G05
G00X165.02Y-64.6
M15
G01X165.72Y-64.6
M16
G05
G00X169.782Y-140.8
M15
G01X170.482Y-140.8
M16
G05
G00X170.02Y-53.153
M15
G01X170.72Y-53.147
M16
G05
G00X174.54Y-83.65
M15
G01X175.24Y-83.65
M16
G05
G00X174.545Y-102.7
M15
G01X175.245Y-102.7
M16
G05
G00X174.545Y-121.75
M15
G01X175.245Y-121.75
M16
G05
G00X174.783Y-129.353
M15
G01X175.482Y-129.347
M16
G05
G00X179.54Y-72.203
M15
G01X180.24Y-72.197
M16
G05
G00X179.545Y-91.253
M15
G01X180.245Y-91.247
M16
G05
G00X179.545Y-110.303
M15
G01X180.245Y-110.297
M16
G05
G00X184.07Y-64.6
M15
G01X184.77Y-64.6
M16
G05
G00X189.07Y-53.153
M15
G01X189.77Y-53.147
M16
G05
G00X193.59Y-83.65
M15
G01X194.29Y-83.65
M16
G05
G00X193.595Y-102.7
M15
G01X194.295Y-102.7
M16
G05
G00X193.595Y-121.75
M15
G01X194.295Y-121.75
M16
G05
G00X193.595Y-140.8
M15
G01X194.295Y-140.8
M16
G05
G00X198.59Y-72.203
M15
G01X199.29Y-72.197
M16
G05
G00X198.595Y-91.253
M15
G01X199.295Y-91.247
M16
G05
G00X198.595Y-110.303
M15
G01X199.295Y-110.297
M16
G05
G00X198.595Y-129.353
M15
G01X199.295Y-129.347
M16
G05
G00X203.12Y-64.6
M15
G01X203.82Y-64.6
M16
G05
G00X208.12Y-53.153
M15
G01X208.82Y-53.147
M16
G05
G00X212.64Y-83.65
M15
G01X213.34Y-83.65
M16
G05
G00X212.645Y-102.7
M15
G01X213.345Y-102.7
M16
G05
G00X212.645Y-121.75
M15
G01X213.345Y-121.75
M16
G05
G00X217.64Y-72.203
M15
G01X218.34Y-72.197
M16
G05
G00X217.645Y-91.253
M15
G01X218.345Y-91.247
M16
G05
G00X217.645Y-110.303
M15
G01X218.345Y-110.297
M16
G05
G00X222.17Y-64.6
M15
G01X222.87Y-64.6
M16
G05
G00X227.17Y-53.153
M15
G01X227.87Y-53.147
M16
G05
G00X231.69Y-83.65
M15
G01X232.39Y-83.65
M16
G05
G00X231.695Y-102.7
M15
G01X232.395Y-102.7
M16
G05
G00X231.695Y-121.75
M15
G01X232.395Y-121.75
M16
G05
G00X231.695Y-140.8
M15
G01X232.395Y-140.8
M16
G05
G00X236.69Y-72.203
M15
G01X237.39Y-72.197
M16
G05
G00X236.695Y-91.253
M15
G01X237.395Y-91.247
M16
G05
G00X236.695Y-110.303
M15
G01X237.395Y-110.297
M16
G05
G00X236.695Y-129.353
M15
G01X237.395Y-129.347
M16
G05
G00X241.22Y-64.6
M15
G01X241.92Y-64.6
M16
G05
G00X246.22Y-53.153
M15
G01X246.92Y-53.147
M16
G05
G00X250.74Y-83.65
M15
G01X251.44Y-83.65
M16
G05
G00X250.745Y-102.7
M15
G01X251.445Y-102.7
M16
G05
G00X250.745Y-121.75
M15
G01X251.445Y-121.75
M16
G05
G00X250.745Y-140.8
M15
G01X251.445Y-140.8
M16
G05
G00X255.74Y-72.203
M15
G01X256.44Y-72.197
M16
G05
G00X255.745Y-91.253
M15
G01X256.445Y-91.247
M16
G05
G00X255.745Y-110.303
M15
G01X256.445Y-110.297
M16
G05
G00X255.745Y-129.353
M15
G01X256.445Y-129.347
M16
G05
G00X265.032Y-64.6
M15
G01X265.733Y-64.6
M16
G05
G00X269.79Y-83.65
M15
G01X270.49Y-83.65
M16
G05
G00X269.795Y-102.7
M15
G01X270.495Y-102.7
M16
G05
G00X269.795Y-121.75
M15
G01X270.495Y-121.75
M16
G05
G00X270.033Y-53.153
M15
G01X270.732Y-53.147
M16
G05
G00X274.79Y-72.203
M15
G01X275.49Y-72.197
M16
G05
G00X274.795Y-91.253
M15
G01X275.495Y-91.247
M16
G05
G00X274.795Y-110.303
M15
G01X275.495Y-110.297
M16
G05
T3
G00X26.62Y-62.6
M15
G01X27.22Y-62.6
M16
G05
G00X31.383Y-81.65
M15
G01X31.982Y-81.65
M16
G05
G00X31.383Y-100.7
M15
G01X31.982Y-100.7
M16
G05
G00X31.383Y-119.75
M15
G01X31.982Y-119.75
M16
G05
G00X45.67Y-62.6
M15
G01X46.27Y-62.6
M16
G05
G00X48.051Y-138.8
M15
G01X48.651Y-138.8
M16
G05
G00X55.19Y-81.65
M15
G01X55.79Y-81.65
M16
G05
G00X55.195Y-100.7
M15
G01X55.795Y-100.7
M16
G05
G00X55.195Y-119.75
M15
G01X55.795Y-119.75
M16
G05
G00X64.72Y-62.6
M15
G01X65.32Y-62.6
M16
G05
G00X71.864Y-138.8
M15
G01X72.464Y-138.8
M16
G05
G00X74.245Y-81.65
M15
G01X74.845Y-81.65
M16
G05
G00X74.245Y-100.7
M15
G01X74.845Y-100.7
M16
G05
G00X74.245Y-119.75
M15
G01X74.845Y-119.75
M16
G05
G00X83.77Y-62.6
M15
G01X84.37Y-62.6
M16
G05
G00X93.295Y-81.65
M15
G01X93.895Y-81.65
M16
G05
G00X93.295Y-100.7
M15
G01X93.895Y-100.7
M16
G05
G00X93.295Y-119.75
M15
G01X93.895Y-119.75
M16
G05
G00X102.82Y-62.6
M15
G01X103.42Y-62.6
M16
G05
G00X112.345Y-81.65
M15
G01X112.945Y-81.65
M16
G05
G00X112.345Y-100.7
M15
G01X112.945Y-100.7
M16
G05
G00X112.345Y-119.75
M15
G01X112.945Y-119.75
M16
G05
G00X112.345Y-138.8
M15
G01X112.945Y-138.8
M16
G05
G00X121.87Y-62.6
M15
G01X122.47Y-62.6
M16
G05
G00X131.39Y-81.65
M15
G01X131.99Y-81.65
M16
G05
G00X131.395Y-100.7
M15
G01X131.995Y-100.7
M16
G05
G00X131.395Y-119.75
M15
G01X131.995Y-119.75
M16
G05
G00X136.157Y-138.8
M15
G01X136.757Y-138.8
M16
G05
G00X140.92Y-62.6
M15
G01X141.52Y-62.6
M16
G05
G00X159.97Y-62.6
M15
G01X160.57Y-62.6
M16
G05
G00X164.732Y-138.8
M15
G01X165.332Y-138.8
M16
G05
G00X169.49Y-81.65
M15
G01X170.09Y-81.65
M16
G05
G00X169.495Y-100.7
M15
G01X170.095Y-100.7
M16
G05
G00X169.495Y-119.75
M15
G01X170.095Y-119.75
M16
G05
G00X179.02Y-62.6
M15
G01X179.62Y-62.6
M16
G05
G00X188.54Y-81.65
M15
G01X189.14Y-81.65
M16
G05
G00X188.545Y-100.7
M15
G01X189.145Y-100.7
M16
G05
G00X188.545Y-119.75
M15
G01X189.145Y-119.75
M16
G05
G00X188.545Y-138.8
M15
G01X189.145Y-138.8
M16
G05
G00X198.07Y-62.6
M15
G01X198.67Y-62.6
M16
G05
G00X207.59Y-81.65
M15
G01X208.19Y-81.65
M16
G05
G00X207.595Y-100.7
M15
G01X208.195Y-100.7
M16
G05
G00X207.595Y-119.75
M15
G01X208.195Y-119.75
M16
G05
G00X217.12Y-62.6
M15
G01X217.72Y-62.6
M16
G05
G00X226.64Y-81.65
M15
G01X227.24Y-81.65
M16
G05
G00X226.645Y-100.7
M15
G01X227.245Y-100.7
M16
G05
G00X226.645Y-119.75
M15
G01X227.245Y-119.75
M16
G05
G00X226.645Y-138.8
M15
G01X227.245Y-138.8
M16
G05
G00X236.17Y-62.6
M15
G01X236.77Y-62.6
M16
G05
G00X245.69Y-81.65
M15
G01X246.29Y-81.65
M16
G05
G00X245.695Y-100.7
M15
G01X246.295Y-100.7
M16
G05
G00X245.695Y-119.75
M15
G01X246.295Y-119.75
M16
G05
G00X245.695Y-138.8
M15
G01X246.295Y-138.8
M16
G05
G00X259.983Y-62.6
M15
G01X260.582Y-62.6
M16
G05
G00X264.74Y-81.65
M15
G01X265.34Y-81.65
M16
G05
G00X264.745Y-100.7
M15
G01X265.345Y-100.7
M16
G05
G00X264.745Y-119.75
M15
G01X265.345Y-119.75
M16
G05
T0
M30
