M48
; DRILL file {KiCad (6.0.5-0)} date 
; FORMAT={-:-/ absolute / metric / decimal}
; #@! TF.CreationDate,2022-06-30T23:23:08+09:00
; #@! TF.GenerationSoftware,Kicad,Pcbnew,(6.0.5-0)
; #@! TF.FileFunction,NonPlated,1,2,NPTH
FMAT,2
METRIC
; #@! TA.AperFunction,NonPlated,NPTH,ComponentDrill
T1C1.700
; #@! TA.AperFunction,NonPlated,NPTH,ComponentDrill
T2C1.800
; #@! TA.AperFunction,NonPlated,NPTH,ComponentDrill
T3C4.900
%
G90
G05
T1
X26.94Y-58.7
X31.702Y-77.75
X31.702Y-96.8
X31.702Y-115.85
X37.1Y-58.7
X41.862Y-77.75
X41.862Y-96.8
X41.862Y-115.85
X45.99Y-58.7
X48.371Y-134.9
X55.51Y-77.75
X55.515Y-96.8
X55.515Y-115.85
X56.15Y-58.7
X58.531Y-134.9
X65.04Y-58.7
X65.67Y-77.75
X65.675Y-96.8
X65.675Y-115.85
X72.184Y-134.9
X74.565Y-77.75
X74.565Y-96.8
X74.565Y-115.85
X75.2Y-58.7
X82.344Y-134.9
X84.09Y-58.7
X84.725Y-77.75
X84.725Y-96.8
X84.725Y-115.85
X93.615Y-77.75
X93.615Y-96.8
X93.615Y-115.85
X94.25Y-58.7
X103.14Y-58.7
X103.775Y-77.75
X103.775Y-96.8
X103.775Y-115.85
X112.665Y-77.75
X112.665Y-96.8
X112.665Y-115.85
X112.665Y-134.9
X113.3Y-58.7
X122.19Y-58.7
X122.825Y-77.75
X122.825Y-96.8
X122.825Y-115.85
X122.825Y-134.9
X131.71Y-77.75
X131.715Y-96.8
X131.715Y-115.85
X132.35Y-58.7
X136.477Y-134.9
X141.24Y-58.7
X141.87Y-77.75
X141.875Y-96.8
X141.875Y-115.85
X146.637Y-134.9
X151.4Y-58.7
X160.29Y-58.7
X165.052Y-134.9
X169.81Y-77.75
X169.815Y-96.8
X169.815Y-115.85
X170.45Y-58.7
X175.213Y-134.9
X179.34Y-58.7
X179.97Y-77.75
X179.975Y-96.8
X179.975Y-115.85
X188.86Y-77.75
X188.865Y-96.8
X188.865Y-115.85
X188.865Y-134.9
X189.5Y-58.7
X198.39Y-58.7
X199.02Y-77.75
X199.025Y-96.8
X199.025Y-115.85
X199.025Y-134.9
X207.91Y-77.75
X207.915Y-96.8
X207.915Y-115.85
X208.55Y-58.7
X217.44Y-58.7
X218.07Y-77.75
X218.075Y-96.8
X218.075Y-115.85
X226.96Y-77.75
X226.965Y-96.8
X226.965Y-115.85
X226.965Y-134.9
X227.6Y-58.7
X236.49Y-58.7
X237.12Y-77.75
X237.125Y-96.8
X237.125Y-115.85
X237.125Y-134.9
X246.01Y-77.75
X246.015Y-96.8
X246.015Y-115.85
X246.015Y-134.9
X246.65Y-58.7
X256.17Y-77.75
X256.175Y-96.8
X256.175Y-115.85
X256.175Y-134.9
X260.303Y-58.7
X265.06Y-77.75
X265.065Y-96.8
X265.065Y-115.85
X270.462Y-58.7
X275.22Y-77.75
X275.225Y-96.8
X275.225Y-115.85
T2
X26.52Y-58.7
X31.282Y-77.75
X31.282Y-96.8
X31.282Y-115.85
X37.52Y-58.7
X42.282Y-77.75
X42.282Y-96.8
X42.282Y-115.85
X45.57Y-58.7
X47.951Y-134.9
X55.09Y-77.75
X55.095Y-96.8
X55.095Y-115.85
X56.57Y-58.7
X58.951Y-134.9
X64.62Y-58.7
X66.09Y-77.75
X66.095Y-96.8
X66.095Y-115.85
X71.764Y-134.9
X74.145Y-77.75
X74.145Y-96.8
X74.145Y-115.85
X75.62Y-58.7
X82.764Y-134.9
X83.67Y-58.7
X85.145Y-77.75
X85.145Y-96.8
X85.145Y-115.85
X93.195Y-77.75
X93.195Y-96.8
X93.195Y-115.85
X94.67Y-58.7
X102.72Y-58.7
X104.195Y-77.75
X104.195Y-96.8
X104.195Y-115.85
X112.245Y-77.75
X112.245Y-96.8
X112.245Y-115.85
X112.245Y-134.9
X113.72Y-58.7
X121.77Y-58.7
X123.245Y-77.75
X123.245Y-96.8
X123.245Y-115.85
X123.245Y-134.9
X131.29Y-77.75
X131.295Y-96.8
X131.295Y-115.85
X132.77Y-58.7
X136.058Y-134.9
X140.82Y-58.7
X142.29Y-77.75
X142.295Y-96.8
X142.295Y-115.85
X147.058Y-134.9
X151.82Y-58.7
X159.87Y-58.7
X164.632Y-134.9
X169.39Y-77.75
X169.395Y-96.8
X169.395Y-115.85
X170.87Y-58.7
X175.632Y-134.9
X178.92Y-58.7
X180.39Y-77.75
X180.395Y-96.8
X180.395Y-115.85
X188.44Y-77.75
X188.445Y-96.8
X188.445Y-115.85
X188.445Y-134.9
X189.92Y-58.7
X197.97Y-58.7
X199.44Y-77.75
X199.445Y-96.8
X199.445Y-115.85
X199.445Y-134.9
X207.49Y-77.75
X207.495Y-96.8
X207.495Y-115.85
X208.97Y-58.7
X217.02Y-58.7
X218.49Y-77.75
X218.495Y-96.8
X218.495Y-115.85
X226.54Y-77.75
X226.545Y-96.8
X226.545Y-115.85
X226.545Y-134.9
X228.02Y-58.7
X236.07Y-58.7
X237.54Y-77.75
X237.545Y-96.8
X237.545Y-115.85
X237.545Y-134.9
X245.59Y-77.75
X245.595Y-96.8
X245.595Y-115.85
X245.595Y-134.9
X247.07Y-58.7
X256.59Y-77.75
X256.595Y-96.8
X256.595Y-115.85
X256.595Y-134.9
X259.882Y-58.7
X264.64Y-77.75
X264.645Y-96.8
X264.645Y-115.85
X270.882Y-58.7
X275.64Y-77.75
X275.645Y-96.8
X275.645Y-115.85
T3
X32.02Y-58.7
X36.782Y-77.75
X36.782Y-96.8
X36.782Y-115.85
X51.07Y-58.7
X53.451Y-134.9
X60.59Y-77.75
X60.595Y-96.8
X60.595Y-115.85
X70.12Y-58.7
X77.264Y-134.9
X79.645Y-77.75
X79.645Y-96.8
X79.645Y-115.85
X89.17Y-58.7
X98.695Y-77.75
X98.695Y-96.8
X98.695Y-115.85
X108.22Y-58.7
X117.745Y-77.75
X117.745Y-96.8
X117.745Y-115.85
X117.745Y-134.9
X127.27Y-58.7
X136.79Y-77.75
X136.795Y-96.8
X136.795Y-115.85
X141.558Y-134.9
X146.32Y-58.7
X165.37Y-58.7
X170.132Y-134.9
X174.89Y-77.75
X174.895Y-96.8
X174.895Y-115.85
X184.42Y-58.7
X193.94Y-77.75
X193.945Y-96.8
X193.945Y-115.85
X193.945Y-134.9
X203.47Y-58.7
X212.99Y-77.75
X212.995Y-96.8
X212.995Y-115.85
X222.52Y-58.7
X232.04Y-77.75
X232.045Y-96.8
X232.045Y-115.85
X232.045Y-134.9
X241.57Y-58.7
X251.09Y-77.75
X251.095Y-96.8
X251.095Y-115.85
X251.095Y-134.9
X265.382Y-58.7
X270.14Y-77.75
X270.145Y-96.8
X270.145Y-115.85
T0
M30
