<?xml version="1.0" standalone="no"?>
 <!DOCTYPE svg PUBLIC "-//W3C//DTD SVG 1.1//EN" 
 "http://www.w3.org/Graphics/SVG/1.1/DTD/svg11.dtd"> 
<svg
  xmlns:svg="http://www.w3.org/2000/svg"
  xmlns="http://www.w3.org/2000/svg"
  xmlns:xlink="http://www.w3.org/1999/xlink"
  version="1.1"
  width="29.700220cm" height="21.000720cm" viewBox="0 0 297002200 210007200">
<title>SVG Picture created as denpa-B_Courtyard.svg date 2022/06/28 15:55:52 </title>
  <desc>Picture generated by PCBNEW </desc>
<g style="fill:#000000; fill-opacity:1.000000;stroke:#000000; stroke-opacity:1.000000;
stroke-linecap:round; stroke-linejoin:round;"
 transform="translate(0 0) scale(1 1)">
</g>
<g style="fill:#000000; fill-opacity:0.0; 
stroke:#000000; stroke-width:0.000000; stroke-opacity:1; 
stroke-linecap:round; stroke-linejoin:round;">
</g>
<g style="fill:#000000; fill-opacity:0.0; 
stroke:#000000; stroke-width:50000.000000; stroke-opacity:1; 
stroke-linecap:round; stroke-linejoin:round;">
<path d="M21470000 48150000
L22470000 48150000
" />
<path d="M21470000 48150000
L21470000 49150000
" />
<path d="M186325000 63500000
L197425000 63500000
" />
<path d="M197425000 70500000
L186325000 70500000
" />
<path d="M197425000 63500000
L197425000 70500000
" />
<path d="M186325000 70500000
L186325000 63500000
" />
<path d="M189975000 83550000
L189975000 90450000
" />
<path d="M189975000 90450000
L181375000 90450000
" />
<path d="M181375000 90450000
L181375000 83550000
" />
<path d="M181375000 83550000
L189975000 83550000
" />
<path d="M186845000 61150000
L186845000 63110000
" />
<path d="M190605000 61150000
L186845000 61150000
" />
<path d="M190605000 63110000
L190605000 61150000
" />
<path d="M186845000 63110000
L190605000 63110000
" />
<path d="M257695000 87070000
L257695000 83310000
" />
<path d="M255735000 83310000
L255735000 87070000
" />
<path d="M255735000 87070000
L257695000 87070000
" />
<path d="M257695000 83310000
L255735000 83310000
" />
<path d="M262975000 83390000
L258215000 83390000
" />
<path d="M262975000 83390000
L262975000 86990000
" />
<path d="M258215000 86990000
L262975000 86990000
" />
<path d="M258215000 86990000
L258215000 83390000
" />
<path d="M190615000 71050000
L186855000 71050000
" />
<path d="M186855000 71050000
L186855000 73010000
" />
<path d="M186855000 73010000
L190615000 73010000
" />
<path d="M190615000 73010000
L190615000 71050000
" />
<path d="M28925000 83440000
L28925000 72040000
" />
<path d="M20525000 72040000
L20525000 83440000
" />
<path d="M28925000 72040000
L20525000 72040000
" />
<path d="M20525000 83440000
L28925000 83440000
" />
<path d="M265595000 83310000
L263635000 83310000
" />
<path d="M263635000 83310000
L263635000 87070000
" />
<path d="M265595000 87070000
L265595000 83310000
" />
<path d="M263635000 87070000
L265595000 87070000
" />
<path d="M43775000 80690000
L47015000 80690000
" />
<path d="M47015000 74990000
L43775000 74990000
" />
<path d="M43775000 74990000
L43775000 80690000
" />
<path d="M47015000 80690000
L47015000 74990000
" />
<g >
</g>
<g >
</g>
<g >
</g>
<g >
</g>
<g >
</g>
<g >
</g>
<g >
</g>
<g >
</g>
<g >
</g>
<g >
</g>
<g >
</g>
<g >
</g>
<g >
</g>
<g >
</g>
<g >
</g>
<g >
</g>
<g >
</g>
<g >
</g>
<g >
</g>
<g >
</g>
<g >
</g>
<g >
</g>
<g >
</g>
<g >
</g>
<g >
</g>
<g >
</g>
<g >
</g>
<g >
</g>
<g >
</g>
<g >
</g>
<g >
</g>
<g >
</g>
<g >
</g>
<g >
</g>
<g >
</g>
<g >
</g>
<g >
</g>
<g >
</g>
<g >
</g>
<g >
</g>
<g >
</g>
<g >
</g>
<g >
</g>
<g >
</g>
<g >
</g>
<g >
</g>
<g >
</g>
<g >
</g>
<g >
</g>
<g >
</g>
<g >
</g>
<g >
</g>
<g >
</g>
<g >
</g>
<g >
</g>
<g >
</g>
<g >
</g>
<g >
</g>
<g >
</g>
<g >
</g>
<g >
</g>
<g >
</g>
<g >
</g>
<g >
</g>
<g >
</g>
<g >
</g>
<g >
</g>
<g >
</g>
<g >
</g>
<g >
</g>
<g >
</g>
<g >
</g>
<g >
</g>
<g >
</g>
<g >
</g>
<g >
</g>
<g >
</g>
<g >
</g>
<g >
</g>
<g >
</g>
<g >
</g>
<g >
</g>
<g >
</g>
<g >
</g>
<g >
</g>
<g >
</g>
<g >
</g>
<g >
</g>
<g >
</g>
<g >
</g>
<g >
</g>
<g >
</g>
<g >
</g>
<g >
</g>
<g >
</g>
<g >
</g>
<g >
</g>
<g >
</g>
<g >
</g>
<g >
</g>
<g >
</g>
<g >
</g>
<g >
</g>
<g >
</g>
<g >
</g>
<g >
</g>
<g >
</g>
<g >
</g>
<g >
</g>
<g >
</g>
<g >
</g>
<g >
</g>
<g >
</g>
<g >
</g>
<g >
</g>
<g >
</g>
<g >
</g>
<g >
</g>
<g >
</g>
<g >
</g>
<g >
</g>
<g >
</g>
<g >
</g>
<g >
</g>
<g >
</g>
<g >
</g>
<g >
</g>
<g >
</g>
<g >
</g>
<g >
</g>
<g >
</g>
<g >
</g>
<g >
</g>
<g >
</g>
<g >
</g>
<g >
</g>
<g >
</g>
<g >
</g>
<g >
</g>
<g >
</g>
<g >
</g>
<g >
</g>
<g >
</g>
<g >
</g>
<g >
</g>
<g >
</g>
<g >
</g>
<g >
</g>
<g >
</g>
</g> 
</svg>
