  0
SECTION
  2
HEADER
  9
$ANGBASE
  50
0.0
  9
$ANGDIR
  70
1
  9
$MEASUREMENT
  70
1
  0
ENDSEC
  0
SECTION
  2
TABLES
  0
TABLE
  2
LTYPE
  70
4
  0
LTYPE
  5
40F
  2
CONTINUOUS
  70
0
  3
Solid line
  72
65
  73
0
  40
0.0
  0
LTYPE
  5
410
  2
DASHDOT
 70
0
  3
Dash Dot ____ _ ____ _
 72
65
 73
4
 40
2.0
 49
1.25
 49
-0.25
 49
0.25
 49
-0.25
  0
LTYPE
  5
411
  2
DASHED
 70
0
  3
Dashed __ __ __ __ __
 72
65
 73
2
 40
0.75
 49
0.5
 49
-0.25
  0
LTYPE
  5
43B
  2
DOTTED
 70
0
  3
Dotted .  .  .  .
 72
65
 73
2
 40
0.2
 49
0.0
 49
-0.2
  0
ENDTAB
  0
TABLE
  2
STYLE
  70
4
  0
STYLE
  2
KICAD
  70
0
  40
0
  41
1
  42
1
  50
0
  71
0
  3
isocp.shx
  0
STYLE
  2
KICADB
  70
0
  40
0
  41
1
  42
1
  50
0
  71
0
  3
isocp.shx
  0
STYLE
  2
KICADI
  70
0
  40
0
  41
1
  42
1
  50
15
  71
0
  3
isocp.shx
  0
STYLE
  2
KICADBI
  70
0
  40
0
  41
1
  42
1
  50
15
  71
0
  3
isocp.shx
  0
ENDTAB
  0
TABLE
  2
LAYER
  70
1
  0
LAYER
  2
BLACK
  70
0
  62
7
  6
CONTINUOUS
  0
ENDTAB
  0
ENDSEC
  0
SECTION
  2
ENTITIES
0
LINE
8
BLACK
6
CONTINUOUS
10
251.14
20
-44.125
11
251.14
21
-48.075
0
LINE
8
BLACK
6
CONTINUOUS
10
251.14
20
-48.075
11
280.715
21
-48.075
0
LINE
8
BLACK
6
CONTINUOUS
10
280.715
20
-48.075
11
280.75
21
-48.0896
0
LINE
8
BLACK
6
CONTINUOUS
10
280.75
20
-48.0896
11
280.765
21
-48.125
0
LINE
8
BLACK
6
CONTINUOUS
10
280.765
20
-48.125
11
280.765
21
-126.425
0
LINE
8
BLACK
6
CONTINUOUS
10
280.765
20
-126.425
11
280.755
21
-126.45
0
LINE
8
BLACK
6
CONTINUOUS
10
280.755
20
-126.45
11
280.75
21
-126.46
0
LINE
8
BLACK
6
CONTINUOUS
10
280.75
20
-126.46
11
261.7
21
-145.51
0
LINE
8
BLACK
6
CONTINUOUS
10
261.7
20
-145.51
11
261.665
21
-145.525
0
LINE
8
BLACK
6
CONTINUOUS
10
261.665
20
-145.525
11
251.145
21
-145.525
0
LINE
8
BLACK
6
CONTINUOUS
10
251.145
20
-145.525
11
251.145
21
-149.475
0
LINE
8
BLACK
6
CONTINUOUS
10
251.145
20
-149.475
11
251.13
21
-149.51
0
LINE
8
BLACK
6
CONTINUOUS
10
251.13
20
-149.51
11
251.095
21
-149.525
0
LINE
8
BLACK
6
CONTINUOUS
10
251.095
20
-149.525
11
184.42
21
-149.525
0
LINE
8
BLACK
6
CONTINUOUS
10
184.42
20
-149.525
11
184.385
21
-149.51
0
LINE
8
BLACK
6
CONTINUOUS
10
184.385
20
-149.51
11
184.37
21
-149.475
0
LINE
8
BLACK
6
CONTINUOUS
10
184.37
20
-149.475
11
184.37
21
-145.525
0
LINE
8
BLACK
6
CONTINUOUS
10
184.37
20
-145.525
11
117.795
21
-145.525
0
LINE
8
BLACK
6
CONTINUOUS
10
117.795
20
-145.525
11
117.795
21
-149.475
0
LINE
8
BLACK
6
CONTINUOUS
10
117.795
20
-149.475
11
117.78
21
-149.51
0
LINE
8
BLACK
6
CONTINUOUS
10
117.78
20
-149.51
11
117.745
21
-149.525
0
LINE
8
BLACK
6
CONTINUOUS
10
117.745
20
-149.525
11
51.07
21
-149.525
0
LINE
8
BLACK
6
CONTINUOUS
10
51.07
20
-149.525
11
51.0346
21
-149.51
0
LINE
8
BLACK
6
CONTINUOUS
10
51.0346
20
-149.51
11
51.02
21
-149.475
0
LINE
8
BLACK
6
CONTINUOUS
10
51.02
20
-149.475
11
51.02
21
-145.525
0
LINE
8
BLACK
6
CONTINUOUS
10
51.02
20
-145.525
11
40.495
21
-145.525
0
LINE
8
BLACK
6
CONTINUOUS
10
40.495
20
-145.525
11
40.47
21
-145.515
0
LINE
8
BLACK
6
CONTINUOUS
10
40.47
20
-145.515
11
40.4596
21
-145.51
0
LINE
8
BLACK
6
CONTINUOUS
10
40.4596
20
-145.51
11
21.4096
21
-126.46
0
LINE
8
BLACK
6
CONTINUOUS
10
21.4096
20
-126.46
11
21.395
21
-126.425
0
LINE
8
BLACK
6
CONTINUOUS
10
21.395
20
-126.425
11
21.395
21
-48.125
0
LINE
8
BLACK
6
CONTINUOUS
10
21.395
20
-48.125
11
21.4096
21
-48.0896
0
LINE
8
BLACK
6
CONTINUOUS
10
21.4096
20
-48.0896
11
21.445
21
-48.075
0
LINE
8
BLACK
6
CONTINUOUS
10
21.445
20
-48.075
11
51.02
21
-48.075
0
LINE
8
BLACK
6
CONTINUOUS
10
51.02
20
-48.075
11
51.02
21
-44.125
0
LINE
8
BLACK
6
CONTINUOUS
10
51.02
20
-44.125
11
51.0346
21
-44.0896
0
LINE
8
BLACK
6
CONTINUOUS
10
51.0346
20
-44.0896
11
51.07
21
-44.075
0
LINE
8
BLACK
6
CONTINUOUS
10
51.07
20
-44.075
11
117.745
21
-44.075
0
LINE
8
BLACK
6
CONTINUOUS
10
117.745
20
-44.075
11
117.78
21
-44.0896
0
LINE
8
BLACK
6
CONTINUOUS
10
117.78
20
-44.0896
11
117.795
21
-44.125
0
LINE
8
BLACK
6
CONTINUOUS
10
117.795
20
-44.125
11
117.795
21
-48.075
0
LINE
8
BLACK
6
CONTINUOUS
10
117.795
20
-48.075
11
184.37
21
-48.075
0
LINE
8
BLACK
6
CONTINUOUS
10
184.37
20
-48.075
11
184.37
21
-44.125
0
LINE
8
BLACK
6
CONTINUOUS
10
184.37
20
-44.125
11
184.385
21
-44.0896
0
LINE
8
BLACK
6
CONTINUOUS
10
184.385
20
-44.0896
11
184.42
21
-44.075
0
LINE
8
BLACK
6
CONTINUOUS
10
184.42
20
-44.075
11
251.09
21
-44.075
0
LINE
8
BLACK
6
CONTINUOUS
10
251.09
20
-44.075
11
251.125
21
-44.0896
0
LINE
8
BLACK
6
CONTINUOUS
10
251.125
20
-44.0896
11
251.14
21
-44.125
0
LINE
8
BLACK
6
CONTINUOUS
10
21.495
20
-126.404
11
40.5157
21
-145.425
0
LINE
8
BLACK
6
CONTINUOUS
10
40.5157
20
-145.425
11
51.07
21
-145.425
0
LINE
8
BLACK
6
CONTINUOUS
10
51.07
20
-145.425
11
51.1054
21
-145.44
0
LINE
8
BLACK
6
CONTINUOUS
10
51.1054
20
-145.44
11
51.12
21
-145.475
0
LINE
8
BLACK
6
CONTINUOUS
10
51.12
20
-145.475
11
51.12
21
-149.425
0
LINE
8
BLACK
6
CONTINUOUS
10
51.12
20
-149.425
11
117.695
21
-149.425
0
LINE
8
BLACK
6
CONTINUOUS
10
117.695
20
-149.425
11
117.695
21
-145.475
0
LINE
8
BLACK
6
CONTINUOUS
10
117.695
20
-145.475
11
117.71
21
-145.44
0
LINE
8
BLACK
6
CONTINUOUS
10
117.71
20
-145.44
11
117.745
21
-145.425
0
LINE
8
BLACK
6
CONTINUOUS
10
117.745
20
-145.425
11
184.42
21
-145.425
0
LINE
8
BLACK
6
CONTINUOUS
10
184.42
20
-145.425
11
184.455
21
-145.44
0
LINE
8
BLACK
6
CONTINUOUS
10
184.455
20
-145.44
11
184.47
21
-145.475
0
LINE
8
BLACK
6
CONTINUOUS
10
184.47
20
-145.475
11
184.47
21
-149.425
0
LINE
8
BLACK
6
CONTINUOUS
10
184.47
20
-149.425
11
251.045
21
-149.425
0
LINE
8
BLACK
6
CONTINUOUS
10
251.045
20
-149.425
11
251.045
21
-145.475
0
LINE
8
BLACK
6
CONTINUOUS
10
251.045
20
-145.475
11
251.06
21
-145.44
0
LINE
8
BLACK
6
CONTINUOUS
10
251.06
20
-145.44
11
251.095
21
-145.425
0
LINE
8
BLACK
6
CONTINUOUS
10
251.095
20
-145.425
11
261.644
21
-145.425
0
LINE
8
BLACK
6
CONTINUOUS
10
261.644
20
-145.425
11
280.665
21
-126.404
0
LINE
8
BLACK
6
CONTINUOUS
10
280.665
20
-126.404
11
280.665
21
-48.175
0
LINE
8
BLACK
6
CONTINUOUS
10
280.665
20
-48.175
11
251.09
21
-48.175
0
LINE
8
BLACK
6
CONTINUOUS
10
251.09
20
-48.175
11
251.055
21
-48.1604
0
LINE
8
BLACK
6
CONTINUOUS
10
251.055
20
-48.1604
11
251.04
21
-48.125
0
LINE
8
BLACK
6
CONTINUOUS
10
251.04
20
-48.125
11
251.04
21
-44.175
0
LINE
8
BLACK
6
CONTINUOUS
10
251.04
20
-44.175
11
184.47
21
-44.175
0
LINE
8
BLACK
6
CONTINUOUS
10
184.47
20
-44.175
11
184.47
21
-48.125
0
LINE
8
BLACK
6
CONTINUOUS
10
184.47
20
-48.125
11
184.455
21
-48.1604
0
LINE
8
BLACK
6
CONTINUOUS
10
184.455
20
-48.1604
11
184.42
21
-48.175
0
LINE
8
BLACK
6
CONTINUOUS
10
184.42
20
-48.175
11
117.745
21
-48.175
0
LINE
8
BLACK
6
CONTINUOUS
10
117.745
20
-48.175
11
117.71
21
-48.1604
0
LINE
8
BLACK
6
CONTINUOUS
10
117.71
20
-48.1604
11
117.695
21
-48.125
0
LINE
8
BLACK
6
CONTINUOUS
10
117.695
20
-48.125
11
117.695
21
-44.175
0
LINE
8
BLACK
6
CONTINUOUS
10
117.695
20
-44.175
11
51.12
21
-44.175
0
LINE
8
BLACK
6
CONTINUOUS
10
51.12
20
-44.175
11
51.12
21
-48.125
0
LINE
8
BLACK
6
CONTINUOUS
10
51.12
20
-48.125
11
51.1054
21
-48.1604
0
LINE
8
BLACK
6
CONTINUOUS
10
51.1054
20
-48.1604
11
51.07
21
-48.175
0
LINE
8
BLACK
6
CONTINUOUS
10
51.07
20
-48.175
11
21.495
21
-48.175
0
LINE
8
BLACK
6
CONTINUOUS
10
21.495
20
-48.175
11
21.495
21
-126.404
  0
ENDSEC
  0
EOF
