%TF.GenerationSoftware,KiCad,Pcbnew,(6.0.5-0)*%
%TF.CreationDate,2022-06-30T23:43:57+09:00*%
%TF.ProjectId,denpa,64656e70-612e-46b6-9963-61645f706362,1*%
%TF.SameCoordinates,Original*%
%TF.FileFunction,Soldermask,Bot*%
%TF.FilePolarity,Negative*%
%FSLAX46Y46*%
G04 Gerber Fmt 4.6, Leading zero omitted, Abs format (unit mm)*
G04 Created by KiCad (PCBNEW (6.0.5-0)) date 2022-06-30 23:43:57*
%MOMM*%
%LPD*%
G01*
G04 APERTURE LIST*
G04 Aperture macros list*
%AMRoundRect*
0 Rectangle with rounded corners*
0 $1 Rounding radius*
0 $2 $3 $4 $5 $6 $7 $8 $9 X,Y pos of 4 corners*
0 Add a 4 corners polygon primitive as box body*
4,1,4,$2,$3,$4,$5,$6,$7,$8,$9,$2,$3,0*
0 Add four circle primitives for the rounded corners*
1,1,$1+$1,$2,$3*
1,1,$1+$1,$4,$5*
1,1,$1+$1,$6,$7*
1,1,$1+$1,$8,$9*
0 Add four rect primitives between the rounded corners*
20,1,$1+$1,$2,$3,$4,$5,0*
20,1,$1+$1,$4,$5,$6,$7,0*
20,1,$1+$1,$6,$7,$8,$9,0*
20,1,$1+$1,$8,$9,$2,$3,0*%
%AMHorizOval*
0 Thick line with rounded ends*
0 $1 width*
0 $2 $3 position (X,Y) of the first rounded end (center of the circle)*
0 $4 $5 position (X,Y) of the second rounded end (center of the circle)*
0 Add line between two ends*
20,1,$1,$2,$3,$4,$5,0*
0 Add two circle primitives to create the rounded ends*
1,1,$1,$2,$3*
1,1,$1,$4,$5*%
G04 Aperture macros list end*
%ADD10C,0.300000*%
%ADD11R,1.400000X1.000000*%
%ADD12C,1.700000*%
%ADD13C,1.800000*%
%ADD14C,4.900000*%
%ADD15C,2.400000*%
%ADD16O,2.200000X1.600000*%
%ADD17O,2.200000X1.500000*%
%ADD18HorizOval,1.500000X1.449945X0.012653X-1.449945X-0.012653X0*%
%ADD19C,2.300000*%
%ADD20C,1.524000*%
%ADD21R,1.524000X1.524000*%
%ADD22R,2.200000X1.200000*%
%ADD23R,6.400000X5.800000*%
%ADD24RoundRect,0.250000X0.625000X-0.350000X0.625000X0.350000X-0.625000X0.350000X-0.625000X-0.350000X0*%
%ADD25O,1.750000X1.200000*%
%ADD26RoundRect,0.250000X-0.337500X-0.475000X0.337500X-0.475000X0.337500X0.475000X-0.337500X0.475000X0*%
%ADD27RoundRect,0.250000X0.475000X-0.337500X0.475000X0.337500X-0.475000X0.337500X-0.475000X-0.337500X0*%
%ADD28C,1.600000*%
%ADD29R,1.560000X0.650000*%
%ADD30C,2.000000*%
%ADD31C,1.500000*%
%ADD32R,1.440000X1.200000*%
G04 APERTURE END LIST*
D10*
%TO.C,bg-logo*%
X96320000Y-138620000D02*
X94070000Y-138620000D01*
X89820000Y-139995000D02*
X89820000Y-140620000D01*
X101070000Y-138620000D02*
X102820000Y-138620000D01*
X96320000Y-139620000D02*
X96320000Y-140620000D01*
X96320000Y-139620000D02*
X94070000Y-139620000D01*
X101070000Y-139620000D02*
X102695000Y-139620000D01*
X100070000Y-140620000D02*
X100070000Y-139995000D01*
X107570000Y-138620000D02*
X105820000Y-138620000D01*
X97320000Y-140620000D02*
X97320000Y-139995000D01*
X91695000Y-139870000D02*
X90695000Y-139870000D01*
X107570000Y-140620000D02*
X105820000Y-140620000D01*
X92570000Y-139995000D02*
X92570000Y-140620000D01*
X101070000Y-140620000D02*
X102820000Y-140620000D01*
X94070000Y-138620000D02*
G75*
G03*
X94070000Y-139620000I0J-500000D01*
G01*
X92570000Y-139995000D02*
G75*
G03*
X89820000Y-139995000I-1375000J0D01*
G01*
X102820000Y-140620000D02*
G75*
G03*
X102820000Y-138620000I0J1000000D01*
G01*
X100070000Y-139995000D02*
G75*
G03*
X97320000Y-139995000I-1375000J0D01*
G01*
X105820000Y-138620000D02*
G75*
G03*
X105820000Y-140620000I0J-1000000D01*
G01*
%TD*%
D11*
%TO.C,D4*%
X45012500Y-107500000D03*
X41462500Y-107500000D03*
%TD*%
%TO.C,D11*%
X78350000Y-50350000D03*
X74800000Y-50350000D03*
%TD*%
%TO.C,D32*%
X125975000Y-50350000D03*
X122425000Y-50350000D03*
%TD*%
%TO.C,D48*%
X221225000Y-50350000D03*
X217675000Y-50350000D03*
%TD*%
%TO.C,D59*%
X240275000Y-50350000D03*
X236725000Y-50350000D03*
%TD*%
%TO.C,D44*%
X211700000Y-50350000D03*
X208150000Y-50350000D03*
%TD*%
D12*
%TO.C,SW13*%
X84725000Y-96800000D03*
D13*
X85145000Y-96800000D03*
D14*
X79645000Y-96800000D03*
D13*
X74145000Y-96800000D03*
D12*
X74565000Y-96800000D03*
D15*
X75835000Y-94260000D03*
D16*
X74545000Y-100700000D03*
D17*
X79645000Y-102700000D03*
D15*
X82185000Y-91720000D03*
D18*
X83545042Y-91259599D03*
%TD*%
D13*
%TO.C,SW53*%
X256595000Y-96800000D03*
X245595000Y-96800000D03*
D12*
X256175000Y-96800000D03*
D14*
X251095000Y-96800000D03*
D12*
X246015000Y-96800000D03*
D15*
X247285000Y-94260000D03*
D16*
X245995000Y-100700000D03*
D17*
X251095000Y-102700000D03*
D15*
X253635000Y-91720000D03*
D18*
X254995042Y-91259599D03*
%TD*%
D12*
%TO.C,SW12*%
X84725000Y-77750000D03*
D13*
X74145000Y-77750000D03*
D12*
X74565000Y-77750000D03*
D14*
X79645000Y-77750000D03*
D13*
X85145000Y-77750000D03*
D15*
X75835000Y-75210000D03*
D16*
X74545000Y-81650000D03*
D15*
X82185000Y-72670000D03*
D17*
X79645000Y-83650000D03*
D18*
X83545042Y-72209599D03*
%TD*%
D11*
%TO.C,D17*%
X106925000Y-69400000D03*
X103375000Y-69400000D03*
%TD*%
%TO.C,D37*%
X183125000Y-107500000D03*
X179575000Y-107500000D03*
%TD*%
%TO.C,D14*%
X87875000Y-107500000D03*
X84325000Y-107500000D03*
%TD*%
%TO.C,D54*%
X230750000Y-50350000D03*
X227200000Y-50350000D03*
%TD*%
%TO.C,D43*%
X202175000Y-126550000D03*
X198625000Y-126550000D03*
%TD*%
%TO.C,D24*%
X125975000Y-107500000D03*
X122425000Y-107500000D03*
%TD*%
D13*
%TO.C,SW56*%
X270882500Y-58700000D03*
D12*
X260302500Y-58700000D03*
X270462500Y-58700000D03*
D13*
X259882500Y-58700000D03*
D14*
X265382500Y-58700000D03*
D16*
X260282500Y-62600000D03*
D15*
X261572500Y-56160000D03*
D18*
X269282542Y-53159599D03*
D15*
X267922500Y-53620000D03*
D17*
X265382500Y-64600000D03*
%TD*%
D12*
%TO.C,SW30*%
X136477500Y-134900000D03*
D13*
X147057500Y-134900000D03*
D14*
X141557500Y-134900000D03*
D12*
X146637500Y-134900000D03*
D13*
X136057500Y-134900000D03*
D15*
X137747500Y-132360000D03*
D16*
X136457500Y-138800000D03*
D17*
X141557500Y-140800000D03*
D18*
X145457542Y-129359599D03*
D15*
X144097500Y-129820000D03*
%TD*%
D14*
%TO.C,SW21*%
X108220000Y-58700000D03*
D12*
X113300000Y-58700000D03*
D13*
X113720000Y-58700000D03*
X102720000Y-58700000D03*
D12*
X103140000Y-58700000D03*
D15*
X104410000Y-56160000D03*
D16*
X103120000Y-62600000D03*
D18*
X112120042Y-53159599D03*
D17*
X108220000Y-64600000D03*
D15*
X110760000Y-53620000D03*
%TD*%
D13*
%TO.C,SW44*%
X207495000Y-96800000D03*
D14*
X212995000Y-96800000D03*
D13*
X218495000Y-96800000D03*
D12*
X207915000Y-96800000D03*
X218075000Y-96800000D03*
D15*
X209185000Y-94260000D03*
D16*
X207895000Y-100700000D03*
D15*
X215535000Y-91720000D03*
D17*
X212995000Y-102700000D03*
D18*
X216895042Y-91259599D03*
%TD*%
D12*
%TO.C,SW27*%
X141870000Y-77750000D03*
D13*
X131290000Y-77750000D03*
X142290000Y-77750000D03*
D12*
X131710000Y-77750000D03*
D14*
X136790000Y-77750000D03*
D16*
X131690000Y-81650000D03*
D15*
X132980000Y-75210000D03*
D17*
X136790000Y-83650000D03*
D18*
X140690042Y-72209599D03*
D15*
X139330000Y-72670000D03*
%TD*%
D12*
%TO.C,SW6*%
X45990000Y-58700000D03*
D14*
X51070000Y-58700000D03*
D12*
X56150000Y-58700000D03*
D13*
X45570000Y-58700000D03*
X56570000Y-58700000D03*
D15*
X47260000Y-56160000D03*
D16*
X45970000Y-62600000D03*
D15*
X53610000Y-53620000D03*
D18*
X54970042Y-53159599D03*
D17*
X51070000Y-64600000D03*
%TD*%
D11*
%TO.C,D40*%
X221225000Y-69400000D03*
X217675000Y-69400000D03*
%TD*%
D13*
%TO.C,SW23*%
X123245000Y-96800000D03*
D14*
X117745000Y-96800000D03*
D12*
X112665000Y-96800000D03*
X122825000Y-96800000D03*
D13*
X112245000Y-96800000D03*
D15*
X113935000Y-94260000D03*
D16*
X112645000Y-100700000D03*
D15*
X120285000Y-91720000D03*
D17*
X117745000Y-102700000D03*
D18*
X121645042Y-91259599D03*
%TD*%
D13*
%TO.C,SW8*%
X55095000Y-96800000D03*
D12*
X55515000Y-96800000D03*
D13*
X66095000Y-96800000D03*
D14*
X60595000Y-96800000D03*
D12*
X65675000Y-96800000D03*
D16*
X55495000Y-100700000D03*
D15*
X56785000Y-94260000D03*
D18*
X64495042Y-91259599D03*
D17*
X60595000Y-102700000D03*
D15*
X63135000Y-91720000D03*
%TD*%
D11*
%TO.C,D52*%
X240275000Y-126550000D03*
X236725000Y-126550000D03*
%TD*%
%TO.C,D28*%
X125975000Y-88450000D03*
X122425000Y-88450000D03*
%TD*%
D12*
%TO.C,SW4*%
X41862500Y-115850000D03*
D13*
X42282500Y-115850000D03*
D12*
X31702500Y-115850000D03*
D14*
X36782500Y-115850000D03*
D13*
X31282500Y-115850000D03*
D16*
X31682500Y-119750000D03*
D15*
X32972500Y-113310000D03*
D18*
X40682542Y-110309599D03*
D15*
X39322500Y-110770000D03*
D17*
X36782500Y-121750000D03*
%TD*%
D14*
%TO.C,SW43*%
X212990000Y-77750000D03*
D12*
X207910000Y-77750000D03*
X218070000Y-77750000D03*
D13*
X207490000Y-77750000D03*
X218490000Y-77750000D03*
D15*
X209180000Y-75210000D03*
D16*
X207890000Y-81650000D03*
D17*
X212990000Y-83650000D03*
D15*
X215530000Y-72670000D03*
D18*
X216890042Y-72209599D03*
%TD*%
D11*
%TO.C,D23*%
X116450000Y-88450000D03*
X112900000Y-88450000D03*
%TD*%
D12*
%TO.C,SW16*%
X94250000Y-58700000D03*
D14*
X89170000Y-58700000D03*
D12*
X84090000Y-58700000D03*
D13*
X83670000Y-58700000D03*
X94670000Y-58700000D03*
D15*
X85360000Y-56160000D03*
D16*
X84070000Y-62600000D03*
D17*
X89170000Y-64600000D03*
D18*
X93070042Y-53159599D03*
D15*
X91710000Y-53620000D03*
%TD*%
D11*
%TO.C,D2*%
X45012500Y-69400000D03*
X41462500Y-69400000D03*
%TD*%
%TO.C,D58*%
X259325000Y-126550000D03*
X255775000Y-126550000D03*
%TD*%
D13*
%TO.C,SW25*%
X112245000Y-134900000D03*
D14*
X117745000Y-134900000D03*
D12*
X122825000Y-134900000D03*
X112665000Y-134900000D03*
D13*
X123245000Y-134900000D03*
D16*
X112645000Y-138800000D03*
D15*
X113935000Y-132360000D03*
X120285000Y-129820000D03*
D17*
X117745000Y-140800000D03*
D18*
X121645042Y-129359599D03*
%TD*%
D11*
%TO.C,D16*%
X97400000Y-50350000D03*
X93850000Y-50350000D03*
%TD*%
D12*
%TO.C,SW46*%
X217440000Y-58700000D03*
X227600000Y-58700000D03*
D14*
X222520000Y-58700000D03*
D13*
X228020000Y-58700000D03*
X217020000Y-58700000D03*
D16*
X217420000Y-62600000D03*
D15*
X218710000Y-56160000D03*
X225060000Y-53620000D03*
D17*
X222520000Y-64600000D03*
D18*
X226420042Y-53159599D03*
%TD*%
D13*
%TO.C,SW17*%
X104195000Y-77750000D03*
D12*
X103775000Y-77750000D03*
X93615000Y-77750000D03*
D14*
X98695000Y-77750000D03*
D13*
X93195000Y-77750000D03*
D15*
X94885000Y-75210000D03*
D16*
X93595000Y-81650000D03*
D18*
X102595042Y-72209599D03*
D17*
X98695000Y-83650000D03*
D15*
X101235000Y-72670000D03*
%TD*%
D11*
%TO.C,D60*%
X278375000Y-69400000D03*
X274825000Y-69400000D03*
%TD*%
D19*
%TO.C,Ref\u002A\u002A*%
X113745000Y-147350000D03*
%TD*%
D14*
%TO.C,SW18*%
X98695000Y-96800000D03*
D13*
X104195000Y-96800000D03*
D12*
X103775000Y-96800000D03*
D13*
X93195000Y-96800000D03*
D12*
X93615000Y-96800000D03*
D15*
X94885000Y-94260000D03*
D16*
X93595000Y-100700000D03*
D17*
X98695000Y-102700000D03*
D15*
X101235000Y-91720000D03*
D18*
X102595042Y-91259599D03*
%TD*%
D11*
%TO.C,D13*%
X87875000Y-88450000D03*
X84325000Y-88450000D03*
%TD*%
%TO.C,D7*%
X68825000Y-69400000D03*
X65275000Y-69400000D03*
%TD*%
%TO.C,D29*%
X145025000Y-107500000D03*
X141475000Y-107500000D03*
%TD*%
%TO.C,D3*%
X45012500Y-88450000D03*
X41462500Y-88450000D03*
%TD*%
D19*
%TO.C,Ref\u002A\u002A*%
X55070000Y-147350000D03*
%TD*%
D11*
%TO.C,D56*%
X249800000Y-88450000D03*
X246250000Y-88450000D03*
%TD*%
%TO.C,D25*%
X125975000Y-126550000D03*
X122425000Y-126550000D03*
%TD*%
%TO.C,D39*%
X202175000Y-50350000D03*
X198625000Y-50350000D03*
%TD*%
%TO.C,D61*%
X278375000Y-88450000D03*
X274825000Y-88450000D03*
%TD*%
D14*
%TO.C,SW2*%
X36782500Y-77750000D03*
D13*
X31282500Y-77750000D03*
D12*
X31702500Y-77750000D03*
X41862500Y-77750000D03*
D13*
X42282500Y-77750000D03*
D15*
X32972500Y-75210000D03*
D16*
X31682500Y-81650000D03*
D18*
X40682542Y-72209599D03*
D17*
X36782500Y-83650000D03*
D15*
X39322500Y-72670000D03*
%TD*%
D13*
%TO.C,SW41*%
X199445000Y-134900000D03*
D12*
X188865000Y-134900000D03*
D13*
X188445000Y-134900000D03*
D14*
X193945000Y-134900000D03*
D12*
X199025000Y-134900000D03*
D15*
X190135000Y-132360000D03*
D16*
X188845000Y-138800000D03*
D17*
X193945000Y-140800000D03*
D18*
X197845042Y-129359599D03*
D15*
X196485000Y-129820000D03*
%TD*%
D13*
%TO.C,SW33*%
X169390000Y-77750000D03*
X180390000Y-77750000D03*
D12*
X179970000Y-77750000D03*
X169810000Y-77750000D03*
D14*
X174890000Y-77750000D03*
D16*
X169790000Y-81650000D03*
D15*
X171080000Y-75210000D03*
X177430000Y-72670000D03*
D18*
X178790042Y-72209599D03*
D17*
X174890000Y-83650000D03*
%TD*%
D13*
%TO.C,SW10*%
X58951300Y-134900000D03*
D12*
X58531300Y-134900000D03*
D13*
X47951300Y-134900000D03*
D14*
X53451300Y-134900000D03*
D12*
X48371300Y-134900000D03*
D16*
X48351300Y-138800000D03*
D15*
X49641300Y-132360000D03*
X55991300Y-129820000D03*
D17*
X53451300Y-140800000D03*
D18*
X57351342Y-129359599D03*
%TD*%
D11*
%TO.C,D36*%
X202175000Y-88450000D03*
X198625000Y-88450000D03*
%TD*%
D19*
%TO.C,Ref\u002A\u002A*%
X247090000Y-46250000D03*
%TD*%
D13*
%TO.C,SW47*%
X237540000Y-77750000D03*
D12*
X237120000Y-77750000D03*
D14*
X232040000Y-77750000D03*
D12*
X226960000Y-77750000D03*
D13*
X226540000Y-77750000D03*
D15*
X228230000Y-75210000D03*
D16*
X226940000Y-81650000D03*
D17*
X232040000Y-83650000D03*
D18*
X235940042Y-72209599D03*
D15*
X234580000Y-72670000D03*
%TD*%
D11*
%TO.C,D47*%
X221225000Y-107500000D03*
X217675000Y-107500000D03*
%TD*%
D19*
%TO.C,Ref\u002A\u002A*%
X55070000Y-46250000D03*
%TD*%
D11*
%TO.C,D49*%
X240275000Y-69400000D03*
X236725000Y-69400000D03*
%TD*%
D12*
%TO.C,SW19*%
X93615000Y-115850000D03*
D14*
X98695000Y-115850000D03*
D13*
X93195000Y-115850000D03*
X104195000Y-115850000D03*
D12*
X103775000Y-115850000D03*
D15*
X94885000Y-113310000D03*
D16*
X93595000Y-119750000D03*
D17*
X98695000Y-121750000D03*
D15*
X101235000Y-110770000D03*
D18*
X102595042Y-110309599D03*
%TD*%
D11*
%TO.C,D6*%
X59300000Y-50350000D03*
X55750000Y-50350000D03*
%TD*%
D19*
%TO.C,Ref\u002A\u002A*%
X188420000Y-147350000D03*
%TD*%
D12*
%TO.C,SW24*%
X122825000Y-115850000D03*
X112665000Y-115850000D03*
D13*
X112245000Y-115850000D03*
D14*
X117745000Y-115850000D03*
D13*
X123245000Y-115850000D03*
D15*
X113935000Y-113310000D03*
D16*
X112645000Y-119750000D03*
D18*
X121645042Y-110309599D03*
D17*
X117745000Y-121750000D03*
D15*
X120285000Y-110770000D03*
%TD*%
D13*
%TO.C,SW14*%
X85145000Y-115850000D03*
X74145000Y-115850000D03*
D12*
X84725000Y-115850000D03*
X74565000Y-115850000D03*
D14*
X79645000Y-115850000D03*
D15*
X75835000Y-113310000D03*
D16*
X74545000Y-119750000D03*
D17*
X79645000Y-121750000D03*
D18*
X83545042Y-110309599D03*
D15*
X82185000Y-110770000D03*
%TD*%
D12*
%TO.C,SW49*%
X226965000Y-115850000D03*
D14*
X232045000Y-115850000D03*
D13*
X237545000Y-115850000D03*
D12*
X237125000Y-115850000D03*
D13*
X226545000Y-115850000D03*
D16*
X226945000Y-119750000D03*
D15*
X228235000Y-113310000D03*
D18*
X235945042Y-110309599D03*
D15*
X234585000Y-110770000D03*
D17*
X232045000Y-121750000D03*
%TD*%
D13*
%TO.C,SW58*%
X264645000Y-96800000D03*
D12*
X265065000Y-96800000D03*
X275225000Y-96800000D03*
D14*
X270145000Y-96800000D03*
D13*
X275645000Y-96800000D03*
D15*
X266335000Y-94260000D03*
D16*
X265045000Y-100700000D03*
D15*
X272685000Y-91720000D03*
D17*
X270145000Y-102700000D03*
D18*
X274045042Y-91259599D03*
%TD*%
D13*
%TO.C,SW32*%
X159870000Y-58700000D03*
X170870000Y-58700000D03*
D14*
X165370000Y-58700000D03*
D12*
X160290000Y-58700000D03*
X170450000Y-58700000D03*
D15*
X161560000Y-56160000D03*
D16*
X160270000Y-62600000D03*
D17*
X165370000Y-64600000D03*
D18*
X169270042Y-53159599D03*
D15*
X167910000Y-53620000D03*
%TD*%
D13*
%TO.C,SW45*%
X218495000Y-115850000D03*
D14*
X212995000Y-115850000D03*
D13*
X207495000Y-115850000D03*
D12*
X207915000Y-115850000D03*
X218075000Y-115850000D03*
D15*
X209185000Y-113310000D03*
D16*
X207895000Y-119750000D03*
D15*
X215535000Y-110770000D03*
D18*
X216895042Y-110309599D03*
D17*
X212995000Y-121750000D03*
%TD*%
D11*
%TO.C,D10*%
X61681300Y-126550000D03*
X58131300Y-126550000D03*
%TD*%
%TO.C,D42*%
X202175000Y-107500000D03*
X198625000Y-107500000D03*
%TD*%
D12*
%TO.C,SW50*%
X226965000Y-134900000D03*
D13*
X226545000Y-134900000D03*
D14*
X232045000Y-134900000D03*
D12*
X237125000Y-134900000D03*
D13*
X237545000Y-134900000D03*
D16*
X226945000Y-138800000D03*
D15*
X228235000Y-132360000D03*
D18*
X235945042Y-129359599D03*
D15*
X234585000Y-129820000D03*
D17*
X232045000Y-140800000D03*
%TD*%
D11*
%TO.C,D9*%
X68825000Y-107500000D03*
X65275000Y-107500000D03*
%TD*%
%TO.C,D18*%
X106925000Y-88450000D03*
X103375000Y-88450000D03*
%TD*%
D13*
%TO.C,SW15*%
X71763800Y-134900000D03*
D12*
X72183800Y-134900000D03*
X82343800Y-134900000D03*
D13*
X82763800Y-134900000D03*
D14*
X77263800Y-134900000D03*
D16*
X72163800Y-138800000D03*
D15*
X73453800Y-132360000D03*
D17*
X77263800Y-140800000D03*
D18*
X81163842Y-129359599D03*
D15*
X79803800Y-129820000D03*
%TD*%
D11*
%TO.C,D22*%
X116450000Y-69400000D03*
X112900000Y-69400000D03*
%TD*%
%TO.C,D21*%
X106925000Y-50350000D03*
X103375000Y-50350000D03*
%TD*%
D19*
%TO.C,Ref\u002A\u002A*%
X247095000Y-147350000D03*
%TD*%
D12*
%TO.C,SW35*%
X179975000Y-115850000D03*
D13*
X180395000Y-115850000D03*
X169395000Y-115850000D03*
D14*
X174895000Y-115850000D03*
D12*
X169815000Y-115850000D03*
D15*
X171085000Y-113310000D03*
D16*
X169795000Y-119750000D03*
D18*
X178795042Y-110309599D03*
D15*
X177435000Y-110770000D03*
D17*
X174895000Y-121750000D03*
%TD*%
D11*
%TO.C,D46*%
X221225000Y-88450000D03*
X217675000Y-88450000D03*
%TD*%
D13*
%TO.C,SW36*%
X164632500Y-134900000D03*
D12*
X175212500Y-134900000D03*
D14*
X170132500Y-134900000D03*
D13*
X175632500Y-134900000D03*
D12*
X165052500Y-134900000D03*
D15*
X166322500Y-132360000D03*
D16*
X165032500Y-138800000D03*
D17*
X170132500Y-140800000D03*
D18*
X174032542Y-129359599D03*
D15*
X172672500Y-129820000D03*
%TD*%
D14*
%TO.C,SW38*%
X193940000Y-77750000D03*
D13*
X199440000Y-77750000D03*
D12*
X199020000Y-77750000D03*
D13*
X188440000Y-77750000D03*
D12*
X188860000Y-77750000D03*
D15*
X190130000Y-75210000D03*
D16*
X188840000Y-81650000D03*
D17*
X193940000Y-83650000D03*
D15*
X196480000Y-72670000D03*
D18*
X197840042Y-72209599D03*
%TD*%
D11*
%TO.C,D45*%
X230750000Y-69400000D03*
X227200000Y-69400000D03*
%TD*%
%TO.C,D26*%
X116450000Y-50350000D03*
X112900000Y-50350000D03*
%TD*%
%TO.C,D50*%
X240275000Y-88450000D03*
X236725000Y-88450000D03*
%TD*%
D13*
%TO.C,SW28*%
X142295000Y-96800000D03*
D14*
X136795000Y-96800000D03*
D12*
X141875000Y-96800000D03*
D13*
X131295000Y-96800000D03*
D12*
X131715000Y-96800000D03*
D16*
X131695000Y-100700000D03*
D15*
X132985000Y-94260000D03*
D17*
X136795000Y-102700000D03*
D15*
X139335000Y-91720000D03*
D18*
X140695042Y-91259599D03*
%TD*%
D14*
%TO.C,SW42*%
X203470000Y-58700000D03*
D13*
X197970000Y-58700000D03*
X208970000Y-58700000D03*
D12*
X198390000Y-58700000D03*
X208550000Y-58700000D03*
D15*
X199660000Y-56160000D03*
D16*
X198370000Y-62600000D03*
D15*
X206010000Y-53620000D03*
D17*
X203470000Y-64600000D03*
D18*
X207370042Y-53159599D03*
%TD*%
D12*
%TO.C,SW11*%
X75200000Y-58700000D03*
D13*
X75620000Y-58700000D03*
X64620000Y-58700000D03*
D12*
X65040000Y-58700000D03*
D14*
X70120000Y-58700000D03*
D16*
X65020000Y-62600000D03*
D15*
X66310000Y-56160000D03*
D18*
X74020042Y-53159599D03*
D15*
X72660000Y-53620000D03*
D17*
X70120000Y-64600000D03*
%TD*%
D13*
%TO.C,SW1*%
X37520000Y-58700000D03*
D12*
X37100000Y-58700000D03*
X26940000Y-58700000D03*
D13*
X26520000Y-58700000D03*
D14*
X32020000Y-58700000D03*
D16*
X26920000Y-62600000D03*
D15*
X28210000Y-56160000D03*
D18*
X35920042Y-53159599D03*
D17*
X32020000Y-64600000D03*
D15*
X34560000Y-53620000D03*
%TD*%
D12*
%TO.C,SW39*%
X188865000Y-96800000D03*
D14*
X193945000Y-96800000D03*
D13*
X199445000Y-96800000D03*
X188445000Y-96800000D03*
D12*
X199025000Y-96800000D03*
D15*
X190135000Y-94260000D03*
D16*
X188845000Y-100700000D03*
D18*
X197845042Y-91259599D03*
D15*
X196485000Y-91720000D03*
D17*
X193945000Y-102700000D03*
%TD*%
D13*
%TO.C,SW51*%
X247070000Y-58700000D03*
D12*
X246650000Y-58700000D03*
X236490000Y-58700000D03*
D14*
X241570000Y-58700000D03*
D13*
X236070000Y-58700000D03*
D16*
X236470000Y-62600000D03*
D15*
X237760000Y-56160000D03*
D18*
X245470042Y-53159599D03*
D17*
X241570000Y-64600000D03*
D15*
X244110000Y-53620000D03*
%TD*%
D11*
%TO.C,D38*%
X178362500Y-126550000D03*
X174812500Y-126550000D03*
%TD*%
%TO.C,D8*%
X68825000Y-88450000D03*
X65275000Y-88450000D03*
%TD*%
%TO.C,D62*%
X278375000Y-107500000D03*
X274825000Y-107500000D03*
%TD*%
D14*
%TO.C,SW54*%
X251095000Y-115850000D03*
D12*
X256175000Y-115850000D03*
D13*
X256595000Y-115850000D03*
X245595000Y-115850000D03*
D12*
X246015000Y-115850000D03*
D15*
X247285000Y-113310000D03*
D16*
X245995000Y-119750000D03*
D15*
X253635000Y-110770000D03*
D17*
X251095000Y-121750000D03*
D18*
X254995042Y-110309599D03*
%TD*%
D11*
%TO.C,D55*%
X259325000Y-69400000D03*
X255775000Y-69400000D03*
%TD*%
D13*
%TO.C,SW52*%
X245590000Y-77750000D03*
X256590000Y-77750000D03*
D14*
X251090000Y-77750000D03*
D12*
X256170000Y-77750000D03*
X246010000Y-77750000D03*
D16*
X245990000Y-81650000D03*
D15*
X247280000Y-75210000D03*
D17*
X251090000Y-83650000D03*
D15*
X253630000Y-72670000D03*
D18*
X254990042Y-72209599D03*
%TD*%
D11*
%TO.C,D12*%
X87875000Y-69400000D03*
X84325000Y-69400000D03*
%TD*%
D13*
%TO.C,SW31*%
X140820000Y-58700000D03*
D14*
X146320000Y-58700000D03*
D12*
X141240000Y-58700000D03*
X151400000Y-58700000D03*
D13*
X151820000Y-58700000D03*
D15*
X142510000Y-56160000D03*
D16*
X141220000Y-62600000D03*
D15*
X148860000Y-53620000D03*
D17*
X146320000Y-64600000D03*
D18*
X150220042Y-53159599D03*
%TD*%
D13*
%TO.C,SW40*%
X199445000Y-115850000D03*
D14*
X193945000Y-115850000D03*
D12*
X188865000Y-115850000D03*
D13*
X188445000Y-115850000D03*
D12*
X199025000Y-115850000D03*
D16*
X188845000Y-119750000D03*
D15*
X190135000Y-113310000D03*
D18*
X197845042Y-110309599D03*
D17*
X193945000Y-121750000D03*
D15*
X196485000Y-110770000D03*
%TD*%
D12*
%TO.C,SW26*%
X132350000Y-58700000D03*
D13*
X132770000Y-58700000D03*
X121770000Y-58700000D03*
D12*
X122190000Y-58700000D03*
D14*
X127270000Y-58700000D03*
D16*
X122170000Y-62600000D03*
D15*
X123460000Y-56160000D03*
X129810000Y-53620000D03*
D17*
X127270000Y-64600000D03*
D18*
X131170042Y-53159599D03*
%TD*%
D11*
%TO.C,D15*%
X85493800Y-126550000D03*
X81943800Y-126550000D03*
%TD*%
%TO.C,D35*%
X211700000Y-69400000D03*
X208150000Y-69400000D03*
%TD*%
%TO.C,D19*%
X106925000Y-107500000D03*
X103375000Y-107500000D03*
%TD*%
%TO.C,D1*%
X40250000Y-50350000D03*
X36700000Y-50350000D03*
%TD*%
%TO.C,D57*%
X259325000Y-107500000D03*
X255775000Y-107500000D03*
%TD*%
%TO.C,D30*%
X149787500Y-126550000D03*
X146237500Y-126550000D03*
%TD*%
D12*
%TO.C,SW29*%
X131715000Y-115850000D03*
D13*
X142295000Y-115850000D03*
D12*
X141875000Y-115850000D03*
D14*
X136795000Y-115850000D03*
D13*
X131295000Y-115850000D03*
D16*
X131695000Y-119750000D03*
D15*
X132985000Y-113310000D03*
X139335000Y-110770000D03*
D18*
X140695042Y-110309599D03*
D17*
X136795000Y-121750000D03*
%TD*%
D11*
%TO.C,D34*%
X192650000Y-50350000D03*
X189100000Y-50350000D03*
%TD*%
%TO.C,D27*%
X125975000Y-69400000D03*
X122425000Y-69400000D03*
%TD*%
D13*
%TO.C,SW57*%
X264640000Y-77750000D03*
D12*
X265060000Y-77750000D03*
X275220000Y-77750000D03*
D14*
X270140000Y-77750000D03*
D13*
X275640000Y-77750000D03*
D15*
X266330000Y-75210000D03*
D16*
X265040000Y-81650000D03*
D15*
X272680000Y-72670000D03*
D17*
X270140000Y-83650000D03*
D18*
X274040042Y-72209599D03*
%TD*%
D12*
%TO.C,SW48*%
X237125000Y-96800000D03*
D14*
X232045000Y-96800000D03*
D13*
X237545000Y-96800000D03*
X226545000Y-96800000D03*
D12*
X226965000Y-96800000D03*
D15*
X228235000Y-94260000D03*
D16*
X226945000Y-100700000D03*
D15*
X234585000Y-91720000D03*
D17*
X232045000Y-102700000D03*
D18*
X235945042Y-91259599D03*
%TD*%
D13*
%TO.C,SW59*%
X264645000Y-115850000D03*
D12*
X275225000Y-115850000D03*
D14*
X270145000Y-115850000D03*
D13*
X275645000Y-115850000D03*
D12*
X265065000Y-115850000D03*
D15*
X266335000Y-113310000D03*
D16*
X265045000Y-119750000D03*
D18*
X274045042Y-110309599D03*
D15*
X272685000Y-110770000D03*
D17*
X270145000Y-121750000D03*
%TD*%
D12*
%TO.C,SW22*%
X122825000Y-77750000D03*
D13*
X112245000Y-77750000D03*
D14*
X117745000Y-77750000D03*
D13*
X123245000Y-77750000D03*
D12*
X112665000Y-77750000D03*
D16*
X112645000Y-81650000D03*
D15*
X113935000Y-75210000D03*
D18*
X121645042Y-72209599D03*
D15*
X120285000Y-72670000D03*
D17*
X117745000Y-83650000D03*
%TD*%
D12*
%TO.C,SW9*%
X65675000Y-115850000D03*
D14*
X60595000Y-115850000D03*
D13*
X66095000Y-115850000D03*
D12*
X55515000Y-115850000D03*
D13*
X55095000Y-115850000D03*
D15*
X56785000Y-113310000D03*
D16*
X55495000Y-119750000D03*
D15*
X63135000Y-110770000D03*
D17*
X60595000Y-121750000D03*
D18*
X64495042Y-110309599D03*
%TD*%
D12*
%TO.C,SW3*%
X41862500Y-96800000D03*
D13*
X42282500Y-96800000D03*
D12*
X31702500Y-96800000D03*
D13*
X31282500Y-96800000D03*
D14*
X36782500Y-96800000D03*
D15*
X32972500Y-94260000D03*
D16*
X31682500Y-100700000D03*
D15*
X39322500Y-91720000D03*
D17*
X36782500Y-102700000D03*
D18*
X40682542Y-91259599D03*
%TD*%
D19*
%TO.C,Ref\u002A\u002A*%
X113745000Y-46250000D03*
%TD*%
D11*
%TO.C,D41*%
X211700000Y-88450000D03*
X208150000Y-88450000D03*
%TD*%
D14*
%TO.C,SW34*%
X174895000Y-96800000D03*
D12*
X179975000Y-96800000D03*
D13*
X180395000Y-96800000D03*
X169395000Y-96800000D03*
D12*
X169815000Y-96800000D03*
D15*
X171085000Y-94260000D03*
D16*
X169795000Y-100700000D03*
D15*
X177435000Y-91720000D03*
D18*
X178795042Y-91259599D03*
D17*
X174895000Y-102700000D03*
%TD*%
D12*
%TO.C,SW7*%
X55510000Y-77750000D03*
D13*
X55090000Y-77750000D03*
X66090000Y-77750000D03*
D12*
X65670000Y-77750000D03*
D14*
X60590000Y-77750000D03*
D16*
X55490000Y-81650000D03*
D15*
X56780000Y-75210000D03*
D17*
X60590000Y-83650000D03*
D15*
X63130000Y-72670000D03*
D18*
X64490042Y-72209599D03*
%TD*%
D12*
%TO.C,SW55*%
X246015000Y-134900000D03*
D13*
X256595000Y-134900000D03*
D12*
X256175000Y-134900000D03*
D13*
X245595000Y-134900000D03*
D14*
X251095000Y-134900000D03*
D15*
X247285000Y-132360000D03*
D16*
X245995000Y-138800000D03*
D18*
X254995042Y-129359599D03*
D15*
X253635000Y-129820000D03*
D17*
X251095000Y-140800000D03*
%TD*%
D13*
%TO.C,SW37*%
X189920000Y-58700000D03*
D12*
X179340000Y-58700000D03*
X189500000Y-58700000D03*
D13*
X178920000Y-58700000D03*
D14*
X184420000Y-58700000D03*
D15*
X180610000Y-56160000D03*
D16*
X179320000Y-62600000D03*
D18*
X188320042Y-53159599D03*
D15*
X186960000Y-53620000D03*
D17*
X184420000Y-64600000D03*
%TD*%
D11*
%TO.C,D51*%
X240275000Y-107500000D03*
X236725000Y-107500000D03*
%TD*%
D20*
%TO.C,U1*%
X276808000Y-51141400D03*
D21*
X274268000Y-51141400D03*
D20*
X271728000Y-51141400D03*
X269188000Y-51141400D03*
X266648000Y-51141400D03*
X264108000Y-51141400D03*
X261568000Y-51141400D03*
X259028000Y-51141400D03*
X256488000Y-51141400D03*
X253948000Y-51141400D03*
X251408000Y-51141400D03*
X248868000Y-51141400D03*
X246328000Y-51141400D03*
X246328000Y-66361400D03*
X248868000Y-66361400D03*
X251408000Y-66361400D03*
X253948000Y-66361400D03*
X256488000Y-66361400D03*
X259028000Y-66361400D03*
X261568000Y-66361400D03*
X264108000Y-66361400D03*
X266648000Y-66361400D03*
X269188000Y-66361400D03*
X271728000Y-66361400D03*
X274268000Y-66361400D03*
X276808000Y-66361400D03*
%TD*%
D19*
%TO.C,Ref\u002A\u002A*%
X188420000Y-46250000D03*
%TD*%
D22*
%TO.C,U3*%
X187675000Y-69280000D03*
D23*
X193975000Y-67000000D03*
D22*
X187675000Y-67000000D03*
X187675000Y-64720000D03*
%TD*%
D24*
%TO.C,J1*%
X188125000Y-88000000D03*
D25*
X188125000Y-86000000D03*
%TD*%
D26*
%TO.C,C4*%
X187687500Y-62130000D03*
X189762500Y-62130000D03*
%TD*%
D27*
%TO.C,C1*%
X256715000Y-86227500D03*
X256715000Y-84152500D03*
%TD*%
D28*
%TO.C,R2*%
X185665000Y-74100000D03*
X185665000Y-81900000D03*
%TD*%
D29*
%TO.C,U2*%
X261945000Y-84240000D03*
X261945000Y-85190000D03*
X261945000Y-86140000D03*
X259245000Y-86140000D03*
X259245000Y-84240000D03*
%TD*%
D28*
%TO.C,R4*%
X230795000Y-54800000D03*
X230795000Y-62600000D03*
%TD*%
%TO.C,R6*%
X210815000Y-86040000D03*
X218615000Y-86040000D03*
%TD*%
%TO.C,R7*%
X226415000Y-86040000D03*
X234215000Y-86040000D03*
%TD*%
D26*
%TO.C,C3*%
X187697500Y-72030000D03*
X189772500Y-72030000D03*
%TD*%
D28*
%TO.C,R5*%
X126000000Y-81900000D03*
X126000000Y-74100000D03*
%TD*%
%TO.C,R3*%
X233285000Y-62600000D03*
X233285000Y-54800000D03*
%TD*%
D30*
%TO.C,SW5*%
X26225000Y-81940000D03*
X26225000Y-73540000D03*
D31*
X26225000Y-79740000D03*
X26225000Y-77740000D03*
X26225000Y-75740000D03*
%TD*%
D27*
%TO.C,C2*%
X264615000Y-86227500D03*
X264615000Y-84152500D03*
%TD*%
D28*
%TO.C,R1*%
X119920000Y-86040000D03*
X112120000Y-86040000D03*
%TD*%
D32*
%TO.C,D53*%
X31892500Y-69400000D03*
X35532500Y-69400000D03*
%TD*%
M02*
