%TF.GenerationSoftware,KiCad,Pcbnew,(6.0.5-0)*%
%TF.CreationDate,2022-06-30T23:43:56+09:00*%
%TF.ProjectId,denpa,64656e70-612e-46b6-9963-61645f706362,1*%
%TF.SameCoordinates,Original*%
%TF.FileFunction,Legend,Bot*%
%TF.FilePolarity,Positive*%
%FSLAX46Y46*%
G04 Gerber Fmt 4.6, Leading zero omitted, Abs format (unit mm)*
G04 Created by KiCad (PCBNEW (6.0.5-0)) date 2022-06-30 23:43:56*
%MOMM*%
%LPD*%
G01*
G04 APERTURE LIST*
%ADD10C,0.150000*%
%ADD11C,0.200000*%
%ADD12C,0.125000*%
%ADD13C,0.120000*%
G04 APERTURE END LIST*
D10*
X89026547Y-45077380D02*
X89026547Y-45791666D01*
X89074166Y-45934523D01*
X89169404Y-46029761D01*
X89312261Y-46077380D01*
X89407500Y-46077380D01*
X88074166Y-46077380D02*
X88550357Y-46077380D01*
X88550357Y-45077380D01*
X87169404Y-45982142D02*
X87217023Y-46029761D01*
X87359880Y-46077380D01*
X87455119Y-46077380D01*
X87597976Y-46029761D01*
X87693214Y-45934523D01*
X87740833Y-45839285D01*
X87788452Y-45648809D01*
X87788452Y-45505952D01*
X87740833Y-45315476D01*
X87693214Y-45220238D01*
X87597976Y-45125000D01*
X87455119Y-45077380D01*
X87359880Y-45077380D01*
X87217023Y-45125000D01*
X87169404Y-45172619D01*
X86455119Y-45077380D02*
X86455119Y-45791666D01*
X86502738Y-45934523D01*
X86597976Y-46029761D01*
X86740833Y-46077380D01*
X86836071Y-46077380D01*
X85502738Y-46077380D02*
X85978928Y-46077380D01*
X85978928Y-45077380D01*
X84597976Y-45982142D02*
X84645595Y-46029761D01*
X84788452Y-46077380D01*
X84883690Y-46077380D01*
X85026547Y-46029761D01*
X85121785Y-45934523D01*
X85169404Y-45839285D01*
X85217023Y-45648809D01*
X85217023Y-45505952D01*
X85169404Y-45315476D01*
X85121785Y-45220238D01*
X85026547Y-45125000D01*
X84883690Y-45077380D01*
X84788452Y-45077380D01*
X84645595Y-45125000D01*
X84597976Y-45172619D01*
X83883690Y-45077380D02*
X83883690Y-45791666D01*
X83931309Y-45934523D01*
X84026547Y-46029761D01*
X84169404Y-46077380D01*
X84264642Y-46077380D01*
X82931309Y-46077380D02*
X83407500Y-46077380D01*
X83407500Y-45077380D01*
X82026547Y-45982142D02*
X82074166Y-46029761D01*
X82217023Y-46077380D01*
X82312261Y-46077380D01*
X82455119Y-46029761D01*
X82550357Y-45934523D01*
X82597976Y-45839285D01*
X82645595Y-45648809D01*
X82645595Y-45505952D01*
X82597976Y-45315476D01*
X82550357Y-45220238D01*
X82455119Y-45125000D01*
X82312261Y-45077380D01*
X82217023Y-45077380D01*
X82074166Y-45125000D01*
X82026547Y-45172619D01*
X81312261Y-45077380D02*
X81312261Y-45791666D01*
X81359880Y-45934523D01*
X81455119Y-46029761D01*
X81597976Y-46077380D01*
X81693214Y-46077380D01*
X80359880Y-46077380D02*
X80836071Y-46077380D01*
X80836071Y-45077380D01*
X79455119Y-45982142D02*
X79502738Y-46029761D01*
X79645595Y-46077380D01*
X79740833Y-46077380D01*
X79883690Y-46029761D01*
X79978928Y-45934523D01*
X80026547Y-45839285D01*
X80074166Y-45648809D01*
X80074166Y-45505952D01*
X80026547Y-45315476D01*
X79978928Y-45220238D01*
X79883690Y-45125000D01*
X79740833Y-45077380D01*
X79645595Y-45077380D01*
X79502738Y-45125000D01*
X79455119Y-45172619D01*
X234685000Y-62500000D02*
X234685000Y-64000000D01*
X229395000Y-64000000D02*
X229395000Y-62500000D01*
X234685000Y-64000000D02*
X229395000Y-64000000D01*
X236754285Y-65477142D02*
X236801904Y-65524761D01*
X236944761Y-65572380D01*
X237040000Y-65572380D01*
X237182857Y-65524761D01*
X237278095Y-65429523D01*
X237325714Y-65334285D01*
X237373333Y-65143809D01*
X237373333Y-65000952D01*
X237325714Y-64810476D01*
X237278095Y-64715238D01*
X237182857Y-64620000D01*
X237040000Y-64572380D01*
X236944761Y-64572380D01*
X236801904Y-64620000D01*
X236754285Y-64667619D01*
X236325714Y-65572380D02*
X236325714Y-64572380D01*
X235897142Y-65572380D02*
X235897142Y-65048571D01*
X235944761Y-64953333D01*
X236040000Y-64905714D01*
X236182857Y-64905714D01*
X236278095Y-64953333D01*
X236325714Y-65000952D01*
X234992380Y-65572380D02*
X234992380Y-65048571D01*
X235040000Y-64953333D01*
X235135238Y-64905714D01*
X235325714Y-64905714D01*
X235420952Y-64953333D01*
X234992380Y-65524761D02*
X235087619Y-65572380D01*
X235325714Y-65572380D01*
X235420952Y-65524761D01*
X235468571Y-65429523D01*
X235468571Y-65334285D01*
X235420952Y-65239047D01*
X235325714Y-65191428D01*
X235087619Y-65191428D01*
X234992380Y-65143809D01*
X234516190Y-65572380D02*
X234516190Y-64905714D01*
X234516190Y-65096190D02*
X234468571Y-65000952D01*
X234420952Y-64953333D01*
X234325714Y-64905714D01*
X234230476Y-64905714D01*
X233468571Y-64905714D02*
X233468571Y-65715238D01*
X233516190Y-65810476D01*
X233563809Y-65858095D01*
X233659047Y-65905714D01*
X233801904Y-65905714D01*
X233897142Y-65858095D01*
X233468571Y-65524761D02*
X233563809Y-65572380D01*
X233754285Y-65572380D01*
X233849523Y-65524761D01*
X233897142Y-65477142D01*
X233944761Y-65381904D01*
X233944761Y-65096190D01*
X233897142Y-65000952D01*
X233849523Y-64953333D01*
X233754285Y-64905714D01*
X233563809Y-64905714D01*
X233468571Y-64953333D01*
X232611428Y-65524761D02*
X232706666Y-65572380D01*
X232897142Y-65572380D01*
X232992380Y-65524761D01*
X233040000Y-65429523D01*
X233040000Y-65048571D01*
X232992380Y-64953333D01*
X232897142Y-64905714D01*
X232706666Y-64905714D01*
X232611428Y-64953333D01*
X232563809Y-65048571D01*
X232563809Y-65143809D01*
X233040000Y-65239047D01*
X231420952Y-65524761D02*
X231325714Y-65572380D01*
X231135238Y-65572380D01*
X231040000Y-65524761D01*
X230992380Y-65429523D01*
X230992380Y-65381904D01*
X231040000Y-65286666D01*
X231135238Y-65239047D01*
X231278095Y-65239047D01*
X231373333Y-65191428D01*
X231420952Y-65096190D01*
X231420952Y-65048571D01*
X231373333Y-64953333D01*
X231278095Y-64905714D01*
X231135238Y-64905714D01*
X231040000Y-64953333D01*
X230182857Y-65524761D02*
X230278095Y-65572380D01*
X230468571Y-65572380D01*
X230563809Y-65524761D01*
X230611428Y-65429523D01*
X230611428Y-65048571D01*
X230563809Y-64953333D01*
X230468571Y-64905714D01*
X230278095Y-64905714D01*
X230182857Y-64953333D01*
X230135238Y-65048571D01*
X230135238Y-65143809D01*
X230611428Y-65239047D01*
X229849523Y-64905714D02*
X229468571Y-64905714D01*
X229706666Y-64572380D02*
X229706666Y-65429523D01*
X229659047Y-65524761D01*
X229563809Y-65572380D01*
X229468571Y-65572380D01*
X229278095Y-64905714D02*
X228897142Y-64905714D01*
X229135238Y-64572380D02*
X229135238Y-65429523D01*
X229087619Y-65524761D01*
X228992380Y-65572380D01*
X228897142Y-65572380D01*
X228563809Y-65572380D02*
X228563809Y-64905714D01*
X228563809Y-64572380D02*
X228611428Y-64620000D01*
X228563809Y-64667619D01*
X228516190Y-64620000D01*
X228563809Y-64572380D01*
X228563809Y-64667619D01*
X228087619Y-64905714D02*
X228087619Y-65572380D01*
X228087619Y-65000952D02*
X228040000Y-64953333D01*
X227944761Y-64905714D01*
X227801904Y-64905714D01*
X227706666Y-64953333D01*
X227659047Y-65048571D01*
X227659047Y-65572380D01*
X226754285Y-64905714D02*
X226754285Y-65715238D01*
X226801904Y-65810476D01*
X226849523Y-65858095D01*
X226944761Y-65905714D01*
X227087619Y-65905714D01*
X227182857Y-65858095D01*
X226754285Y-65524761D02*
X226849523Y-65572380D01*
X227040000Y-65572380D01*
X227135238Y-65524761D01*
X227182857Y-65477142D01*
X227230476Y-65381904D01*
X227230476Y-65096190D01*
X227182857Y-65000952D01*
X227135238Y-64953333D01*
X227040000Y-64905714D01*
X226849523Y-64905714D01*
X226754285Y-64953333D01*
D11*
X106762857Y-142952857D02*
X107334285Y-142952857D01*
X107391428Y-143524285D01*
X107334285Y-143467142D01*
X107220000Y-143410000D01*
X106934285Y-143410000D01*
X106820000Y-143467142D01*
X106762857Y-143524285D01*
X106705714Y-143638571D01*
X106705714Y-143924285D01*
X106762857Y-144038571D01*
X106820000Y-144095714D01*
X106934285Y-144152857D01*
X107220000Y-144152857D01*
X107334285Y-144095714D01*
X107391428Y-144038571D01*
X106305714Y-142952857D02*
X105505714Y-142952857D01*
X106020000Y-144152857D01*
X105048571Y-144152857D02*
X105048571Y-142952857D01*
X104934285Y-143695714D02*
X104591428Y-144152857D01*
X104591428Y-143352857D02*
X105048571Y-143810000D01*
X103620000Y-144095714D02*
X103734285Y-144152857D01*
X103962857Y-144152857D01*
X104077142Y-144095714D01*
X104134285Y-143981428D01*
X104134285Y-143524285D01*
X104077142Y-143410000D01*
X103962857Y-143352857D01*
X103734285Y-143352857D01*
X103620000Y-143410000D01*
X103562857Y-143524285D01*
X103562857Y-143638571D01*
X104134285Y-143752857D01*
X103162857Y-143352857D02*
X102877142Y-144152857D01*
X102591428Y-143352857D02*
X102877142Y-144152857D01*
X102991428Y-144438571D01*
X103048571Y-144495714D01*
X103162857Y-144552857D01*
X102191428Y-144095714D02*
X102077142Y-144152857D01*
X101848571Y-144152857D01*
X101734285Y-144095714D01*
X101677142Y-143981428D01*
X101677142Y-143924285D01*
X101734285Y-143810000D01*
X101848571Y-143752857D01*
X102020000Y-143752857D01*
X102134285Y-143695714D01*
X102191428Y-143581428D01*
X102191428Y-143524285D01*
X102134285Y-143410000D01*
X102020000Y-143352857D01*
X101848571Y-143352857D01*
X101734285Y-143410000D01*
X99962857Y-144552857D02*
X99962857Y-142838571D01*
X97962857Y-142952857D02*
X97734285Y-142952857D01*
X97620000Y-143010000D01*
X97505714Y-143124285D01*
X97448571Y-143352857D01*
X97448571Y-143752857D01*
X97505714Y-143981428D01*
X97620000Y-144095714D01*
X97734285Y-144152857D01*
X97962857Y-144152857D01*
X98077142Y-144095714D01*
X98191428Y-143981428D01*
X98248571Y-143752857D01*
X98248571Y-143352857D01*
X98191428Y-143124285D01*
X98077142Y-143010000D01*
X97962857Y-142952857D01*
X96934285Y-144152857D02*
X96934285Y-143352857D01*
X96934285Y-143581428D02*
X96877142Y-143467142D01*
X96820000Y-143410000D01*
X96705714Y-143352857D01*
X96591428Y-143352857D01*
X96362857Y-143352857D02*
X95905714Y-143352857D01*
X96191428Y-142952857D02*
X96191428Y-143981428D01*
X96134285Y-144095714D01*
X96020000Y-144152857D01*
X95905714Y-144152857D01*
X95505714Y-144152857D02*
X95505714Y-142952857D01*
X94991428Y-144152857D02*
X94991428Y-143524285D01*
X95048571Y-143410000D01*
X95162857Y-143352857D01*
X95334285Y-143352857D01*
X95448571Y-143410000D01*
X95505714Y-143467142D01*
X94248571Y-144152857D02*
X94362857Y-144095714D01*
X94420000Y-144038571D01*
X94477142Y-143924285D01*
X94477142Y-143581428D01*
X94420000Y-143467142D01*
X94362857Y-143410000D01*
X94248571Y-143352857D01*
X94077142Y-143352857D01*
X93962857Y-143410000D01*
X93905714Y-143467142D01*
X93848571Y-143581428D01*
X93848571Y-143924285D01*
X93905714Y-144038571D01*
X93962857Y-144095714D01*
X94077142Y-144152857D01*
X94248571Y-144152857D01*
X93162857Y-144152857D02*
X93277142Y-144095714D01*
X93334285Y-143981428D01*
X93334285Y-142952857D01*
X92705714Y-144152857D02*
X92705714Y-143352857D01*
X92705714Y-142952857D02*
X92762857Y-143010000D01*
X92705714Y-143067142D01*
X92648571Y-143010000D01*
X92705714Y-142952857D01*
X92705714Y-143067142D01*
X92134285Y-143352857D02*
X92134285Y-144152857D01*
X92134285Y-143467142D02*
X92077142Y-143410000D01*
X91962857Y-143352857D01*
X91791428Y-143352857D01*
X91677142Y-143410000D01*
X91620000Y-143524285D01*
X91620000Y-144152857D01*
X90591428Y-144095714D02*
X90705714Y-144152857D01*
X90934285Y-144152857D01*
X91048571Y-144095714D01*
X91105714Y-143981428D01*
X91105714Y-143524285D01*
X91048571Y-143410000D01*
X90934285Y-143352857D01*
X90705714Y-143352857D01*
X90591428Y-143410000D01*
X90534285Y-143524285D01*
X90534285Y-143638571D01*
X91105714Y-143752857D01*
X89505714Y-144152857D02*
X89505714Y-143524285D01*
X89562857Y-143410000D01*
X89677142Y-143352857D01*
X89905714Y-143352857D01*
X90020000Y-143410000D01*
X89505714Y-144095714D02*
X89620000Y-144152857D01*
X89905714Y-144152857D01*
X90020000Y-144095714D01*
X90077142Y-143981428D01*
X90077142Y-143867142D01*
X90020000Y-143752857D01*
X89905714Y-143695714D01*
X89620000Y-143695714D01*
X89505714Y-143638571D01*
X88934285Y-144152857D02*
X88934285Y-143352857D01*
X88934285Y-143581428D02*
X88877142Y-143467142D01*
X88820000Y-143410000D01*
X88705714Y-143352857D01*
X88591428Y-143352857D01*
X86991428Y-144552857D02*
X86991428Y-142838571D01*
X84820000Y-143524285D02*
X84648571Y-143581428D01*
X84591428Y-143638571D01*
X84534285Y-143752857D01*
X84534285Y-143924285D01*
X84591428Y-144038571D01*
X84648571Y-144095714D01*
X84762857Y-144152857D01*
X85220000Y-144152857D01*
X85220000Y-142952857D01*
X84820000Y-142952857D01*
X84705714Y-143010000D01*
X84648571Y-143067142D01*
X84591428Y-143181428D01*
X84591428Y-143295714D01*
X84648571Y-143410000D01*
X84705714Y-143467142D01*
X84820000Y-143524285D01*
X85220000Y-143524285D01*
X83448571Y-144152857D02*
X84020000Y-144152857D01*
X84020000Y-142952857D01*
X83048571Y-143524285D02*
X82648571Y-143524285D01*
X82477142Y-144152857D02*
X83048571Y-144152857D01*
X83048571Y-142952857D01*
X82477142Y-142952857D01*
X81105714Y-142895714D02*
X82134285Y-144438571D01*
X80705714Y-142952857D02*
X80705714Y-143924285D01*
X80648571Y-144038571D01*
X80591428Y-144095714D01*
X80477142Y-144152857D01*
X80248571Y-144152857D01*
X80134285Y-144095714D01*
X80077142Y-144038571D01*
X80020000Y-143924285D01*
X80020000Y-142952857D01*
X79505714Y-144095714D02*
X79334285Y-144152857D01*
X79048571Y-144152857D01*
X78934285Y-144095714D01*
X78877142Y-144038571D01*
X78820000Y-143924285D01*
X78820000Y-143810000D01*
X78877142Y-143695714D01*
X78934285Y-143638571D01*
X79048571Y-143581428D01*
X79277142Y-143524285D01*
X79391428Y-143467142D01*
X79448571Y-143410000D01*
X79505714Y-143295714D01*
X79505714Y-143181428D01*
X79448571Y-143067142D01*
X79391428Y-143010000D01*
X79277142Y-142952857D01*
X78991428Y-142952857D01*
X78820000Y-143010000D01*
X77905714Y-143524285D02*
X77734285Y-143581428D01*
X77677142Y-143638571D01*
X77620000Y-143752857D01*
X77620000Y-143924285D01*
X77677142Y-144038571D01*
X77734285Y-144095714D01*
X77848571Y-144152857D01*
X78305714Y-144152857D01*
X78305714Y-142952857D01*
X77905714Y-142952857D01*
X77791428Y-143010000D01*
X77734285Y-143067142D01*
X77677142Y-143181428D01*
X77677142Y-143295714D01*
X77734285Y-143410000D01*
X77791428Y-143467142D01*
X77905714Y-143524285D01*
X78305714Y-143524285D01*
X77105714Y-143695714D02*
X76191428Y-143695714D01*
X74934285Y-144038571D02*
X74991428Y-144095714D01*
X75162857Y-144152857D01*
X75277142Y-144152857D01*
X75448571Y-144095714D01*
X75562857Y-143981428D01*
X75620000Y-143867142D01*
X75677142Y-143638571D01*
X75677142Y-143467142D01*
X75620000Y-143238571D01*
X75562857Y-143124285D01*
X75448571Y-143010000D01*
X75277142Y-142952857D01*
X75162857Y-142952857D01*
X74991428Y-143010000D01*
X74934285Y-143067142D01*
X73220000Y-144552857D02*
X73220000Y-142838571D01*
X70762857Y-144038571D02*
X70820000Y-144095714D01*
X70991428Y-144152857D01*
X71105714Y-144152857D01*
X71277142Y-144095714D01*
X71391428Y-143981428D01*
X71448571Y-143867142D01*
X71505714Y-143638571D01*
X71505714Y-143467142D01*
X71448571Y-143238571D01*
X71391428Y-143124285D01*
X71277142Y-143010000D01*
X71105714Y-142952857D01*
X70991428Y-142952857D01*
X70820000Y-143010000D01*
X70762857Y-143067142D01*
X70248571Y-144152857D02*
X70248571Y-142952857D01*
X69734285Y-144152857D02*
X69734285Y-143524285D01*
X69791428Y-143410000D01*
X69905714Y-143352857D01*
X70077142Y-143352857D01*
X70191428Y-143410000D01*
X70248571Y-143467142D01*
X68991428Y-144152857D02*
X69105714Y-144095714D01*
X69162857Y-144038571D01*
X69220000Y-143924285D01*
X69220000Y-143581428D01*
X69162857Y-143467142D01*
X69105714Y-143410000D01*
X68991428Y-143352857D01*
X68820000Y-143352857D01*
X68705714Y-143410000D01*
X68648571Y-143467142D01*
X68591428Y-143581428D01*
X68591428Y-143924285D01*
X68648571Y-144038571D01*
X68705714Y-144095714D01*
X68820000Y-144152857D01*
X68991428Y-144152857D01*
X67562857Y-144095714D02*
X67677142Y-144152857D01*
X67905714Y-144152857D01*
X68020000Y-144095714D01*
X68077142Y-144038571D01*
X68134285Y-143924285D01*
X68134285Y-143581428D01*
X68077142Y-143467142D01*
X68020000Y-143410000D01*
X67905714Y-143352857D01*
X67677142Y-143352857D01*
X67562857Y-143410000D01*
X66248571Y-143352857D02*
X65962857Y-144152857D01*
X65677142Y-143352857D01*
X65277142Y-143067142D02*
X65220000Y-143010000D01*
X65105714Y-142952857D01*
X64820000Y-142952857D01*
X64705714Y-143010000D01*
X64648571Y-143067142D01*
X64591428Y-143181428D01*
X64591428Y-143295714D01*
X64648571Y-143467142D01*
X65334285Y-144152857D01*
X64591428Y-144152857D01*
X63220000Y-142895714D02*
X64248571Y-144438571D01*
X62820000Y-144152857D02*
X62820000Y-142952857D01*
X62420000Y-143810000D01*
X62020000Y-142952857D01*
X62020000Y-144152857D01*
X61562857Y-142952857D02*
X60762857Y-144152857D01*
X60762857Y-142952857D02*
X61562857Y-144152857D01*
D12*
%TO.C,U1*%
X245988714Y-64509226D02*
X246738714Y-64509226D01*
X246738714Y-64253988D01*
X246703000Y-64190178D01*
X246667285Y-64158273D01*
X246595857Y-64126369D01*
X246488714Y-64126369D01*
X246417285Y-64158273D01*
X246381571Y-64190178D01*
X246345857Y-64253988D01*
X246345857Y-64509226D01*
X245988714Y-63839226D02*
X246738714Y-63839226D01*
X245988714Y-63520178D02*
X246738714Y-63520178D01*
X245988714Y-63137321D01*
X246738714Y-63137321D01*
X245988714Y-62467321D02*
X245988714Y-62850178D01*
X245988714Y-62658750D02*
X246738714Y-62658750D01*
X246631571Y-62722559D01*
X246560142Y-62786369D01*
X246524428Y-62850178D01*
X246738714Y-62243988D02*
X246738714Y-61829226D01*
X246453000Y-62052559D01*
X246453000Y-61956845D01*
X246417285Y-61893035D01*
X246381571Y-61861130D01*
X246310142Y-61829226D01*
X246131571Y-61829226D01*
X246060142Y-61861130D01*
X246024428Y-61893035D01*
X245988714Y-61956845D01*
X245988714Y-62148273D01*
X246024428Y-62212083D01*
X246060142Y-62243988D01*
X256148714Y-55000773D02*
X256898714Y-55000773D01*
X256898714Y-54745535D01*
X256863000Y-54681726D01*
X256827285Y-54649821D01*
X256755857Y-54617916D01*
X256648714Y-54617916D01*
X256577285Y-54649821D01*
X256541571Y-54681726D01*
X256505857Y-54745535D01*
X256505857Y-55000773D01*
X256148714Y-54330773D02*
X256898714Y-54330773D01*
X256148714Y-54011726D02*
X256898714Y-54011726D01*
X256148714Y-53628869D01*
X256898714Y-53628869D01*
X256577285Y-53214107D02*
X256613000Y-53277916D01*
X256648714Y-53309821D01*
X256720142Y-53341726D01*
X256755857Y-53341726D01*
X256827285Y-53309821D01*
X256863000Y-53277916D01*
X256898714Y-53214107D01*
X256898714Y-53086488D01*
X256863000Y-53022678D01*
X256827285Y-52990773D01*
X256755857Y-52958869D01*
X256720142Y-52958869D01*
X256648714Y-52990773D01*
X256613000Y-53022678D01*
X256577285Y-53086488D01*
X256577285Y-53214107D01*
X256541571Y-53277916D01*
X256505857Y-53309821D01*
X256434428Y-53341726D01*
X256291571Y-53341726D01*
X256220142Y-53309821D01*
X256184428Y-53277916D01*
X256148714Y-53214107D01*
X256148714Y-53086488D01*
X256184428Y-53022678D01*
X256220142Y-52990773D01*
X256291571Y-52958869D01*
X256434428Y-52958869D01*
X256505857Y-52990773D01*
X256541571Y-53022678D01*
X256577285Y-53086488D01*
X256148714Y-64509226D02*
X256898714Y-64509226D01*
X256898714Y-64253988D01*
X256863000Y-64190178D01*
X256827285Y-64158273D01*
X256755857Y-64126369D01*
X256648714Y-64126369D01*
X256577285Y-64158273D01*
X256541571Y-64190178D01*
X256505857Y-64253988D01*
X256505857Y-64509226D01*
X256148714Y-63839226D02*
X256898714Y-63839226D01*
X256148714Y-63520178D02*
X256898714Y-63520178D01*
X256148714Y-63137321D01*
X256898714Y-63137321D01*
X256148714Y-62467321D02*
X256148714Y-62850178D01*
X256148714Y-62658750D02*
X256898714Y-62658750D01*
X256791571Y-62722559D01*
X256720142Y-62786369D01*
X256684428Y-62850178D01*
X256898714Y-62243988D02*
X256898714Y-61797321D01*
X256148714Y-62084464D01*
X276861571Y-64285892D02*
X276825857Y-64190178D01*
X276790142Y-64158273D01*
X276718714Y-64126369D01*
X276611571Y-64126369D01*
X276540142Y-64158273D01*
X276504428Y-64190178D01*
X276468714Y-64253988D01*
X276468714Y-64509226D01*
X277218714Y-64509226D01*
X277218714Y-64285892D01*
X277183000Y-64222083D01*
X277147285Y-64190178D01*
X277075857Y-64158273D01*
X277004428Y-64158273D01*
X276933000Y-64190178D01*
X276897285Y-64222083D01*
X276861571Y-64285892D01*
X276861571Y-64509226D01*
X276683000Y-63871130D02*
X276683000Y-63552083D01*
X276468714Y-63934940D02*
X277218714Y-63711607D01*
X276468714Y-63488273D01*
X277218714Y-63360654D02*
X277218714Y-62977797D01*
X276468714Y-63169226D02*
X277218714Y-63169226D01*
X248528714Y-64509226D02*
X249278714Y-64509226D01*
X249278714Y-64253988D01*
X249243000Y-64190178D01*
X249207285Y-64158273D01*
X249135857Y-64126369D01*
X249028714Y-64126369D01*
X248957285Y-64158273D01*
X248921571Y-64190178D01*
X248885857Y-64253988D01*
X248885857Y-64509226D01*
X248528714Y-63839226D02*
X249278714Y-63839226D01*
X248528714Y-63520178D02*
X249278714Y-63520178D01*
X248528714Y-63137321D01*
X249278714Y-63137321D01*
X248528714Y-62467321D02*
X248528714Y-62850178D01*
X248528714Y-62658750D02*
X249278714Y-62658750D01*
X249171571Y-62722559D01*
X249100142Y-62786369D01*
X249064428Y-62850178D01*
X249028714Y-61893035D02*
X248528714Y-61893035D01*
X249314428Y-62052559D02*
X248778714Y-62212083D01*
X248778714Y-61797321D01*
X272103000Y-64158273D02*
X272138714Y-64222083D01*
X272138714Y-64317797D01*
X272103000Y-64413511D01*
X272031571Y-64477321D01*
X271960142Y-64509226D01*
X271817285Y-64541130D01*
X271710142Y-64541130D01*
X271567285Y-64509226D01*
X271495857Y-64477321D01*
X271424428Y-64413511D01*
X271388714Y-64317797D01*
X271388714Y-64253988D01*
X271424428Y-64158273D01*
X271460142Y-64126369D01*
X271710142Y-64126369D01*
X271710142Y-64253988D01*
X271388714Y-63839226D02*
X272138714Y-63839226D01*
X271388714Y-63456369D01*
X272138714Y-63456369D01*
X271388714Y-63137321D02*
X272138714Y-63137321D01*
X272138714Y-62977797D01*
X272103000Y-62882083D01*
X272031571Y-62818273D01*
X271960142Y-62786369D01*
X271817285Y-62754464D01*
X271710142Y-62754464D01*
X271567285Y-62786369D01*
X271495857Y-62818273D01*
X271424428Y-62882083D01*
X271388714Y-62977797D01*
X271388714Y-63137321D01*
X258688714Y-55000773D02*
X259438714Y-55000773D01*
X259438714Y-54745535D01*
X259403000Y-54681726D01*
X259367285Y-54649821D01*
X259295857Y-54617916D01*
X259188714Y-54617916D01*
X259117285Y-54649821D01*
X259081571Y-54681726D01*
X259045857Y-54745535D01*
X259045857Y-55000773D01*
X258688714Y-54330773D02*
X259438714Y-54330773D01*
X258688714Y-54011726D02*
X259438714Y-54011726D01*
X258688714Y-53628869D01*
X259438714Y-53628869D01*
X259438714Y-53373630D02*
X259438714Y-52926964D01*
X258688714Y-53214107D01*
X253608714Y-55000773D02*
X254358714Y-55000773D01*
X254358714Y-54745535D01*
X254323000Y-54681726D01*
X254287285Y-54649821D01*
X254215857Y-54617916D01*
X254108714Y-54617916D01*
X254037285Y-54649821D01*
X254001571Y-54681726D01*
X253965857Y-54745535D01*
X253965857Y-55000773D01*
X253608714Y-54330773D02*
X254358714Y-54330773D01*
X253608714Y-54011726D02*
X254358714Y-54011726D01*
X253608714Y-53628869D01*
X254358714Y-53628869D01*
X253608714Y-53277916D02*
X253608714Y-53150297D01*
X253644428Y-53086488D01*
X253680142Y-53054583D01*
X253787285Y-52990773D01*
X253930142Y-52958869D01*
X254215857Y-52958869D01*
X254287285Y-52990773D01*
X254323000Y-53022678D01*
X254358714Y-53086488D01*
X254358714Y-53214107D01*
X254323000Y-53277916D01*
X254287285Y-53309821D01*
X254215857Y-53341726D01*
X254037285Y-53341726D01*
X253965857Y-53309821D01*
X253930142Y-53277916D01*
X253894428Y-53214107D01*
X253894428Y-53086488D01*
X253930142Y-53022678D01*
X253965857Y-52990773D01*
X254037285Y-52958869D01*
X263768714Y-55000773D02*
X264518714Y-55000773D01*
X264518714Y-54745535D01*
X264483000Y-54681726D01*
X264447285Y-54649821D01*
X264375857Y-54617916D01*
X264268714Y-54617916D01*
X264197285Y-54649821D01*
X264161571Y-54681726D01*
X264125857Y-54745535D01*
X264125857Y-55000773D01*
X263768714Y-54330773D02*
X264518714Y-54330773D01*
X263768714Y-54011726D02*
X264518714Y-54011726D01*
X263768714Y-53628869D01*
X264518714Y-53628869D01*
X264518714Y-52990773D02*
X264518714Y-53309821D01*
X264161571Y-53341726D01*
X264197285Y-53309821D01*
X264233000Y-53246011D01*
X264233000Y-53086488D01*
X264197285Y-53022678D01*
X264161571Y-52990773D01*
X264090142Y-52958869D01*
X263911571Y-52958869D01*
X263840142Y-52990773D01*
X263804428Y-53022678D01*
X263768714Y-53086488D01*
X263768714Y-53246011D01*
X263804428Y-53309821D01*
X263840142Y-53341726D01*
X248528714Y-55638869D02*
X249278714Y-55638869D01*
X249278714Y-55383630D01*
X249243000Y-55319821D01*
X249207285Y-55287916D01*
X249135857Y-55256011D01*
X249028714Y-55256011D01*
X248957285Y-55287916D01*
X248921571Y-55319821D01*
X248885857Y-55383630D01*
X248885857Y-55638869D01*
X248528714Y-54968869D02*
X249278714Y-54968869D01*
X248528714Y-54649821D02*
X249278714Y-54649821D01*
X248528714Y-54266964D01*
X249278714Y-54266964D01*
X248528714Y-53596964D02*
X248528714Y-53979821D01*
X248528714Y-53788392D02*
X249278714Y-53788392D01*
X249171571Y-53852202D01*
X249100142Y-53916011D01*
X249064428Y-53979821D01*
X248528714Y-52958869D02*
X248528714Y-53341726D01*
X248528714Y-53150297D02*
X249278714Y-53150297D01*
X249171571Y-53214107D01*
X249100142Y-53277916D01*
X249064428Y-53341726D01*
X273928714Y-55000773D02*
X274678714Y-55000773D01*
X274678714Y-54745535D01*
X274643000Y-54681726D01*
X274607285Y-54649821D01*
X274535857Y-54617916D01*
X274428714Y-54617916D01*
X274357285Y-54649821D01*
X274321571Y-54681726D01*
X274285857Y-54745535D01*
X274285857Y-55000773D01*
X273928714Y-54330773D02*
X274678714Y-54330773D01*
X273928714Y-54011726D02*
X274678714Y-54011726D01*
X273928714Y-53628869D01*
X274678714Y-53628869D01*
X273928714Y-52958869D02*
X273928714Y-53341726D01*
X273928714Y-53150297D02*
X274678714Y-53150297D01*
X274571571Y-53214107D01*
X274500142Y-53277916D01*
X274464428Y-53341726D01*
X251068714Y-64509226D02*
X251818714Y-64509226D01*
X251818714Y-64253988D01*
X251783000Y-64190178D01*
X251747285Y-64158273D01*
X251675857Y-64126369D01*
X251568714Y-64126369D01*
X251497285Y-64158273D01*
X251461571Y-64190178D01*
X251425857Y-64253988D01*
X251425857Y-64509226D01*
X251068714Y-63839226D02*
X251818714Y-63839226D01*
X251068714Y-63520178D02*
X251818714Y-63520178D01*
X251068714Y-63137321D01*
X251818714Y-63137321D01*
X251068714Y-62467321D02*
X251068714Y-62850178D01*
X251068714Y-62658750D02*
X251818714Y-62658750D01*
X251711571Y-62722559D01*
X251640142Y-62786369D01*
X251604428Y-62850178D01*
X251818714Y-61861130D02*
X251818714Y-62180178D01*
X251461571Y-62212083D01*
X251497285Y-62180178D01*
X251533000Y-62116369D01*
X251533000Y-61956845D01*
X251497285Y-61893035D01*
X251461571Y-61861130D01*
X251390142Y-61829226D01*
X251211571Y-61829226D01*
X251140142Y-61861130D01*
X251104428Y-61893035D01*
X251068714Y-61956845D01*
X251068714Y-62116369D01*
X251104428Y-62180178D01*
X251140142Y-62212083D01*
X253608714Y-64509226D02*
X254358714Y-64509226D01*
X254358714Y-64253988D01*
X254323000Y-64190178D01*
X254287285Y-64158273D01*
X254215857Y-64126369D01*
X254108714Y-64126369D01*
X254037285Y-64158273D01*
X254001571Y-64190178D01*
X253965857Y-64253988D01*
X253965857Y-64509226D01*
X253608714Y-63839226D02*
X254358714Y-63839226D01*
X253608714Y-63520178D02*
X254358714Y-63520178D01*
X253608714Y-63137321D01*
X254358714Y-63137321D01*
X253608714Y-62467321D02*
X253608714Y-62850178D01*
X253608714Y-62658750D02*
X254358714Y-62658750D01*
X254251571Y-62722559D01*
X254180142Y-62786369D01*
X254144428Y-62850178D01*
X254358714Y-61893035D02*
X254358714Y-62020654D01*
X254323000Y-62084464D01*
X254287285Y-62116369D01*
X254180142Y-62180178D01*
X254037285Y-62212083D01*
X253751571Y-62212083D01*
X253680142Y-62180178D01*
X253644428Y-62148273D01*
X253608714Y-62084464D01*
X253608714Y-61956845D01*
X253644428Y-61893035D01*
X253680142Y-61861130D01*
X253751571Y-61829226D01*
X253930142Y-61829226D01*
X254001571Y-61861130D01*
X254037285Y-61893035D01*
X254073000Y-61956845D01*
X254073000Y-62084464D01*
X254037285Y-62148273D01*
X254001571Y-62180178D01*
X253930142Y-62212083D01*
X274678714Y-64190178D02*
X274678714Y-64509226D01*
X274321571Y-64541130D01*
X274357285Y-64509226D01*
X274393000Y-64445416D01*
X274393000Y-64285892D01*
X274357285Y-64222083D01*
X274321571Y-64190178D01*
X274250142Y-64158273D01*
X274071571Y-64158273D01*
X274000142Y-64190178D01*
X273964428Y-64222083D01*
X273928714Y-64285892D01*
X273928714Y-64445416D01*
X273964428Y-64509226D01*
X274000142Y-64541130D01*
X274678714Y-63966845D02*
X273928714Y-63743511D01*
X274678714Y-63520178D01*
X268848714Y-64126369D02*
X269205857Y-64349702D01*
X268848714Y-64509226D02*
X269598714Y-64509226D01*
X269598714Y-64253988D01*
X269563000Y-64190178D01*
X269527285Y-64158273D01*
X269455857Y-64126369D01*
X269348714Y-64126369D01*
X269277285Y-64158273D01*
X269241571Y-64190178D01*
X269205857Y-64253988D01*
X269205857Y-64509226D01*
X268884428Y-63871130D02*
X268848714Y-63775416D01*
X268848714Y-63615892D01*
X268884428Y-63552083D01*
X268920142Y-63520178D01*
X268991571Y-63488273D01*
X269063000Y-63488273D01*
X269134428Y-63520178D01*
X269170142Y-63552083D01*
X269205857Y-63615892D01*
X269241571Y-63743511D01*
X269277285Y-63807321D01*
X269313000Y-63839226D01*
X269384428Y-63871130D01*
X269455857Y-63871130D01*
X269527285Y-63839226D01*
X269563000Y-63807321D01*
X269598714Y-63743511D01*
X269598714Y-63583988D01*
X269563000Y-63488273D01*
X269598714Y-63296845D02*
X269598714Y-62913988D01*
X268848714Y-63105416D02*
X269598714Y-63105416D01*
X277183000Y-54362678D02*
X277218714Y-54426488D01*
X277218714Y-54522202D01*
X277183000Y-54617916D01*
X277111571Y-54681726D01*
X277040142Y-54713630D01*
X276897285Y-54745535D01*
X276790142Y-54745535D01*
X276647285Y-54713630D01*
X276575857Y-54681726D01*
X276504428Y-54617916D01*
X276468714Y-54522202D01*
X276468714Y-54458392D01*
X276504428Y-54362678D01*
X276540142Y-54330773D01*
X276790142Y-54330773D01*
X276790142Y-54458392D01*
X276468714Y-54043630D02*
X277218714Y-54043630D01*
X276468714Y-53660773D01*
X277218714Y-53660773D01*
X276468714Y-53341726D02*
X277218714Y-53341726D01*
X277218714Y-53182202D01*
X277183000Y-53086488D01*
X277111571Y-53022678D01*
X277040142Y-52990773D01*
X276897285Y-52958869D01*
X276790142Y-52958869D01*
X276647285Y-52990773D01*
X276575857Y-53022678D01*
X276504428Y-53086488D01*
X276468714Y-53182202D01*
X276468714Y-53341726D01*
X251068714Y-55638869D02*
X251818714Y-55638869D01*
X251818714Y-55383630D01*
X251783000Y-55319821D01*
X251747285Y-55287916D01*
X251675857Y-55256011D01*
X251568714Y-55256011D01*
X251497285Y-55287916D01*
X251461571Y-55319821D01*
X251425857Y-55383630D01*
X251425857Y-55638869D01*
X251068714Y-54968869D02*
X251818714Y-54968869D01*
X251068714Y-54649821D02*
X251818714Y-54649821D01*
X251068714Y-54266964D01*
X251818714Y-54266964D01*
X251068714Y-53596964D02*
X251068714Y-53979821D01*
X251068714Y-53788392D02*
X251818714Y-53788392D01*
X251711571Y-53852202D01*
X251640142Y-53916011D01*
X251604428Y-53979821D01*
X251818714Y-53182202D02*
X251818714Y-53118392D01*
X251783000Y-53054583D01*
X251747285Y-53022678D01*
X251675857Y-52990773D01*
X251533000Y-52958869D01*
X251354428Y-52958869D01*
X251211571Y-52990773D01*
X251140142Y-53022678D01*
X251104428Y-53054583D01*
X251068714Y-53118392D01*
X251068714Y-53182202D01*
X251104428Y-53246011D01*
X251140142Y-53277916D01*
X251211571Y-53309821D01*
X251354428Y-53341726D01*
X251533000Y-53341726D01*
X251675857Y-53309821D01*
X251747285Y-53277916D01*
X251783000Y-53246011D01*
X251818714Y-53182202D01*
D10*
%TO.C,U3*%
X192636904Y-70952380D02*
X192636904Y-71761904D01*
X192589285Y-71857142D01*
X192541666Y-71904761D01*
X192446428Y-71952380D01*
X192255952Y-71952380D01*
X192160714Y-71904761D01*
X192113095Y-71857142D01*
X192065476Y-71761904D01*
X192065476Y-70952380D01*
X191684523Y-70952380D02*
X191065476Y-70952380D01*
X191398809Y-71333333D01*
X191255952Y-71333333D01*
X191160714Y-71380952D01*
X191113095Y-71428571D01*
X191065476Y-71523809D01*
X191065476Y-71761904D01*
X191113095Y-71857142D01*
X191160714Y-71904761D01*
X191255952Y-71952380D01*
X191541666Y-71952380D01*
X191636904Y-71904761D01*
X191684523Y-71857142D01*
%TO.C,J1*%
X190157380Y-87996666D02*
X190871666Y-87996666D01*
X191014523Y-87949047D01*
X191109761Y-87853809D01*
X191157380Y-87710952D01*
X191157380Y-87615714D01*
X191157380Y-88996666D02*
X191157380Y-88425238D01*
X191157380Y-88710952D02*
X190157380Y-88710952D01*
X190300238Y-88615714D01*
X190395476Y-88520476D01*
X190443095Y-88425238D01*
%TO.C,C4*%
X191771666Y-62487142D02*
X191819285Y-62534761D01*
X191962142Y-62582380D01*
X192057380Y-62582380D01*
X192200238Y-62534761D01*
X192295476Y-62439523D01*
X192343095Y-62344285D01*
X192390714Y-62153809D01*
X192390714Y-62010952D01*
X192343095Y-61820476D01*
X192295476Y-61725238D01*
X192200238Y-61630000D01*
X192057380Y-61582380D01*
X191962142Y-61582380D01*
X191819285Y-61630000D01*
X191771666Y-61677619D01*
X190914523Y-61915714D02*
X190914523Y-62582380D01*
X191152619Y-61534761D02*
X191390714Y-62249047D01*
X190771666Y-62249047D01*
%TO.C,C1*%
X255392142Y-85023333D02*
X255439761Y-84975714D01*
X255487380Y-84832857D01*
X255487380Y-84737619D01*
X255439761Y-84594761D01*
X255344523Y-84499523D01*
X255249285Y-84451904D01*
X255058809Y-84404285D01*
X254915952Y-84404285D01*
X254725476Y-84451904D01*
X254630238Y-84499523D01*
X254535000Y-84594761D01*
X254487380Y-84737619D01*
X254487380Y-84832857D01*
X254535000Y-84975714D01*
X254582619Y-85023333D01*
X255487380Y-85975714D02*
X255487380Y-85404285D01*
X255487380Y-85690000D02*
X254487380Y-85690000D01*
X254630238Y-85594761D01*
X254725476Y-85499523D01*
X254773095Y-85404285D01*
%TO.C,R2*%
X186026904Y-77904761D02*
X186026904Y-77447619D01*
X186026904Y-77676190D02*
X185226904Y-77676190D01*
X185341190Y-77600000D01*
X185417380Y-77523809D01*
X185455476Y-77447619D01*
X186026904Y-78247619D02*
X185226904Y-78247619D01*
X185722142Y-78323809D02*
X186026904Y-78552380D01*
X185493571Y-78552380D02*
X185798333Y-78247619D01*
%TO.C,U2*%
X261356904Y-82432380D02*
X261356904Y-83241904D01*
X261309285Y-83337142D01*
X261261666Y-83384761D01*
X261166428Y-83432380D01*
X260975952Y-83432380D01*
X260880714Y-83384761D01*
X260833095Y-83337142D01*
X260785476Y-83241904D01*
X260785476Y-82432380D01*
X260356904Y-82527619D02*
X260309285Y-82480000D01*
X260214047Y-82432380D01*
X259975952Y-82432380D01*
X259880714Y-82480000D01*
X259833095Y-82527619D01*
X259785476Y-82622857D01*
X259785476Y-82718095D01*
X259833095Y-82860952D01*
X260404523Y-83432380D01*
X259785476Y-83432380D01*
%TO.C,R4*%
X231156904Y-58604761D02*
X231156904Y-58147619D01*
X231156904Y-58376190D02*
X230356904Y-58376190D01*
X230471190Y-58300000D01*
X230547380Y-58223809D01*
X230585476Y-58147619D01*
X231156904Y-58947619D02*
X230356904Y-58947619D01*
X230852142Y-59023809D02*
X231156904Y-59252380D01*
X230623571Y-59252380D02*
X230928333Y-58947619D01*
%TO.C,R6*%
X216067380Y-85601904D02*
X215572142Y-85601904D01*
X215838809Y-85906666D01*
X215724523Y-85906666D01*
X215648333Y-85944761D01*
X215610238Y-85982857D01*
X215572142Y-86059047D01*
X215572142Y-86249523D01*
X215610238Y-86325714D01*
X215648333Y-86363809D01*
X215724523Y-86401904D01*
X215953095Y-86401904D01*
X216029285Y-86363809D01*
X216067380Y-86325714D01*
X215305476Y-85601904D02*
X214810238Y-85601904D01*
X215076904Y-85906666D01*
X214962619Y-85906666D01*
X214886428Y-85944761D01*
X214848333Y-85982857D01*
X214810238Y-86059047D01*
X214810238Y-86249523D01*
X214848333Y-86325714D01*
X214886428Y-86363809D01*
X214962619Y-86401904D01*
X215191190Y-86401904D01*
X215267380Y-86363809D01*
X215305476Y-86325714D01*
X214315000Y-85601904D02*
X214238809Y-85601904D01*
X214162619Y-85640000D01*
X214124523Y-85678095D01*
X214086428Y-85754285D01*
X214048333Y-85906666D01*
X214048333Y-86097142D01*
X214086428Y-86249523D01*
X214124523Y-86325714D01*
X214162619Y-86363809D01*
X214238809Y-86401904D01*
X214315000Y-86401904D01*
X214391190Y-86363809D01*
X214429285Y-86325714D01*
X214467380Y-86249523D01*
X214505476Y-86097142D01*
X214505476Y-85906666D01*
X214467380Y-85754285D01*
X214429285Y-85678095D01*
X214391190Y-85640000D01*
X214315000Y-85601904D01*
X213705476Y-86401904D02*
X213705476Y-85601904D01*
X213629285Y-86097142D02*
X213400714Y-86401904D01*
X213400714Y-85868571D02*
X213705476Y-86173333D01*
%TO.C,R7*%
X231476904Y-85944761D02*
X231553095Y-85906666D01*
X231591190Y-85868571D01*
X231629285Y-85792380D01*
X231629285Y-85754285D01*
X231591190Y-85678095D01*
X231553095Y-85640000D01*
X231476904Y-85601904D01*
X231324523Y-85601904D01*
X231248333Y-85640000D01*
X231210238Y-85678095D01*
X231172142Y-85754285D01*
X231172142Y-85792380D01*
X231210238Y-85868571D01*
X231248333Y-85906666D01*
X231324523Y-85944761D01*
X231476904Y-85944761D01*
X231553095Y-85982857D01*
X231591190Y-86020952D01*
X231629285Y-86097142D01*
X231629285Y-86249523D01*
X231591190Y-86325714D01*
X231553095Y-86363809D01*
X231476904Y-86401904D01*
X231324523Y-86401904D01*
X231248333Y-86363809D01*
X231210238Y-86325714D01*
X231172142Y-86249523D01*
X231172142Y-86097142D01*
X231210238Y-86020952D01*
X231248333Y-85982857D01*
X231324523Y-85944761D01*
X230867380Y-85678095D02*
X230829285Y-85640000D01*
X230753095Y-85601904D01*
X230562619Y-85601904D01*
X230486428Y-85640000D01*
X230448333Y-85678095D01*
X230410238Y-85754285D01*
X230410238Y-85830476D01*
X230448333Y-85944761D01*
X230905476Y-86401904D01*
X230410238Y-86401904D01*
X229915000Y-85601904D02*
X229838809Y-85601904D01*
X229762619Y-85640000D01*
X229724523Y-85678095D01*
X229686428Y-85754285D01*
X229648333Y-85906666D01*
X229648333Y-86097142D01*
X229686428Y-86249523D01*
X229724523Y-86325714D01*
X229762619Y-86363809D01*
X229838809Y-86401904D01*
X229915000Y-86401904D01*
X229991190Y-86363809D01*
X230029285Y-86325714D01*
X230067380Y-86249523D01*
X230105476Y-86097142D01*
X230105476Y-85906666D01*
X230067380Y-85754285D01*
X230029285Y-85678095D01*
X229991190Y-85640000D01*
X229915000Y-85601904D01*
X229305476Y-86401904D02*
X229305476Y-85601904D01*
X229229285Y-86097142D02*
X229000714Y-86401904D01*
X229000714Y-85868571D02*
X229305476Y-86173333D01*
%TO.C,C3*%
X188901666Y-74067142D02*
X188949285Y-74114761D01*
X189092142Y-74162380D01*
X189187380Y-74162380D01*
X189330238Y-74114761D01*
X189425476Y-74019523D01*
X189473095Y-73924285D01*
X189520714Y-73733809D01*
X189520714Y-73590952D01*
X189473095Y-73400476D01*
X189425476Y-73305238D01*
X189330238Y-73210000D01*
X189187380Y-73162380D01*
X189092142Y-73162380D01*
X188949285Y-73210000D01*
X188901666Y-73257619D01*
X188568333Y-73162380D02*
X187949285Y-73162380D01*
X188282619Y-73543333D01*
X188139761Y-73543333D01*
X188044523Y-73590952D01*
X187996904Y-73638571D01*
X187949285Y-73733809D01*
X187949285Y-73971904D01*
X187996904Y-74067142D01*
X188044523Y-74114761D01*
X188139761Y-74162380D01*
X188425476Y-74162380D01*
X188520714Y-74114761D01*
X188568333Y-74067142D01*
%TO.C,R5*%
X126361904Y-77904761D02*
X126361904Y-77447619D01*
X126361904Y-77676190D02*
X125561904Y-77676190D01*
X125676190Y-77600000D01*
X125752380Y-77523809D01*
X125790476Y-77447619D01*
X126361904Y-78247619D02*
X125561904Y-78247619D01*
X126057142Y-78323809D02*
X126361904Y-78552380D01*
X125828571Y-78552380D02*
X126133333Y-78247619D01*
%TO.C,R3*%
X233646904Y-58033333D02*
X233646904Y-57576190D01*
X233646904Y-57804761D02*
X232846904Y-57804761D01*
X232961190Y-57728571D01*
X233037380Y-57652380D01*
X233075476Y-57576190D01*
X233570714Y-58376190D02*
X233608809Y-58414285D01*
X233646904Y-58376190D01*
X233608809Y-58338095D01*
X233570714Y-58376190D01*
X233646904Y-58376190D01*
X232846904Y-59138095D02*
X232846904Y-58757142D01*
X233227857Y-58719047D01*
X233189761Y-58757142D01*
X233151666Y-58833333D01*
X233151666Y-59023809D01*
X233189761Y-59100000D01*
X233227857Y-59138095D01*
X233304047Y-59176190D01*
X233494523Y-59176190D01*
X233570714Y-59138095D01*
X233608809Y-59100000D01*
X233646904Y-59023809D01*
X233646904Y-58833333D01*
X233608809Y-58757142D01*
X233570714Y-58719047D01*
X233646904Y-59519047D02*
X232846904Y-59519047D01*
X233342142Y-59595238D02*
X233646904Y-59823809D01*
X233113571Y-59823809D02*
X233418333Y-59519047D01*
%TO.C,R1*%
X116115238Y-86401904D02*
X116572380Y-86401904D01*
X116343809Y-86401904D02*
X116343809Y-85601904D01*
X116420000Y-85716190D01*
X116496190Y-85792380D01*
X116572380Y-85830476D01*
X115772380Y-86401904D02*
X115772380Y-85601904D01*
X115696190Y-86097142D02*
X115467619Y-86401904D01*
X115467619Y-85868571D02*
X115772380Y-86173333D01*
%TO.C,D4*%
X42737500Y-107000000D02*
X43637500Y-107500000D01*
X40537500Y-108250000D02*
X45937500Y-108250000D01*
X40537500Y-108250000D02*
X40537500Y-106750000D01*
X43737500Y-108000000D02*
X43737500Y-107000000D01*
X42737500Y-108000000D02*
X42737500Y-107000000D01*
X45937500Y-108250000D02*
X45937500Y-106750000D01*
X45937500Y-106750000D02*
X40537500Y-106750000D01*
X43637500Y-107500000D02*
X42737500Y-108000000D01*
%TO.C,D11*%
X76975000Y-50350000D02*
X76075000Y-50850000D01*
X73875000Y-51100000D02*
X73875000Y-49600000D01*
X79275000Y-51100000D02*
X79275000Y-49600000D01*
X76075000Y-49850000D02*
X76975000Y-50350000D01*
X79275000Y-49600000D02*
X73875000Y-49600000D01*
X76075000Y-50850000D02*
X76075000Y-49850000D01*
X73875000Y-51100000D02*
X79275000Y-51100000D01*
X77075000Y-50850000D02*
X77075000Y-49850000D01*
%TO.C,D32*%
X126900000Y-49600000D02*
X121500000Y-49600000D01*
X121500000Y-51100000D02*
X126900000Y-51100000D01*
X123700000Y-50850000D02*
X123700000Y-49850000D01*
X126900000Y-51100000D02*
X126900000Y-49600000D01*
X123700000Y-49850000D02*
X124600000Y-50350000D01*
X121500000Y-51100000D02*
X121500000Y-49600000D01*
X124600000Y-50350000D02*
X123700000Y-50850000D01*
X124700000Y-50850000D02*
X124700000Y-49850000D01*
%TO.C,D48*%
X219850000Y-50350000D02*
X218950000Y-50850000D01*
X216750000Y-51100000D02*
X222150000Y-51100000D01*
X218950000Y-50850000D02*
X218950000Y-49850000D01*
X218950000Y-49850000D02*
X219850000Y-50350000D01*
X222150000Y-49600000D02*
X216750000Y-49600000D01*
X222150000Y-51100000D02*
X222150000Y-49600000D01*
X216750000Y-51100000D02*
X216750000Y-49600000D01*
X219950000Y-50850000D02*
X219950000Y-49850000D01*
%TO.C,D59*%
X235800000Y-51100000D02*
X241200000Y-51100000D01*
X238000000Y-50850000D02*
X238000000Y-49850000D01*
X241200000Y-51100000D02*
X241200000Y-49600000D01*
X235800000Y-51100000D02*
X235800000Y-49600000D01*
X241200000Y-49600000D02*
X235800000Y-49600000D01*
X238000000Y-49850000D02*
X238900000Y-50350000D01*
X239000000Y-50850000D02*
X239000000Y-49850000D01*
X238900000Y-50350000D02*
X238000000Y-50850000D01*
%TO.C,D44*%
X209425000Y-50850000D02*
X209425000Y-49850000D01*
X210425000Y-50850000D02*
X210425000Y-49850000D01*
X207225000Y-51100000D02*
X207225000Y-49600000D01*
X207225000Y-51100000D02*
X212625000Y-51100000D01*
X210325000Y-50350000D02*
X209425000Y-50850000D01*
X209425000Y-49850000D02*
X210325000Y-50350000D01*
X212625000Y-49600000D02*
X207225000Y-49600000D01*
X212625000Y-51100000D02*
X212625000Y-49600000D01*
%TO.C,D17*%
X102450000Y-70150000D02*
X102450000Y-68650000D01*
X104650000Y-68900000D02*
X105550000Y-69400000D01*
X102450000Y-70150000D02*
X107850000Y-70150000D01*
X107850000Y-70150000D02*
X107850000Y-68650000D01*
X104650000Y-69900000D02*
X104650000Y-68900000D01*
X105550000Y-69400000D02*
X104650000Y-69900000D01*
X105650000Y-69900000D02*
X105650000Y-68900000D01*
X107850000Y-68650000D02*
X102450000Y-68650000D01*
%TO.C,D37*%
X181750000Y-107500000D02*
X180850000Y-108000000D01*
X184050000Y-108250000D02*
X184050000Y-106750000D01*
X180850000Y-108000000D02*
X180850000Y-107000000D01*
X178650000Y-108250000D02*
X184050000Y-108250000D01*
X184050000Y-106750000D02*
X178650000Y-106750000D01*
X178650000Y-108250000D02*
X178650000Y-106750000D01*
X181850000Y-108000000D02*
X181850000Y-107000000D01*
X180850000Y-107000000D02*
X181750000Y-107500000D01*
%TO.C,D14*%
X86500000Y-107500000D02*
X85600000Y-108000000D01*
X83400000Y-108250000D02*
X83400000Y-106750000D01*
X88800000Y-108250000D02*
X88800000Y-106750000D01*
X85600000Y-108000000D02*
X85600000Y-107000000D01*
X86600000Y-108000000D02*
X86600000Y-107000000D01*
X85600000Y-107000000D02*
X86500000Y-107500000D01*
X83400000Y-108250000D02*
X88800000Y-108250000D01*
X88800000Y-106750000D02*
X83400000Y-106750000D01*
%TO.C,D54*%
X226275000Y-51100000D02*
X231675000Y-51100000D01*
X228475000Y-50850000D02*
X228475000Y-49850000D01*
X228475000Y-49850000D02*
X229375000Y-50350000D01*
X231675000Y-51100000D02*
X231675000Y-49600000D01*
X229375000Y-50350000D02*
X228475000Y-50850000D01*
X226275000Y-51100000D02*
X226275000Y-49600000D01*
X231675000Y-49600000D02*
X226275000Y-49600000D01*
X229475000Y-50850000D02*
X229475000Y-49850000D01*
%TO.C,D43*%
X200900000Y-127050000D02*
X200900000Y-126050000D01*
X199900000Y-126050000D02*
X200800000Y-126550000D01*
X197700000Y-127300000D02*
X197700000Y-125800000D01*
X203100000Y-127300000D02*
X203100000Y-125800000D01*
X199900000Y-127050000D02*
X199900000Y-126050000D01*
X203100000Y-125800000D02*
X197700000Y-125800000D01*
X200800000Y-126550000D02*
X199900000Y-127050000D01*
X197700000Y-127300000D02*
X203100000Y-127300000D01*
%TO.C,D24*%
X126900000Y-106750000D02*
X121500000Y-106750000D01*
X121500000Y-108250000D02*
X126900000Y-108250000D01*
X123700000Y-108000000D02*
X123700000Y-107000000D01*
X124600000Y-107500000D02*
X123700000Y-108000000D01*
X124700000Y-108000000D02*
X124700000Y-107000000D01*
X126900000Y-108250000D02*
X126900000Y-106750000D01*
X121500000Y-108250000D02*
X121500000Y-106750000D01*
X123700000Y-107000000D02*
X124600000Y-107500000D01*
%TO.C,D40*%
X216750000Y-70150000D02*
X216750000Y-68650000D01*
X222150000Y-68650000D02*
X216750000Y-68650000D01*
X216750000Y-70150000D02*
X222150000Y-70150000D01*
X222150000Y-70150000D02*
X222150000Y-68650000D01*
X219950000Y-69900000D02*
X219950000Y-68900000D01*
X219850000Y-69400000D02*
X218950000Y-69900000D01*
X218950000Y-68900000D02*
X219850000Y-69400000D01*
X218950000Y-69900000D02*
X218950000Y-68900000D01*
%TO.C,D52*%
X241200000Y-127300000D02*
X241200000Y-125800000D01*
X235800000Y-127300000D02*
X241200000Y-127300000D01*
X239000000Y-127050000D02*
X239000000Y-126050000D01*
X241200000Y-125800000D02*
X235800000Y-125800000D01*
X235800000Y-127300000D02*
X235800000Y-125800000D01*
X238900000Y-126550000D02*
X238000000Y-127050000D01*
X238000000Y-126050000D02*
X238900000Y-126550000D01*
X238000000Y-127050000D02*
X238000000Y-126050000D01*
%TO.C,D28*%
X124700000Y-88950000D02*
X124700000Y-87950000D01*
X121500000Y-89200000D02*
X126900000Y-89200000D01*
X123700000Y-88950000D02*
X123700000Y-87950000D01*
X126900000Y-89200000D02*
X126900000Y-87700000D01*
X123700000Y-87950000D02*
X124600000Y-88450000D01*
X126900000Y-87700000D02*
X121500000Y-87700000D01*
X124600000Y-88450000D02*
X123700000Y-88950000D01*
X121500000Y-89200000D02*
X121500000Y-87700000D01*
%TO.C,D23*%
X115175000Y-88950000D02*
X115175000Y-87950000D01*
X111975000Y-89200000D02*
X111975000Y-87700000D01*
X117375000Y-87700000D02*
X111975000Y-87700000D01*
X115075000Y-88450000D02*
X114175000Y-88950000D01*
X114175000Y-87950000D02*
X115075000Y-88450000D01*
X117375000Y-89200000D02*
X117375000Y-87700000D01*
X111975000Y-89200000D02*
X117375000Y-89200000D01*
X114175000Y-88950000D02*
X114175000Y-87950000D01*
%TO.C,D2*%
X42737500Y-69900000D02*
X42737500Y-68900000D01*
X45937500Y-70150000D02*
X45937500Y-68650000D01*
X43737500Y-69900000D02*
X43737500Y-68900000D01*
X40537500Y-70150000D02*
X45937500Y-70150000D01*
X45937500Y-68650000D02*
X40537500Y-68650000D01*
X42737500Y-68900000D02*
X43637500Y-69400000D01*
X40537500Y-70150000D02*
X40537500Y-68650000D01*
X43637500Y-69400000D02*
X42737500Y-69900000D01*
%TO.C,D58*%
X257050000Y-127050000D02*
X257050000Y-126050000D01*
X257950000Y-126550000D02*
X257050000Y-127050000D01*
X254850000Y-127300000D02*
X254850000Y-125800000D01*
X257050000Y-126050000D02*
X257950000Y-126550000D01*
X258050000Y-127050000D02*
X258050000Y-126050000D01*
X260250000Y-127300000D02*
X260250000Y-125800000D01*
X260250000Y-125800000D02*
X254850000Y-125800000D01*
X254850000Y-127300000D02*
X260250000Y-127300000D01*
%TO.C,D16*%
X95125000Y-50850000D02*
X95125000Y-49850000D01*
X92925000Y-51100000D02*
X92925000Y-49600000D01*
X98325000Y-49600000D02*
X92925000Y-49600000D01*
X95125000Y-49850000D02*
X96025000Y-50350000D01*
X92925000Y-51100000D02*
X98325000Y-51100000D01*
X96025000Y-50350000D02*
X95125000Y-50850000D01*
X98325000Y-51100000D02*
X98325000Y-49600000D01*
X96125000Y-50850000D02*
X96125000Y-49850000D01*
%TO.C,D60*%
X277000000Y-69400000D02*
X276100000Y-69900000D01*
X273900000Y-70150000D02*
X279300000Y-70150000D01*
X279300000Y-68650000D02*
X273900000Y-68650000D01*
X277100000Y-69900000D02*
X277100000Y-68900000D01*
X276100000Y-68900000D02*
X277000000Y-69400000D01*
X276100000Y-69900000D02*
X276100000Y-68900000D01*
X273900000Y-70150000D02*
X273900000Y-68650000D01*
X279300000Y-70150000D02*
X279300000Y-68650000D01*
%TO.C,D13*%
X83400000Y-89200000D02*
X83400000Y-87700000D01*
X85600000Y-87950000D02*
X86500000Y-88450000D01*
X88800000Y-89200000D02*
X88800000Y-87700000D01*
X85600000Y-88950000D02*
X85600000Y-87950000D01*
X86600000Y-88950000D02*
X86600000Y-87950000D01*
X86500000Y-88450000D02*
X85600000Y-88950000D01*
X88800000Y-87700000D02*
X83400000Y-87700000D01*
X83400000Y-89200000D02*
X88800000Y-89200000D01*
%TO.C,D7*%
X66550000Y-68900000D02*
X67450000Y-69400000D01*
X67450000Y-69400000D02*
X66550000Y-69900000D01*
X64350000Y-70150000D02*
X64350000Y-68650000D01*
X69750000Y-70150000D02*
X69750000Y-68650000D01*
X69750000Y-68650000D02*
X64350000Y-68650000D01*
X67550000Y-69900000D02*
X67550000Y-68900000D01*
X64350000Y-70150000D02*
X69750000Y-70150000D01*
X66550000Y-69900000D02*
X66550000Y-68900000D01*
%TO.C,D29*%
X143650000Y-107500000D02*
X142750000Y-108000000D01*
X145950000Y-108250000D02*
X145950000Y-106750000D01*
X143750000Y-108000000D02*
X143750000Y-107000000D01*
X145950000Y-106750000D02*
X140550000Y-106750000D01*
X140550000Y-108250000D02*
X145950000Y-108250000D01*
X140550000Y-108250000D02*
X140550000Y-106750000D01*
X142750000Y-108000000D02*
X142750000Y-107000000D01*
X142750000Y-107000000D02*
X143650000Y-107500000D01*
%TO.C,D3*%
X43637500Y-88450000D02*
X42737500Y-88950000D01*
X40537500Y-89200000D02*
X40537500Y-87700000D01*
X45937500Y-87700000D02*
X40537500Y-87700000D01*
X42737500Y-88950000D02*
X42737500Y-87950000D01*
X45937500Y-89200000D02*
X45937500Y-87700000D01*
X42737500Y-87950000D02*
X43637500Y-88450000D01*
X43737500Y-88950000D02*
X43737500Y-87950000D01*
X40537500Y-89200000D02*
X45937500Y-89200000D01*
%TO.C,D56*%
X247525000Y-88950000D02*
X247525000Y-87950000D01*
X247525000Y-87950000D02*
X248425000Y-88450000D01*
X250725000Y-89200000D02*
X250725000Y-87700000D01*
X245325000Y-89200000D02*
X245325000Y-87700000D01*
X248525000Y-88950000D02*
X248525000Y-87950000D01*
X245325000Y-89200000D02*
X250725000Y-89200000D01*
X250725000Y-87700000D02*
X245325000Y-87700000D01*
X248425000Y-88450000D02*
X247525000Y-88950000D01*
%TO.C,D25*%
X121500000Y-127300000D02*
X126900000Y-127300000D01*
X124600000Y-126550000D02*
X123700000Y-127050000D01*
X124700000Y-127050000D02*
X124700000Y-126050000D01*
X123700000Y-127050000D02*
X123700000Y-126050000D01*
X126900000Y-125800000D02*
X121500000Y-125800000D01*
X126900000Y-127300000D02*
X126900000Y-125800000D01*
X121500000Y-127300000D02*
X121500000Y-125800000D01*
X123700000Y-126050000D02*
X124600000Y-126550000D01*
%TO.C,D39*%
X203100000Y-49600000D02*
X197700000Y-49600000D01*
X203100000Y-51100000D02*
X203100000Y-49600000D01*
X197700000Y-51100000D02*
X203100000Y-51100000D01*
X199900000Y-50850000D02*
X199900000Y-49850000D01*
X200900000Y-50850000D02*
X200900000Y-49850000D01*
X197700000Y-51100000D02*
X197700000Y-49600000D01*
X200800000Y-50350000D02*
X199900000Y-50850000D01*
X199900000Y-49850000D02*
X200800000Y-50350000D01*
%TO.C,D61*%
X277100000Y-88950000D02*
X277100000Y-87950000D01*
X277000000Y-88450000D02*
X276100000Y-88950000D01*
X279300000Y-87700000D02*
X273900000Y-87700000D01*
X273900000Y-89200000D02*
X273900000Y-87700000D01*
X279300000Y-89200000D02*
X279300000Y-87700000D01*
X276100000Y-88950000D02*
X276100000Y-87950000D01*
X273900000Y-89200000D02*
X279300000Y-89200000D01*
X276100000Y-87950000D02*
X277000000Y-88450000D01*
%TO.C,D36*%
X200800000Y-88450000D02*
X199900000Y-88950000D01*
X200900000Y-88950000D02*
X200900000Y-87950000D01*
X197700000Y-89200000D02*
X197700000Y-87700000D01*
X203100000Y-89200000D02*
X203100000Y-87700000D01*
X199900000Y-87950000D02*
X200800000Y-88450000D01*
X203100000Y-87700000D02*
X197700000Y-87700000D01*
X197700000Y-89200000D02*
X203100000Y-89200000D01*
X199900000Y-88950000D02*
X199900000Y-87950000D01*
%TO.C,D47*%
X222150000Y-106750000D02*
X216750000Y-106750000D01*
X219850000Y-107500000D02*
X218950000Y-108000000D01*
X222150000Y-108250000D02*
X222150000Y-106750000D01*
X218950000Y-108000000D02*
X218950000Y-107000000D01*
X216750000Y-108250000D02*
X222150000Y-108250000D01*
X218950000Y-107000000D02*
X219850000Y-107500000D01*
X216750000Y-108250000D02*
X216750000Y-106750000D01*
X219950000Y-108000000D02*
X219950000Y-107000000D01*
%TO.C,D49*%
X235800000Y-70150000D02*
X235800000Y-68650000D01*
X238900000Y-69400000D02*
X238000000Y-69900000D01*
X239000000Y-69900000D02*
X239000000Y-68900000D01*
X241200000Y-70150000D02*
X241200000Y-68650000D01*
X238000000Y-69900000D02*
X238000000Y-68900000D01*
X235800000Y-70150000D02*
X241200000Y-70150000D01*
X241200000Y-68650000D02*
X235800000Y-68650000D01*
X238000000Y-68900000D02*
X238900000Y-69400000D01*
%TO.C,D6*%
X60225000Y-49600000D02*
X54825000Y-49600000D01*
X60225000Y-51100000D02*
X60225000Y-49600000D01*
X54825000Y-51100000D02*
X60225000Y-51100000D01*
X54825000Y-51100000D02*
X54825000Y-49600000D01*
X57925000Y-50350000D02*
X57025000Y-50850000D01*
X58025000Y-50850000D02*
X58025000Y-49850000D01*
X57025000Y-49850000D02*
X57925000Y-50350000D01*
X57025000Y-50850000D02*
X57025000Y-49850000D01*
%TO.C,D10*%
X59406300Y-127050000D02*
X59406300Y-126050000D01*
X60306300Y-126550000D02*
X59406300Y-127050000D01*
X59406300Y-126050000D02*
X60306300Y-126550000D01*
X57206300Y-127300000D02*
X57206300Y-125800000D01*
X62606300Y-127300000D02*
X62606300Y-125800000D01*
X60406300Y-127050000D02*
X60406300Y-126050000D01*
X62606300Y-125800000D02*
X57206300Y-125800000D01*
X57206300Y-127300000D02*
X62606300Y-127300000D01*
%TO.C,D42*%
X203100000Y-108250000D02*
X203100000Y-106750000D01*
X200900000Y-108000000D02*
X200900000Y-107000000D01*
X197700000Y-108250000D02*
X203100000Y-108250000D01*
X199900000Y-108000000D02*
X199900000Y-107000000D01*
X199900000Y-107000000D02*
X200800000Y-107500000D01*
X197700000Y-108250000D02*
X197700000Y-106750000D01*
X203100000Y-106750000D02*
X197700000Y-106750000D01*
X200800000Y-107500000D02*
X199900000Y-108000000D01*
%TO.C,D9*%
X69750000Y-108250000D02*
X69750000Y-106750000D01*
X66550000Y-108000000D02*
X66550000Y-107000000D01*
X69750000Y-106750000D02*
X64350000Y-106750000D01*
X64350000Y-108250000D02*
X64350000Y-106750000D01*
X67550000Y-108000000D02*
X67550000Y-107000000D01*
X64350000Y-108250000D02*
X69750000Y-108250000D01*
X67450000Y-107500000D02*
X66550000Y-108000000D01*
X66550000Y-107000000D02*
X67450000Y-107500000D01*
%TO.C,D18*%
X105650000Y-88950000D02*
X105650000Y-87950000D01*
X107850000Y-87700000D02*
X102450000Y-87700000D01*
X105550000Y-88450000D02*
X104650000Y-88950000D01*
X107850000Y-89200000D02*
X107850000Y-87700000D01*
X104650000Y-87950000D02*
X105550000Y-88450000D01*
X104650000Y-88950000D02*
X104650000Y-87950000D01*
X102450000Y-89200000D02*
X107850000Y-89200000D01*
X102450000Y-89200000D02*
X102450000Y-87700000D01*
%TO.C,D22*%
X117375000Y-70150000D02*
X117375000Y-68650000D01*
X117375000Y-68650000D02*
X111975000Y-68650000D01*
X114175000Y-68900000D02*
X115075000Y-69400000D01*
X115075000Y-69400000D02*
X114175000Y-69900000D01*
X114175000Y-69900000D02*
X114175000Y-68900000D01*
X115175000Y-69900000D02*
X115175000Y-68900000D01*
X111975000Y-70150000D02*
X111975000Y-68650000D01*
X111975000Y-70150000D02*
X117375000Y-70150000D01*
%TO.C,D21*%
X107850000Y-49600000D02*
X102450000Y-49600000D01*
X107850000Y-51100000D02*
X107850000Y-49600000D01*
X104650000Y-50850000D02*
X104650000Y-49850000D01*
X104650000Y-49850000D02*
X105550000Y-50350000D01*
X105550000Y-50350000D02*
X104650000Y-50850000D01*
X102450000Y-51100000D02*
X102450000Y-49600000D01*
X102450000Y-51100000D02*
X107850000Y-51100000D01*
X105650000Y-50850000D02*
X105650000Y-49850000D01*
%TO.C,D46*%
X218950000Y-88950000D02*
X218950000Y-87950000D01*
X222150000Y-89200000D02*
X222150000Y-87700000D01*
X218950000Y-87950000D02*
X219850000Y-88450000D01*
X219950000Y-88950000D02*
X219950000Y-87950000D01*
X219850000Y-88450000D02*
X218950000Y-88950000D01*
X222150000Y-87700000D02*
X216750000Y-87700000D01*
X216750000Y-89200000D02*
X216750000Y-87700000D01*
X216750000Y-89200000D02*
X222150000Y-89200000D01*
%TO.C,D45*%
X228475000Y-68900000D02*
X229375000Y-69400000D01*
X228475000Y-69900000D02*
X228475000Y-68900000D01*
X229475000Y-69900000D02*
X229475000Y-68900000D01*
X231675000Y-68650000D02*
X226275000Y-68650000D01*
X226275000Y-70150000D02*
X226275000Y-68650000D01*
X226275000Y-70150000D02*
X231675000Y-70150000D01*
X229375000Y-69400000D02*
X228475000Y-69900000D01*
X231675000Y-70150000D02*
X231675000Y-68650000D01*
%TO.C,D26*%
X114175000Y-50850000D02*
X114175000Y-49850000D01*
X115075000Y-50350000D02*
X114175000Y-50850000D01*
X117375000Y-49600000D02*
X111975000Y-49600000D01*
X111975000Y-51100000D02*
X117375000Y-51100000D01*
X115175000Y-50850000D02*
X115175000Y-49850000D01*
X117375000Y-51100000D02*
X117375000Y-49600000D01*
X111975000Y-51100000D02*
X111975000Y-49600000D01*
X114175000Y-49850000D02*
X115075000Y-50350000D01*
%TO.C,D50*%
X235800000Y-89200000D02*
X241200000Y-89200000D01*
X238900000Y-88450000D02*
X238000000Y-88950000D01*
X235800000Y-89200000D02*
X235800000Y-87700000D01*
X238000000Y-87950000D02*
X238900000Y-88450000D01*
X241200000Y-89200000D02*
X241200000Y-87700000D01*
X239000000Y-88950000D02*
X239000000Y-87950000D01*
X238000000Y-88950000D02*
X238000000Y-87950000D01*
X241200000Y-87700000D02*
X235800000Y-87700000D01*
%TO.C,D38*%
X176087500Y-126050000D02*
X176987500Y-126550000D01*
X177087500Y-127050000D02*
X177087500Y-126050000D01*
X173887500Y-127300000D02*
X179287500Y-127300000D01*
X176087500Y-127050000D02*
X176087500Y-126050000D01*
X176987500Y-126550000D02*
X176087500Y-127050000D01*
X179287500Y-125800000D02*
X173887500Y-125800000D01*
X179287500Y-127300000D02*
X179287500Y-125800000D01*
X173887500Y-127300000D02*
X173887500Y-125800000D01*
%TO.C,D8*%
X66550000Y-87950000D02*
X67450000Y-88450000D01*
X64350000Y-89200000D02*
X64350000Y-87700000D01*
X69750000Y-89200000D02*
X69750000Y-87700000D01*
X69750000Y-87700000D02*
X64350000Y-87700000D01*
X66550000Y-88950000D02*
X66550000Y-87950000D01*
X67450000Y-88450000D02*
X66550000Y-88950000D01*
X64350000Y-89200000D02*
X69750000Y-89200000D01*
X67550000Y-88950000D02*
X67550000Y-87950000D01*
%TO.C,D62*%
X276100000Y-108000000D02*
X276100000Y-107000000D01*
X279300000Y-106750000D02*
X273900000Y-106750000D01*
X273900000Y-108250000D02*
X279300000Y-108250000D01*
X279300000Y-108250000D02*
X279300000Y-106750000D01*
X277000000Y-107500000D02*
X276100000Y-108000000D01*
X273900000Y-108250000D02*
X273900000Y-106750000D01*
X277100000Y-108000000D02*
X277100000Y-107000000D01*
X276100000Y-107000000D02*
X277000000Y-107500000D01*
%TO.C,D55*%
X254850000Y-70150000D02*
X254850000Y-68650000D01*
X257950000Y-69400000D02*
X257050000Y-69900000D01*
X257050000Y-68900000D02*
X257950000Y-69400000D01*
X254850000Y-70150000D02*
X260250000Y-70150000D01*
X260250000Y-68650000D02*
X254850000Y-68650000D01*
X258050000Y-69900000D02*
X258050000Y-68900000D01*
X257050000Y-69900000D02*
X257050000Y-68900000D01*
X260250000Y-70150000D02*
X260250000Y-68650000D01*
%TO.C,D12*%
X88800000Y-68650000D02*
X83400000Y-68650000D01*
X85600000Y-69900000D02*
X85600000Y-68900000D01*
X88800000Y-70150000D02*
X88800000Y-68650000D01*
X83400000Y-70150000D02*
X88800000Y-70150000D01*
X83400000Y-70150000D02*
X83400000Y-68650000D01*
X86500000Y-69400000D02*
X85600000Y-69900000D01*
X86600000Y-69900000D02*
X86600000Y-68900000D01*
X85600000Y-68900000D02*
X86500000Y-69400000D01*
%TO.C,D15*%
X81018800Y-127300000D02*
X86418800Y-127300000D01*
X86418800Y-125800000D02*
X81018800Y-125800000D01*
X84118800Y-126550000D02*
X83218800Y-127050000D01*
X86418800Y-127300000D02*
X86418800Y-125800000D01*
X81018800Y-127300000D02*
X81018800Y-125800000D01*
X84218800Y-127050000D02*
X84218800Y-126050000D01*
X83218800Y-126050000D02*
X84118800Y-126550000D01*
X83218800Y-127050000D02*
X83218800Y-126050000D01*
%TO.C,D35*%
X207225000Y-70150000D02*
X207225000Y-68650000D01*
X210425000Y-69900000D02*
X210425000Y-68900000D01*
X209425000Y-69900000D02*
X209425000Y-68900000D01*
X210325000Y-69400000D02*
X209425000Y-69900000D01*
X207225000Y-70150000D02*
X212625000Y-70150000D01*
X212625000Y-68650000D02*
X207225000Y-68650000D01*
X212625000Y-70150000D02*
X212625000Y-68650000D01*
X209425000Y-68900000D02*
X210325000Y-69400000D01*
%TO.C,D19*%
X107850000Y-106750000D02*
X102450000Y-106750000D01*
X102450000Y-108250000D02*
X107850000Y-108250000D01*
X104650000Y-107000000D02*
X105550000Y-107500000D01*
X104650000Y-108000000D02*
X104650000Y-107000000D01*
X102450000Y-108250000D02*
X102450000Y-106750000D01*
X107850000Y-108250000D02*
X107850000Y-106750000D01*
X105650000Y-108000000D02*
X105650000Y-107000000D01*
X105550000Y-107500000D02*
X104650000Y-108000000D01*
%TO.C,D1*%
X35775000Y-51100000D02*
X41175000Y-51100000D01*
X37975000Y-49850000D02*
X38875000Y-50350000D01*
X41175000Y-49600000D02*
X35775000Y-49600000D01*
X35775000Y-51100000D02*
X35775000Y-49600000D01*
X37975000Y-50850000D02*
X37975000Y-49850000D01*
X38875000Y-50350000D02*
X37975000Y-50850000D01*
X38975000Y-50850000D02*
X38975000Y-49850000D01*
X41175000Y-51100000D02*
X41175000Y-49600000D01*
%TO.C,D57*%
X257050000Y-107000000D02*
X257950000Y-107500000D01*
X254850000Y-108250000D02*
X260250000Y-108250000D01*
X260250000Y-108250000D02*
X260250000Y-106750000D01*
X260250000Y-106750000D02*
X254850000Y-106750000D01*
X258050000Y-108000000D02*
X258050000Y-107000000D01*
X257050000Y-108000000D02*
X257050000Y-107000000D01*
X257950000Y-107500000D02*
X257050000Y-108000000D01*
X254850000Y-108250000D02*
X254850000Y-106750000D01*
%TO.C,D30*%
X147512500Y-126050000D02*
X148412500Y-126550000D01*
X145312500Y-127300000D02*
X145312500Y-125800000D01*
X150712500Y-125800000D02*
X145312500Y-125800000D01*
X145312500Y-127300000D02*
X150712500Y-127300000D01*
X148512500Y-127050000D02*
X148512500Y-126050000D01*
X147512500Y-127050000D02*
X147512500Y-126050000D01*
X148412500Y-126550000D02*
X147512500Y-127050000D01*
X150712500Y-127300000D02*
X150712500Y-125800000D01*
%TO.C,D34*%
X188175000Y-51100000D02*
X193575000Y-51100000D01*
X193575000Y-51100000D02*
X193575000Y-49600000D01*
X190375000Y-49850000D02*
X191275000Y-50350000D01*
X188175000Y-51100000D02*
X188175000Y-49600000D01*
X190375000Y-50850000D02*
X190375000Y-49850000D01*
X191375000Y-50850000D02*
X191375000Y-49850000D01*
X193575000Y-49600000D02*
X188175000Y-49600000D01*
X191275000Y-50350000D02*
X190375000Y-50850000D01*
%TO.C,D27*%
X123700000Y-69900000D02*
X123700000Y-68900000D01*
X126900000Y-70150000D02*
X126900000Y-68650000D01*
X121500000Y-70150000D02*
X121500000Y-68650000D01*
X123700000Y-68900000D02*
X124600000Y-69400000D01*
X124600000Y-69400000D02*
X123700000Y-69900000D01*
X126900000Y-68650000D02*
X121500000Y-68650000D01*
X124700000Y-69900000D02*
X124700000Y-68900000D01*
X121500000Y-70150000D02*
X126900000Y-70150000D01*
%TO.C,D41*%
X207225000Y-89200000D02*
X212625000Y-89200000D01*
X209425000Y-88950000D02*
X209425000Y-87950000D01*
X210325000Y-88450000D02*
X209425000Y-88950000D01*
X212625000Y-89200000D02*
X212625000Y-87700000D01*
X212625000Y-87700000D02*
X207225000Y-87700000D01*
X210425000Y-88950000D02*
X210425000Y-87950000D01*
X207225000Y-89200000D02*
X207225000Y-87700000D01*
X209425000Y-87950000D02*
X210325000Y-88450000D01*
%TO.C,D51*%
X241200000Y-108250000D02*
X241200000Y-106750000D01*
X235800000Y-108250000D02*
X235800000Y-106750000D01*
X239000000Y-108000000D02*
X239000000Y-107000000D01*
X238000000Y-108000000D02*
X238000000Y-107000000D01*
X235800000Y-108250000D02*
X241200000Y-108250000D01*
X241200000Y-106750000D02*
X235800000Y-106750000D01*
X238000000Y-107000000D02*
X238900000Y-107500000D01*
X238900000Y-107500000D02*
X238000000Y-108000000D01*
%TO.C,U1*%
X277940000Y-67500000D02*
X277940000Y-66700000D01*
X277940000Y-50000000D02*
X277940000Y-50850000D01*
X277940000Y-67500000D02*
X277090000Y-67500000D01*
X245190000Y-50000000D02*
X245190000Y-50850000D01*
X245190000Y-67500000D02*
X245190000Y-66640000D01*
X246040000Y-67500000D02*
X245190000Y-67500000D01*
X277940000Y-50000000D02*
X277090000Y-50000000D01*
X246090000Y-50000000D02*
X245190000Y-50000000D01*
D13*
%TO.C,U3*%
X189405000Y-63820000D02*
X188305000Y-63820000D01*
X190905000Y-63550000D02*
X189405000Y-63550000D01*
X189405000Y-70450000D02*
X189405000Y-70180000D01*
X190905000Y-70450000D02*
X189405000Y-70450000D01*
X189405000Y-70180000D02*
X186575000Y-70180000D01*
X189405000Y-63550000D02*
X189405000Y-63820000D01*
%TO.C,J1*%
X184025000Y-88800000D02*
X181765000Y-88800000D01*
X184025000Y-85700000D02*
X185625000Y-85700000D01*
X185625000Y-88300000D02*
X185625000Y-89300000D01*
X181765000Y-90060000D02*
X181765000Y-83940000D01*
X184025000Y-88300000D02*
X185625000Y-88300000D01*
X185625000Y-89300000D02*
X184025000Y-89300000D01*
X187985000Y-84860000D02*
X187985000Y-85140000D01*
X187985000Y-90060000D02*
X187985000Y-89140000D01*
X187985000Y-88860000D02*
X187985000Y-89140000D01*
X189585000Y-83940000D02*
X189585000Y-84860000D01*
X184025000Y-89300000D02*
X184025000Y-88300000D01*
X184025000Y-88300000D02*
X181765000Y-88300000D01*
X187985000Y-88860000D02*
X189200000Y-88860000D01*
X186125000Y-87500000D02*
X186125000Y-86500000D01*
X181765000Y-83940000D02*
X189585000Y-83940000D01*
X185625000Y-84700000D02*
X184025000Y-84700000D01*
X186125000Y-86500000D02*
X181765000Y-86500000D01*
X189585000Y-89140000D02*
X189585000Y-90060000D01*
X181765000Y-87500000D02*
X186125000Y-87500000D01*
X187985000Y-89140000D02*
X189585000Y-89140000D01*
X185625000Y-85700000D02*
X185625000Y-84700000D01*
X187985000Y-83940000D02*
X187985000Y-84860000D01*
X189585000Y-90060000D02*
X181765000Y-90060000D01*
X189585000Y-84860000D02*
X187985000Y-84860000D01*
X184025000Y-84700000D02*
X184025000Y-85700000D01*
%TO.C,C4*%
X188463748Y-61395000D02*
X188986252Y-61395000D01*
X188463748Y-62865000D02*
X188986252Y-62865000D01*
%TO.C,C1*%
X257450000Y-85451252D02*
X257450000Y-84928748D01*
X255980000Y-85451252D02*
X255980000Y-84928748D01*
D10*
%TO.C,R2*%
X184649000Y-80286000D02*
X184649000Y-80540000D01*
X184649000Y-75460000D02*
X184649000Y-75714000D01*
X186681000Y-80286000D02*
X186427000Y-80032000D01*
X184903000Y-80032000D02*
X184649000Y-80286000D01*
X184903000Y-75968000D02*
X184903000Y-80032000D01*
X186427000Y-75206000D02*
X184903000Y-75206000D01*
X186427000Y-75968000D02*
X186681000Y-75714000D01*
X184649000Y-80540000D02*
X184903000Y-80794000D01*
X184903000Y-80794000D02*
X186427000Y-80794000D01*
X186681000Y-75460000D02*
X186427000Y-75206000D01*
X186427000Y-80794000D02*
X186681000Y-80540000D01*
X186681000Y-80540000D02*
X186681000Y-80286000D01*
X186427000Y-80032000D02*
X186427000Y-75968000D01*
X184649000Y-75714000D02*
X184903000Y-75968000D01*
X184903000Y-75206000D02*
X184649000Y-75460000D01*
X186681000Y-75714000D02*
X186681000Y-75460000D01*
D13*
%TO.C,U2*%
X261495000Y-86800000D02*
X259695000Y-86800000D01*
X259695000Y-83580000D02*
X262145000Y-83580000D01*
D10*
%TO.C,R4*%
X230033000Y-61494000D02*
X231557000Y-61494000D01*
X231811000Y-56160000D02*
X231557000Y-55906000D01*
X231557000Y-60732000D02*
X231557000Y-56668000D01*
X231557000Y-55906000D02*
X230033000Y-55906000D01*
X230033000Y-56668000D02*
X230033000Y-60732000D01*
X231557000Y-56668000D02*
X231811000Y-56414000D01*
X229779000Y-56414000D02*
X230033000Y-56668000D01*
X230033000Y-60732000D02*
X229779000Y-60986000D01*
X229779000Y-56160000D02*
X229779000Y-56414000D01*
X231811000Y-60986000D02*
X231557000Y-60732000D01*
X229779000Y-61240000D02*
X230033000Y-61494000D01*
X229779000Y-60986000D02*
X229779000Y-61240000D01*
X231811000Y-56414000D02*
X231811000Y-56160000D01*
X230033000Y-55906000D02*
X229779000Y-56160000D01*
X231811000Y-61240000D02*
X231811000Y-60986000D01*
X231557000Y-61494000D02*
X231811000Y-61240000D01*
%TO.C,R6*%
X212683000Y-85278000D02*
X212429000Y-85024000D01*
X217001000Y-85024000D02*
X216747000Y-85278000D01*
X217509000Y-86802000D02*
X217509000Y-85278000D01*
X212683000Y-86802000D02*
X216747000Y-86802000D01*
X211921000Y-85278000D02*
X211921000Y-86802000D01*
X212429000Y-87056000D02*
X212683000Y-86802000D01*
X217509000Y-85278000D02*
X217255000Y-85024000D01*
X216747000Y-85278000D02*
X212683000Y-85278000D01*
X217255000Y-87056000D02*
X217509000Y-86802000D01*
X212175000Y-87056000D02*
X212429000Y-87056000D01*
X217255000Y-85024000D02*
X217001000Y-85024000D01*
X212429000Y-85024000D02*
X212175000Y-85024000D01*
X216747000Y-86802000D02*
X217001000Y-87056000D01*
X211921000Y-86802000D02*
X212175000Y-87056000D01*
X212175000Y-85024000D02*
X211921000Y-85278000D01*
X217001000Y-87056000D02*
X217255000Y-87056000D01*
%TO.C,R7*%
X233109000Y-85278000D02*
X232855000Y-85024000D01*
X232347000Y-86802000D02*
X232601000Y-87056000D01*
X228029000Y-85024000D02*
X227775000Y-85024000D01*
X232855000Y-85024000D02*
X232601000Y-85024000D01*
X232601000Y-85024000D02*
X232347000Y-85278000D01*
X227775000Y-85024000D02*
X227521000Y-85278000D01*
X232601000Y-87056000D02*
X232855000Y-87056000D01*
X232855000Y-87056000D02*
X233109000Y-86802000D01*
X232347000Y-85278000D02*
X228283000Y-85278000D01*
X227521000Y-86802000D02*
X227775000Y-87056000D01*
X228283000Y-85278000D02*
X228029000Y-85024000D01*
X227521000Y-85278000D02*
X227521000Y-86802000D01*
X228283000Y-86802000D02*
X232347000Y-86802000D01*
X227775000Y-87056000D02*
X228029000Y-87056000D01*
X228029000Y-87056000D02*
X228283000Y-86802000D01*
X233109000Y-86802000D02*
X233109000Y-85278000D01*
D13*
%TO.C,C3*%
X188473748Y-72765000D02*
X188996252Y-72765000D01*
X188473748Y-71295000D02*
X188996252Y-71295000D01*
D10*
%TO.C,R5*%
X125238000Y-80032000D02*
X124984000Y-80286000D01*
X127016000Y-80540000D02*
X127016000Y-80286000D01*
X126762000Y-75206000D02*
X125238000Y-75206000D01*
X126762000Y-75968000D02*
X127016000Y-75714000D01*
X125238000Y-75968000D02*
X125238000Y-80032000D01*
X127016000Y-75460000D02*
X126762000Y-75206000D01*
X124984000Y-80286000D02*
X124984000Y-80540000D01*
X126762000Y-80794000D02*
X127016000Y-80540000D01*
X124984000Y-75460000D02*
X124984000Y-75714000D01*
X124984000Y-80540000D02*
X125238000Y-80794000D01*
X127016000Y-80286000D02*
X126762000Y-80032000D01*
X127016000Y-75714000D02*
X127016000Y-75460000D01*
X124984000Y-75714000D02*
X125238000Y-75968000D01*
X125238000Y-75206000D02*
X124984000Y-75460000D01*
X126762000Y-80032000D02*
X126762000Y-75968000D01*
X125238000Y-80794000D02*
X126762000Y-80794000D01*
%TO.C,R3*%
X234301000Y-56160000D02*
X234047000Y-55906000D01*
X232523000Y-60732000D02*
X232269000Y-60986000D01*
X232523000Y-61494000D02*
X234047000Y-61494000D01*
X234047000Y-60732000D02*
X234047000Y-56668000D01*
X232523000Y-55906000D02*
X232269000Y-56160000D01*
X234301000Y-56414000D02*
X234301000Y-56160000D01*
X234047000Y-55906000D02*
X232523000Y-55906000D01*
X232523000Y-56668000D02*
X232523000Y-60732000D01*
X234301000Y-60986000D02*
X234047000Y-60732000D01*
X234047000Y-61494000D02*
X234301000Y-61240000D01*
X232269000Y-56414000D02*
X232523000Y-56668000D01*
X234047000Y-56668000D02*
X234301000Y-56414000D01*
X232269000Y-61240000D02*
X232523000Y-61494000D01*
X232269000Y-60986000D02*
X232269000Y-61240000D01*
X234301000Y-61240000D02*
X234301000Y-60986000D01*
X232269000Y-56160000D02*
X232269000Y-56414000D01*
%TO.C,SW5*%
X28525000Y-82040000D02*
X28525000Y-73440000D01*
X23925000Y-75740000D02*
X23925000Y-73440000D01*
X23925000Y-82040000D02*
X23925000Y-79840000D01*
D13*
%TO.C,C2*%
X265350000Y-85451252D02*
X265350000Y-84928748D01*
X263880000Y-85451252D02*
X263880000Y-84928748D01*
D10*
%TO.C,SW20*%
X43795000Y-74990000D02*
X44045000Y-74990000D01*
X46995000Y-74990000D02*
X46745000Y-74990000D01*
X46995000Y-80690000D02*
X46995000Y-74990000D01*
X43795000Y-80690000D02*
X43795000Y-74990000D01*
X43795000Y-80690000D02*
X44045000Y-80690000D01*
X46995000Y-80690000D02*
X46745000Y-80690000D01*
%TO.C,R1*%
X113988000Y-86802000D02*
X118052000Y-86802000D01*
X118052000Y-86802000D02*
X118306000Y-87056000D01*
X113226000Y-86802000D02*
X113480000Y-87056000D01*
X113988000Y-85278000D02*
X113734000Y-85024000D01*
X118814000Y-86802000D02*
X118814000Y-85278000D01*
X118560000Y-85024000D02*
X118306000Y-85024000D01*
X113734000Y-87056000D02*
X113988000Y-86802000D01*
X113734000Y-85024000D02*
X113480000Y-85024000D01*
X118306000Y-85024000D02*
X118052000Y-85278000D01*
X118052000Y-85278000D02*
X113988000Y-85278000D01*
X118560000Y-87056000D02*
X118814000Y-86802000D01*
X113480000Y-87056000D02*
X113734000Y-87056000D01*
X118814000Y-85278000D02*
X118560000Y-85024000D01*
X118306000Y-87056000D02*
X118560000Y-87056000D01*
X113226000Y-85278000D02*
X113226000Y-86802000D01*
X113480000Y-85024000D02*
X113226000Y-85278000D01*
%TO.C,G\u002A\u002A\u002A*%
G36*
X24528276Y-105099147D02*
G01*
X24528276Y-104665700D01*
X25395170Y-104665700D01*
X25395170Y-104232253D01*
X24528276Y-104232253D01*
X24528276Y-103798806D01*
X25828617Y-103798806D01*
X25828617Y-103365359D01*
X25395170Y-103365359D01*
X25395170Y-102931911D01*
X25828617Y-102931911D01*
X26262064Y-102931911D01*
X26262064Y-102498464D01*
X25828617Y-102498464D01*
X25828617Y-102931911D01*
X25395170Y-102931911D01*
X25395170Y-101631570D01*
X26262064Y-101631570D01*
X26262064Y-102065017D01*
X26695511Y-102065017D01*
X26695511Y-103365359D01*
X26262064Y-103365359D01*
X26262064Y-103798806D01*
X25828617Y-103798806D01*
X25828617Y-104232253D01*
X26262064Y-104232253D01*
X26262064Y-103798806D01*
X26695511Y-103798806D01*
X26695511Y-104232253D01*
X26262064Y-104232253D01*
X26262064Y-104665700D01*
X25828617Y-104665700D01*
X25828617Y-105099147D01*
X24528276Y-105099147D01*
G37*
G36*
X22794488Y-102065017D02*
G01*
X23227935Y-102065017D01*
X23227935Y-101631570D01*
X22794488Y-101631570D01*
X22794488Y-101198123D01*
X23227935Y-101198123D01*
X23661382Y-101198123D01*
X24094829Y-101198123D01*
X24094829Y-100764676D01*
X23661382Y-100764676D01*
X23661382Y-101198123D01*
X23227935Y-101198123D01*
X23227935Y-100764676D01*
X23661382Y-100764676D01*
X23661382Y-99897782D01*
X24528276Y-99897782D01*
X24961723Y-99897782D01*
X24961723Y-99464335D01*
X25395170Y-99464335D01*
X25395170Y-98597440D01*
X24961723Y-98597440D01*
X24961723Y-99030888D01*
X24528276Y-99030888D01*
X24528276Y-99897782D01*
X23661382Y-99897782D01*
X22794488Y-99897782D01*
X22794488Y-99464335D01*
X23227935Y-99464335D01*
X23227935Y-99030888D01*
X23661382Y-99030888D01*
X23661382Y-98597440D01*
X24528276Y-98597440D01*
X24528276Y-98163993D01*
X24094829Y-98163993D01*
X24094829Y-97730546D01*
X25395170Y-97730546D01*
X25395170Y-98597440D01*
X25828617Y-98597440D01*
X25828617Y-98163993D01*
X26262064Y-98163993D01*
X26262064Y-98597440D01*
X26695511Y-98597440D01*
X26695511Y-99030888D01*
X26262064Y-99030888D01*
X26262064Y-99464335D01*
X26695511Y-99464335D01*
X26695511Y-99897782D01*
X24961723Y-99897782D01*
X24961723Y-100331229D01*
X24528276Y-100331229D01*
X24528276Y-101198123D01*
X24961723Y-101198123D01*
X24961723Y-100764676D01*
X25395170Y-100764676D01*
X25395170Y-101631570D01*
X24528276Y-101631570D01*
X24528276Y-102065017D01*
X24961723Y-102065017D01*
X24961723Y-102931911D01*
X24528276Y-102931911D01*
X24528276Y-102498464D01*
X24094829Y-102498464D01*
X24094829Y-103365359D01*
X24528276Y-103365359D01*
X24528276Y-103798806D01*
X24094829Y-103798806D01*
X24094829Y-103365359D01*
X22794488Y-103365359D01*
X22794488Y-102931911D01*
X23227935Y-102931911D01*
X23661382Y-102931911D01*
X23661382Y-102498464D01*
X23227935Y-102498464D01*
X23227935Y-102931911D01*
X22794488Y-102931911D01*
X22794488Y-102065017D01*
G37*
G36*
X23227935Y-95563311D02*
G01*
X22794488Y-95563311D01*
X22794488Y-95129864D01*
X23227935Y-95129864D01*
X23227935Y-95563311D01*
G37*
G36*
X26695511Y-118969454D02*
G01*
X26262064Y-118969454D01*
X26262064Y-118536007D01*
X26695511Y-118536007D01*
X26695511Y-118969454D01*
G37*
G36*
X23661382Y-94696417D02*
G01*
X24094829Y-94696417D01*
X24094829Y-94262969D01*
X24528276Y-94262969D01*
X24961723Y-94262969D01*
X24961723Y-93829522D01*
X25395170Y-93829522D01*
X25395170Y-92962628D01*
X24961723Y-92962628D01*
X24961723Y-93829522D01*
X24528276Y-93829522D01*
X24528276Y-94262969D01*
X24094829Y-94262969D01*
X23661382Y-94262969D01*
X23661382Y-94696417D01*
X22794488Y-94696417D01*
X22794488Y-94262969D01*
X23227935Y-94262969D01*
X23227935Y-93829522D01*
X22794488Y-93829522D01*
X22794488Y-93396075D01*
X23227935Y-93396075D01*
X24528276Y-93396075D01*
X24528276Y-92095734D01*
X23227935Y-92095734D01*
X23227935Y-93396075D01*
X22794488Y-93396075D01*
X22794488Y-91662287D01*
X24961723Y-91662287D01*
X24961723Y-92095734D01*
X25395170Y-92095734D01*
X25395170Y-92529181D01*
X25828617Y-92529181D01*
X25828617Y-93396075D01*
X26695511Y-93396075D01*
X26695511Y-93829522D01*
X25828617Y-93829522D01*
X25828617Y-94262969D01*
X25395170Y-94262969D01*
X25395170Y-94696417D01*
X25828617Y-94696417D01*
X25828617Y-95129864D01*
X23661382Y-95129864D01*
X23661382Y-94696417D01*
G37*
G36*
X25828617Y-111167406D02*
G01*
X25395170Y-111167406D01*
X25395170Y-111600853D01*
X26695511Y-111600853D01*
X26695511Y-112034301D01*
X24961723Y-112034301D01*
X24961723Y-110733959D01*
X25828617Y-110733959D01*
X25828617Y-111167406D01*
G37*
G36*
X26695511Y-98163993D02*
G01*
X26262064Y-98163993D01*
X26262064Y-97730546D01*
X26695511Y-97730546D01*
X26695511Y-98163993D01*
G37*
G36*
X23227935Y-125037713D02*
G01*
X22794488Y-125037713D01*
X22794488Y-123737372D01*
X23227935Y-123737372D01*
X23227935Y-125037713D01*
G37*
G36*
X23227935Y-100764676D02*
G01*
X22794488Y-100764676D01*
X22794488Y-100331229D01*
X23227935Y-100331229D01*
X23227935Y-100764676D01*
G37*
G36*
X24528276Y-121136690D02*
G01*
X23661382Y-121136690D01*
X23661382Y-120703243D01*
X24528276Y-120703243D01*
X24528276Y-121136690D01*
G37*
G36*
X25828617Y-107699830D02*
G01*
X26262064Y-107699830D01*
X26262064Y-108133277D01*
X26695511Y-108133277D01*
X26695511Y-108566724D01*
X26262064Y-108566724D01*
X26262064Y-109000171D01*
X25828617Y-109000171D01*
X25828617Y-109433618D01*
X26262064Y-109433618D01*
X26262064Y-109000171D01*
X26695511Y-109000171D01*
X26695511Y-109433618D01*
X26262064Y-109433618D01*
X26262064Y-109867065D01*
X26695511Y-109867065D01*
X26695511Y-110300512D01*
X25828617Y-110300512D01*
X25828617Y-109867065D01*
X25395170Y-109867065D01*
X25395170Y-110300512D01*
X24528276Y-110300512D01*
X24528276Y-111167406D01*
X24094829Y-111167406D01*
X24094829Y-110300512D01*
X24528276Y-110300512D01*
X24528276Y-109867065D01*
X25395170Y-109867065D01*
X25395170Y-109433618D01*
X24094829Y-109433618D01*
X24094829Y-110300512D01*
X23661382Y-110300512D01*
X23661382Y-109867065D01*
X23227935Y-109867065D01*
X23227935Y-109433618D01*
X24094829Y-109433618D01*
X24094829Y-109000171D01*
X23661382Y-109000171D01*
X23661382Y-107266382D01*
X24094829Y-107266382D01*
X24094829Y-106832935D01*
X23661382Y-106832935D01*
X23661382Y-107266382D01*
X23227935Y-107266382D01*
X23227935Y-106832935D01*
X23661382Y-106832935D01*
X23661382Y-106399488D01*
X24528276Y-106399488D01*
X24528276Y-106832935D01*
X24961723Y-106832935D01*
X24961723Y-105966041D01*
X25395170Y-105966041D01*
X25395170Y-106399488D01*
X26695511Y-106399488D01*
X26695511Y-106832935D01*
X25395170Y-106832935D01*
X25395170Y-107266382D01*
X24094829Y-107266382D01*
X24094829Y-108566724D01*
X24961723Y-108566724D01*
X24961723Y-109000171D01*
X25395170Y-109000171D01*
X25395170Y-108566724D01*
X26262064Y-108566724D01*
X26262064Y-108133277D01*
X25395170Y-108133277D01*
X25395170Y-107266382D01*
X25828617Y-107266382D01*
X25828617Y-107699830D01*
G37*
G36*
X26695511Y-96863652D02*
G01*
X26695511Y-97297099D01*
X26262064Y-97297099D01*
X26262064Y-97730546D01*
X25828617Y-97730546D01*
X25828617Y-97297099D01*
X26262064Y-97297099D01*
X26262064Y-96863652D01*
X26695511Y-96863652D01*
G37*
G36*
X25395170Y-96430205D02*
G01*
X26262064Y-96430205D01*
X26262064Y-96863652D01*
X25828617Y-96863652D01*
X25828617Y-97297099D01*
X24528276Y-97297099D01*
X24528276Y-96430205D01*
X24961723Y-96430205D01*
X24961723Y-95996758D01*
X24528276Y-95996758D01*
X24528276Y-95563311D01*
X25395170Y-95563311D01*
X25395170Y-96430205D01*
G37*
G36*
X23661382Y-118102560D02*
G01*
X22794488Y-118102560D01*
X22794488Y-117669113D01*
X23661382Y-117669113D01*
X23661382Y-118102560D01*
G37*
G36*
X23661382Y-122003584D02*
G01*
X26695511Y-122003584D01*
X26695511Y-125037713D01*
X23661382Y-125037713D01*
X23661382Y-124604266D01*
X24094829Y-124604266D01*
X26262064Y-124604266D01*
X26262064Y-122437031D01*
X24094829Y-122437031D01*
X24094829Y-124604266D01*
X23661382Y-124604266D01*
X23661382Y-122003584D01*
G37*
G36*
X23227935Y-120703243D02*
G01*
X22794488Y-120703243D01*
X22794488Y-120269795D01*
X23227935Y-120269795D01*
X23227935Y-120703243D01*
G37*
G36*
X23227935Y-110300512D02*
G01*
X22794488Y-110300512D01*
X22794488Y-109867065D01*
X23227935Y-109867065D01*
X23227935Y-110300512D01*
G37*
G36*
X23227935Y-96430205D02*
G01*
X22794488Y-96430205D01*
X22794488Y-95996758D01*
X23227935Y-95996758D01*
X23227935Y-96430205D01*
G37*
G36*
X23227935Y-99030888D02*
G01*
X22794488Y-99030888D01*
X22794488Y-98597440D01*
X23227935Y-98597440D01*
X23227935Y-99030888D01*
G37*
G36*
X23661382Y-112034301D02*
G01*
X24094829Y-112034301D01*
X24094829Y-112901195D01*
X22794488Y-112901195D01*
X22794488Y-112467748D01*
X23227935Y-112467748D01*
X23227935Y-112034301D01*
X22794488Y-112034301D01*
X22794488Y-111600853D01*
X23661382Y-111600853D01*
X23661382Y-112034301D01*
G37*
G36*
X25828617Y-121570137D02*
G01*
X24961723Y-121570137D01*
X24961723Y-121136690D01*
X25828617Y-121136690D01*
X25828617Y-121570137D01*
G37*
G36*
X26695511Y-107699830D02*
G01*
X26262064Y-107699830D01*
X26262064Y-107266382D01*
X26695511Y-107266382D01*
X26695511Y-107699830D01*
G37*
G36*
X23227935Y-105966041D02*
G01*
X22794488Y-105966041D01*
X22794488Y-105532594D01*
X23227935Y-105532594D01*
X23227935Y-105966041D01*
G37*
G36*
X26695511Y-121570137D02*
G01*
X26262064Y-121570137D01*
X26262064Y-121136690D01*
X26695511Y-121136690D01*
X26695511Y-121570137D01*
G37*
G36*
X24528276Y-105966041D02*
G01*
X24094829Y-105966041D01*
X24094829Y-105532594D01*
X24528276Y-105532594D01*
X24528276Y-105966041D01*
G37*
G36*
X26695511Y-92962628D02*
G01*
X26262064Y-92962628D01*
X26262064Y-92095734D01*
X25395170Y-92095734D01*
X25395170Y-91662287D01*
X26695511Y-91662287D01*
X26695511Y-92962628D01*
G37*
G36*
X23227935Y-122437031D02*
G01*
X22794488Y-122437031D01*
X22794488Y-122003584D01*
X23227935Y-122003584D01*
X23227935Y-122437031D01*
G37*
G36*
X26695511Y-105099147D02*
G01*
X26262064Y-105099147D01*
X26262064Y-104665700D01*
X26695511Y-104665700D01*
X26695511Y-105099147D01*
G37*
G36*
X26695511Y-101631570D02*
G01*
X26262064Y-101631570D01*
X26262064Y-101198123D01*
X26695511Y-101198123D01*
X26695511Y-101631570D01*
G37*
G36*
X24094829Y-97730546D02*
G01*
X23661382Y-97730546D01*
X23661382Y-98163993D01*
X22794488Y-98163993D01*
X22794488Y-97730546D01*
X23227935Y-97730546D01*
X23227935Y-97297099D01*
X22794488Y-97297099D01*
X22794488Y-96863652D01*
X23661382Y-96863652D01*
X23661382Y-96430205D01*
X24094829Y-96430205D01*
X24094829Y-97730546D01*
G37*
G36*
X23227935Y-104232253D02*
G01*
X22794488Y-104232253D01*
X22794488Y-103798806D01*
X23227935Y-103798806D01*
X23227935Y-104232253D01*
G37*
G36*
X26695511Y-94696417D02*
G01*
X26262064Y-94696417D01*
X26262064Y-94262969D01*
X26695511Y-94262969D01*
X26695511Y-94696417D01*
G37*
G36*
X24961723Y-116802219D02*
G01*
X24528276Y-116802219D01*
X24528276Y-116368772D01*
X24961723Y-116368772D01*
X24961723Y-116802219D01*
G37*
G36*
X23227935Y-123303925D02*
G01*
X22794488Y-123303925D01*
X22794488Y-122870478D01*
X23227935Y-122870478D01*
X23227935Y-123303925D01*
G37*
G36*
X23227935Y-118969454D02*
G01*
X22794488Y-118969454D01*
X22794488Y-118536007D01*
X23227935Y-118536007D01*
X23227935Y-118969454D01*
G37*
G36*
X26695511Y-116368772D02*
G01*
X26262064Y-116368772D01*
X26262064Y-116802219D01*
X26695511Y-116802219D01*
X26695511Y-117235666D01*
X26262064Y-117235666D01*
X26262064Y-117669113D01*
X26695511Y-117669113D01*
X26695511Y-118102560D01*
X26262064Y-118102560D01*
X26262064Y-118536007D01*
X25395170Y-118536007D01*
X25395170Y-118969454D01*
X25828617Y-118969454D01*
X25828617Y-119402901D01*
X26695511Y-119402901D01*
X26695511Y-119836348D01*
X26262064Y-119836348D01*
X26262064Y-120269795D01*
X26695511Y-120269795D01*
X26695511Y-120703243D01*
X26262064Y-120703243D01*
X26262064Y-121136690D01*
X25828617Y-121136690D01*
X25828617Y-120269795D01*
X25395170Y-120269795D01*
X25395170Y-119836348D01*
X24961723Y-119836348D01*
X24961723Y-120269795D01*
X24528276Y-120269795D01*
X24528276Y-119836348D01*
X24094829Y-119836348D01*
X24094829Y-120269795D01*
X23227935Y-120269795D01*
X23227935Y-119836348D01*
X22794488Y-119836348D01*
X22794488Y-119402901D01*
X23227935Y-119402901D01*
X23227935Y-118969454D01*
X24961723Y-118969454D01*
X24961723Y-118536007D01*
X24094829Y-118536007D01*
X24094829Y-118102560D01*
X24528276Y-118102560D01*
X24961723Y-118102560D01*
X25395170Y-118102560D01*
X25395170Y-117669113D01*
X24961723Y-117669113D01*
X24961723Y-118102560D01*
X24528276Y-118102560D01*
X24528276Y-117669113D01*
X23661382Y-117669113D01*
X23661382Y-117235666D01*
X22794488Y-117235666D01*
X22794488Y-116802219D01*
X23227935Y-116802219D01*
X23661382Y-116802219D01*
X24094829Y-116802219D01*
X24094829Y-117235666D01*
X24961723Y-117235666D01*
X24961723Y-116802219D01*
X25395170Y-116802219D01*
X25395170Y-117235666D01*
X26262064Y-117235666D01*
X26262064Y-116802219D01*
X25395170Y-116802219D01*
X25395170Y-116368772D01*
X24961723Y-116368772D01*
X24961723Y-115935324D01*
X25395170Y-115935324D01*
X25395170Y-115501877D01*
X26262064Y-115501877D01*
X26262064Y-115068430D01*
X25395170Y-115068430D01*
X25395170Y-115501877D01*
X24528276Y-115501877D01*
X24528276Y-115935324D01*
X23661382Y-115935324D01*
X23661382Y-116802219D01*
X23227935Y-116802219D01*
X23227935Y-116368772D01*
X22794488Y-116368772D01*
X22794488Y-115935324D01*
X23227935Y-115935324D01*
X23227935Y-115501877D01*
X23661382Y-115501877D01*
X24528276Y-115501877D01*
X24528276Y-114634983D01*
X24961723Y-114634983D01*
X24961723Y-114201536D01*
X25395170Y-114201536D01*
X25828617Y-114201536D01*
X26262064Y-114201536D01*
X26262064Y-113768089D01*
X25828617Y-113768089D01*
X25828617Y-114201536D01*
X25395170Y-114201536D01*
X25395170Y-113768089D01*
X24961723Y-113768089D01*
X24961723Y-114201536D01*
X24528276Y-114201536D01*
X24528276Y-113334642D01*
X24961723Y-113334642D01*
X25828617Y-113334642D01*
X25828617Y-112901195D01*
X24961723Y-112901195D01*
X24961723Y-113334642D01*
X24528276Y-113334642D01*
X24094829Y-113334642D01*
X24094829Y-114634983D01*
X23661382Y-114634983D01*
X23661382Y-115501877D01*
X23227935Y-115501877D01*
X22794488Y-115501877D01*
X22794488Y-115068430D01*
X23227935Y-115068430D01*
X23227935Y-114634983D01*
X22794488Y-114634983D01*
X22794488Y-114201536D01*
X23227935Y-114201536D01*
X23661382Y-114201536D01*
X23661382Y-113768089D01*
X23227935Y-113768089D01*
X23227935Y-114201536D01*
X22794488Y-114201536D01*
X22794488Y-113334642D01*
X24094829Y-113334642D01*
X24094829Y-112901195D01*
X24961723Y-112901195D01*
X24961723Y-112467748D01*
X26695511Y-112467748D01*
X26695511Y-112901195D01*
X26262064Y-112901195D01*
X26262064Y-113334642D01*
X26695511Y-113334642D01*
X26695511Y-114634983D01*
X26262064Y-114634983D01*
X26262064Y-115068430D01*
X26695511Y-115068430D01*
X26695511Y-115501877D01*
X26262064Y-115501877D01*
X26262064Y-115935324D01*
X25828617Y-115935324D01*
X25828617Y-116368772D01*
X26262064Y-116368772D01*
X26262064Y-115935324D01*
X26695511Y-115935324D01*
X26695511Y-116368772D01*
G37*
G36*
X23227935Y-108566724D02*
G01*
X22794488Y-108566724D01*
X22794488Y-108133277D01*
X23227935Y-108133277D01*
X23227935Y-108566724D01*
G37*
G36*
X23227935Y-107699830D02*
G01*
X22794488Y-107699830D01*
X22794488Y-107266382D01*
X23227935Y-107266382D01*
X23227935Y-107699830D01*
G37*
G36*
X26695511Y-105966041D02*
G01*
X26262064Y-105966041D01*
X26262064Y-105532594D01*
X26695511Y-105532594D01*
X26695511Y-105966041D01*
G37*
G36*
X23227935Y-111167406D02*
G01*
X22794488Y-111167406D01*
X22794488Y-110733959D01*
X23227935Y-110733959D01*
X23227935Y-111167406D01*
G37*
G36*
X24528276Y-112034301D02*
G01*
X24094829Y-112034301D01*
X24094829Y-111600853D01*
X24528276Y-111600853D01*
X24528276Y-112034301D01*
G37*
G36*
X23227935Y-106832935D02*
G01*
X22794488Y-106832935D01*
X22794488Y-106399488D01*
X23227935Y-106399488D01*
X23227935Y-106832935D01*
G37*
G36*
X23227935Y-121570137D02*
G01*
X22794488Y-121570137D01*
X22794488Y-121136690D01*
X23227935Y-121136690D01*
X23227935Y-121570137D01*
G37*
G36*
X25828617Y-124170819D02*
G01*
X24528276Y-124170819D01*
X24528276Y-122870478D01*
X25828617Y-122870478D01*
X25828617Y-124170819D01*
G37*
G36*
X26695511Y-100764676D02*
G01*
X25828617Y-100764676D01*
X25828617Y-100331229D01*
X26695511Y-100331229D01*
X26695511Y-100764676D01*
G37*
G36*
X26695511Y-95563311D02*
G01*
X26262064Y-95563311D01*
X26262064Y-95129864D01*
X26695511Y-95129864D01*
X26695511Y-95563311D01*
G37*
G36*
X25828617Y-105966041D02*
G01*
X25395170Y-105966041D01*
X25395170Y-105532594D01*
X25828617Y-105532594D01*
X25828617Y-105966041D01*
G37*
G36*
X24094829Y-92962628D02*
G01*
X23661382Y-92962628D01*
X23661382Y-92529181D01*
X24094829Y-92529181D01*
X24094829Y-92962628D01*
G37*
G36*
X26695511Y-96430205D02*
G01*
X26262064Y-96430205D01*
X26262064Y-95996758D01*
X26695511Y-95996758D01*
X26695511Y-96430205D01*
G37*
G36*
X24094829Y-105099147D02*
G01*
X23661382Y-105099147D01*
X23661382Y-105532594D01*
X23227935Y-105532594D01*
X23227935Y-105099147D01*
X22794488Y-105099147D01*
X22794488Y-104665700D01*
X23661382Y-104665700D01*
X23661382Y-104232253D01*
X24094829Y-104232253D01*
X24094829Y-105099147D01*
G37*
G36*
X24094829Y-95996758D02*
G01*
X23227935Y-95996758D01*
X23227935Y-95563311D01*
X24094829Y-95563311D01*
X24094829Y-95996758D01*
G37*
G36*
X23227935Y-109433618D02*
G01*
X22794488Y-109433618D01*
X22794488Y-109000171D01*
X23227935Y-109000171D01*
X23227935Y-109433618D01*
G37*
G36*
X26695511Y-111167406D02*
G01*
X26262064Y-111167406D01*
X26262064Y-110733959D01*
X26695511Y-110733959D01*
X26695511Y-111167406D01*
G37*
D13*
%TO.C,D53*%
X33442500Y-69920000D02*
X33202500Y-69920000D01*
D10*
X31012500Y-70150000D02*
X31012500Y-68650000D01*
D13*
X32982500Y-69040000D02*
X32982500Y-68880000D01*
D10*
X34212500Y-69900000D02*
X34212500Y-68900000D01*
X36412500Y-70150000D02*
X36412500Y-68650000D01*
X33312500Y-69400000D02*
X34212500Y-69900000D01*
D13*
X32982500Y-68880000D02*
X33202500Y-68880000D01*
X33202500Y-69920000D02*
X33202500Y-68880000D01*
D10*
X31012500Y-68650000D02*
X36412500Y-68650000D01*
X34212500Y-68900000D02*
X33312500Y-69400000D01*
X36412500Y-70150000D02*
X31012500Y-70150000D01*
D13*
X33442500Y-69790000D02*
X33442500Y-69920000D01*
%TD*%
M02*
