%TF.GenerationSoftware,KiCad,Pcbnew,(6.0.5-0)*%
%TF.CreationDate,2022-06-30T23:43:57+09:00*%
%TF.ProjectId,denpa,64656e70-612e-46b6-9963-61645f706362,1*%
%TF.SameCoordinates,Original*%
%TF.FileFunction,Profile,NP*%
%FSLAX46Y46*%
G04 Gerber Fmt 4.6, Leading zero omitted, Abs format (unit mm)*
G04 Created by KiCad (PCBNEW (6.0.5-0)) date 2022-06-30 23:43:57*
%MOMM*%
%LPD*%
G01*
G04 APERTURE LIST*
%TA.AperFunction,Profile*%
%ADD10C,0.100000*%
%TD*%
G04 APERTURE END LIST*
D10*
X280715000Y-48125000D02*
X251090000Y-48125000D01*
X51070000Y-48125000D02*
X21445000Y-48125000D01*
X184420000Y-43125000D02*
X184420000Y-48125000D01*
X280715000Y-126425000D02*
X280715000Y-48125000D01*
X184420000Y-150475000D02*
X251095000Y-150475000D01*
X117745000Y-150475000D02*
X117745000Y-145475000D01*
X51070000Y-43125000D02*
X51070000Y-48125000D01*
X117745000Y-145475000D02*
X184420000Y-145475000D01*
X51070000Y-145475000D02*
X51070000Y-150475000D01*
X21445000Y-48125000D02*
X21445000Y-126425000D01*
X21445000Y-126425000D02*
X40495000Y-145475000D01*
X51070000Y-150475000D02*
X117745000Y-150475000D01*
X117745000Y-43125000D02*
X51070000Y-43125000D01*
X261665000Y-145475000D02*
X280715000Y-126425000D01*
X184420000Y-145475000D02*
X184420000Y-150475000D01*
X251090000Y-43125000D02*
X184420000Y-43125000D01*
X40495000Y-145475000D02*
X51070000Y-145475000D01*
X251095000Y-145475000D02*
X261665000Y-145475000D01*
X251090000Y-48125000D02*
X251090000Y-43125000D01*
X251095000Y-150475000D02*
X251095000Y-145475000D01*
X184420000Y-48125000D02*
X117745000Y-48125000D01*
X117745000Y-48125000D02*
X117745000Y-43125000D01*
M02*
